<svg xmlns="http://www.w3.org/2000/svg" viewBox="0 0 71 142" enable-background="new 0 0 71 142"><path fill="#fff" d="M40.5 87.55l-.9 1.1h6.3l-.35-1.1h-5.05z"/><path fill="#ccc" d="M44.65 83.25l-10.85-30.5v28.65c.2.7.4 1.3.6 1.85h10.25z"/><path fill="#DA291C" d="M20.5 89.9l1.45 2.35h28.8l-.7-2.35h-29.55z"/><path fill="#fff" d="M32.6 86.35h1.7c-.2-.45-.45-1.05-.75-1.85-.1-.2-.15-.4-.25-.65l-.1-.3-.65-1.9c-1.45-4.75-3-12.35-2.55-22.4-3.4 10.95-7.35 23.75-8.35 27.05h10.95v.05z"/><path fill="#404040" d="M52.2 92.7l-1.1-3.6c-.1-.25-.3-.45-.6-.45h-3.3l-.6-1.9c-.1-.25-.3-.45-.6-.45h-5.8c-.2 0-.35.1-.5.25l-1.7 2.1h-5.4v-1.05h2.7c.2 0 .4-.1.55-.3.1-.2.1-.4 0-.6 0-.05-.4-.8-.95-2.15h10.65c.2 0 .4-.1.5-.25.1-.15.15-.4.1-.55l-12.4-34.85c-.1-.3-.4-.45-.7-.4-.3.05-.5.3-.5.6v27.4c-1.15-5.55-1.95-13.25-.85-22.7.05-.3-.2-.6-.5-.7-.3-.05-.65.1-.75.4-4.15 13.2-10.2 33.05-10.25 33.25-.05.2 0 .4.1.55.1.15.3.25.5.25h10.5v1.05h-11.9c-.25 0-.45.1-.55.3-.1.2-.1.45 0 .65l2.2 3.6c.1.2.3.3.55.3h30c.2 0 .4-.1.5-.25.15-.1.15-.3.1-.5zm-11.7-5.15h5.05l.35 1.1h-6.3l.9-1.1zm-6.7-34.8l10.85 30.5h-10.25c-.2-.55-.4-1.2-.6-1.85v-28.65zm-12.15 33.6c1-3.3 4.95-16.1 8.35-27.05-.45 10.05 1.1 17.65 2.55 22.4.2.7.4 1.3.65 1.9l.1.3.25.65c.3.75.55 1.4.75 1.85h-12.65v-.05zm.3 5.9l-1.45-2.35h29.55l.7 2.35h-28.8z"/></svg>