<svg xmlns="http://www.w3.org/2000/svg" viewBox="0 0 71 142" enable-background="new 0 0 71 142"><path fill="#765" d="M28.76 52.68c-.22-1.64-1.88-2.93-3.9-2.93-2.16 0-3.92 1.48-3.92 3.29 0 1.78 1.71 3.24 3.83 3.28.96-1.46 2.33-2.71 3.99-3.64zm17.48 3.65c2.12-.05 3.83-1.5 3.83-3.29 0-1.81-1.76-3.29-3.92-3.29-2.02 0-3.69 1.28-3.9 2.94 1.65.92 3.03 2.17 3.99 3.64z"/><path fill="#AC9D8C" d="M29.63 70.1c-.94.32-2.14.71-3.65 1.24-3.86 1.34-5.99 3.12-5.98 5.02 0 1.62 1.42 2.91 3.16 2.91.36 0 .73-.06 1.09-.18l.17-.03c.32-.09 1.15-.58 2.25-1.29l.02-.11c.55-3.15 1.74-5.67 3.36-7.38l-.42-.18zm14.68 7.56l.01.1c1.12.73 1.94 1.22 2.26 1.3l.16.03c.36.12.72.18 1.09.18 1.74 0 3.15-1.29 3.15-2.89.01-2.46-3.25-4.1-5.98-5.04-1.51-.53-2.71-.92-3.65-1.24l-.38.17c1.65 1.69 2.82 4.22 3.34 7.39zm-1.14.84l-.1-.63-.04-.21-.18-.88c-.53-2.3-1.56-4.56-3.17-6.03-.53.16-1.08.29-1.64.39l-.66.11-.65.07c-.4.04-.81.05-1.22.05-.42 0-.82-.02-1.22-.05l-.65-.07-.66-.11c-.55-.1-1.09-.22-1.61-.39-1.6 1.47-2.65 3.73-3.19 6.02-.07.29-.14.59-.19.88l-.04.22-.1.64c-.2 1.33-.28 2.5-.11 3.5l.34-.02c2.25 0 4.09 1.75 4.24 3.95 1.11.3 2.27.48 3.21.48s2.1-.18 3.22-.49c.16-2.21 2-3.95 4.24-3.95l.35.02c.14-1.04.03-2.22-.17-3.5zm-12.12 7.71c0-.24-.03-.47-.09-.71-.33-1.29-1.49-2.24-2.88-2.26h-.03c-.2 0-.41.02-.62.07l-.1.02-.52.11-2.62.58-.08.03c-2.04.43-3.47 2.1-3.47 4.04 0 2.29 2 4.15 4.46 4.15 1.52 0 2.92-.71 3.74-1.9l.06-.07 1.61-2.32c.24-.34.39-.71.47-1.11.04-.2.07-.4.07-.6v-.03zm15.85-2.16l-.08-.03-2.61-.57-.51-.12-.11-.02c-.22-.05-.43-.08-.63-.08h-.03c-1.38.01-2.55.97-2.88 2.26-.06.22-.09.46-.1.71v.04c0 .21.03.4.07.6.08.4.24.78.47 1.12l1.62 2.32.06.07c.83 1.19 2.23 1.9 3.74 1.9 2.46 0 4.47-1.86 4.47-4.15-.01-1.95-1.44-3.61-3.48-4.05zm-1.39-26.5c-.13-.24-.28-.48-.43-.7-.2-.29-.42-.58-.67-.85-.54-.62-1.17-1.18-1.89-1.67-.28-.19-.56-.37-.85-.53-.22-.12-.46-.24-.69-.35-1.62-.76-3.49-1.21-5.49-1.21-1.99 0-3.87.44-5.48 1.21-.24.11-.47.23-.69.35-.3.17-.58.34-.85.53-.72.49-1.34 1.05-1.89 1.67-.24.27-.46.56-.67.85-.16.22-.3.46-.43.7-.6 1.11-.94 2.33-.94 3.62 0 3.19 2.07 6 5.17 7.58.27.14.56.26.84.38l.52.21.43.15.3.1c.28.08.57.15.86.22h.01l.66.12.66.09c.49.06.99.08 1.49.08.51 0 1.01-.03 1.49-.08l.66-.09.67-.13h.01c.29-.07.58-.13.85-.22l.29-.09.46-.15.51-.2c.29-.12.57-.25.84-.38 3.1-1.58 5.17-4.39 5.17-7.58.02-1.3-.32-2.52-.92-3.63zm-10.01 3.98c1.72 0 3.08.93 3.08 2.11 0 1.15-1.37 2.53-3.08 2.53s-3.08-1.38-3.08-2.53c0-1.18 1.35-2.11 3.08-2.11z"/><path fill="#765" d="M35.5 64.92c1.05 0 1.82-.85 1.82-1.28 0-.35-.71-.86-1.82-.86s-1.82.51-1.82.86c0 .43.77 1.28 1.82 1.28z"/><path fill="#404040" d="M47.26 82.85l-.08-.03-2.63-.58c.15-.9.12-1.86.01-2.86.86.52 1.55.88 1.9.93.46.15.92.21 1.4.21 2.43 0 4.41-1.86 4.41-4.16.01-2.55-2.3-4.64-6.83-6.21-.97-.33-1.82-.62-2.56-.88 2.93-1.86 4.83-4.8 4.83-8.1 0-1.28-.29-2.51-.81-3.64 2.49-.33 4.42-2.21 4.42-4.49 0-2.5-2.33-4.54-5.18-4.54-2.49 0-4.58 1.56-5.07 3.61-1.67-.72-3.56-1.12-5.57-1.12s-3.9.41-5.57 1.12c-.49-2.06-2.57-3.61-5.06-3.61-2.85 0-5.18 2.04-5.18 4.54 0 2.28 1.92 4.17 4.42 4.49-.52 1.13-.81 2.36-.81 3.64 0 3.3 1.9 6.24 4.83 8.1-.74.25-1.58.54-2.56.88-4.47 1.55-6.83 3.7-6.83 6.23 0 2.29 1.98 4.14 4.41 4.14.47 0 .94-.07 1.4-.21.34-.06 1.02-.4 1.88-.93-.1.97-.12 1.94.03 2.86l-2.64.58-.08.03c-2.58.59-4.37 2.74-4.37 5.25 0 2.98 2.57 5.4 5.72 5.4 1.9 0 3.65-.88 4.72-2.36l.06-.08 1.67-2.39c.32-.45.52-.95.65-1.47 1.21.31 2.42.47 3.31.47.9 0 2.1-.16 3.32-.47.12.53.33 1.03.65 1.47l1.67 2.4.06.07c1.07 1.48 2.83 2.36 4.72 2.36 3.15 0 5.72-2.42 5.72-5.4-.02-2.52-1.81-4.67-4.38-5.25zm-5.1 7.5l-.06-.07-1.62-2.32c-.24-.34-.39-.71-.47-1.12-.04-.19-.07-.4-.07-.6v-.04c.01-.24.03-.48.1-.71.33-1.29 1.49-2.24 2.88-2.25h.03c.21 0 .41.03.63.08l.11.02.51.11 2.61.58.08.03c2.04.43 3.47 2.1 3.47 4.04 0 2.29-2 4.15-4.47 4.15-1.5 0-2.9-.71-3.73-1.9zm-6.66-3.93c-.94 0-2.1-.17-3.21-.48-.15-2.21-2-3.96-4.24-3.96l-.34.02c-.17-1-.09-2.17.11-3.5l.1-.64.04-.22.19-.89c.56-2.29 1.59-4.55 3.19-6.02.52.16 1.06.28 1.61.39l.66.1.65.07c.4.03.81.05 1.22.05.42 0 .82-.02 1.22-.05l.65-.07.66-.1c.56-.1 1.11-.23 1.64-.39 1.62 1.46 2.65 3.73 3.17 6.03.07.29.13.58.18.88l.04.21.1.63c.19 1.28.3 2.47.13 3.51l-.35-.02c-2.24 0-4.08 1.74-4.24 3.95-1.09.32-2.25.5-3.18.5zm-4.45-.17c0 .21-.03.41-.07.61-.08.39-.24.77-.47 1.11l-1.61 2.32-.06.07c-.83 1.19-2.23 1.9-3.74 1.9-2.46 0-4.46-1.86-4.46-4.15 0-1.95 1.42-3.61 3.47-4.05l.08-.03 2.62-.58.52-.12.1-.02c.22-.04.42-.08.62-.08h.03c1.39.01 2.55.98 2.88 2.26.06.22.09.46.09.71v.05zm-6.81-7.16c-.36.12-.73.18-1.09.18-1.74 0-3.16-1.29-3.16-2.91 0-1.9 2.12-3.68 5.98-5.02 1.51-.53 2.7-.93 3.65-1.24l.42.18c-1.62 1.7-2.81 4.22-3.36 7.38l-.02.11c-1.1.72-1.93 1.21-2.25 1.29l-.17.03zm4.52-26.4c-1.66.92-3.04 2.17-3.99 3.64-2.12-.05-3.83-1.5-3.83-3.29 0-1.81 1.76-3.29 3.92-3.29 2.03.01 3.69 1.29 3.9 2.94zm-3.27 4.86c.13-.24.27-.47.43-.7.2-.3.42-.58.67-.85.54-.62 1.17-1.18 1.89-1.67.27-.18.56-.36.85-.53l.69-.36c1.61-.76 3.49-1.2 5.48-1.2s3.87.44 5.49 1.2c.24.11.47.23.69.36.29.17.58.34.85.53.71.49 1.35 1.04 1.89 1.67.24.28.47.56.67.85.15.23.29.46.43.7.6 1.11.94 2.33.94 3.62 0 3.19-2.06 6-5.17 7.57-.27.14-.56.26-.84.39-.17.07-.33.14-.51.19l-.46.15-.29.09c-.28.08-.56.15-.85.22h-.01c-.22.05-.44.09-.67.13-.22.04-.44.07-.66.09-.49.06-.99.09-1.49.09-.51 0-1.01-.03-1.49-.09-.22-.02-.44-.05-.66-.09l-.66-.12h-.01c-.29-.07-.58-.13-.86-.22l-.3-.1-.43-.15-.52-.21c-.29-.12-.57-.25-.84-.39-3.1-1.58-5.17-4.38-5.17-7.57-.02-1.27.32-2.5.92-3.6zm20.64-7.79c2.17 0 3.92 1.47 3.92 3.29 0 1.78-1.71 3.24-3.83 3.28-.96-1.47-2.33-2.72-3.99-3.64.22-1.65 1.88-2.93 3.9-2.93zm1.71 29.51c-.37 0-.73-.06-1.09-.18l-.16-.03c-.32-.08-1.15-.58-2.26-1.3l-.01-.1c-.52-3.16-1.69-5.69-3.33-7.39l.38-.17c.94.31 2.14.72 3.65 1.24 2.73.95 5.99 2.59 5.98 5.05 0 1.59-1.42 2.88-3.16 2.88z"/><path fill="#3F3F3F" d="M35.5 66.18c1.71 0 3.08-1.39 3.08-2.54 0-1.18-1.35-2.11-3.08-2.11s-3.08.93-3.08 2.11c0 1.15 1.37 2.54 3.08 2.54zm0-3.4c1.11 0 1.82.51 1.82.86 0 .44-.77 1.28-1.82 1.28s-1.82-.85-1.82-1.28c0-.35.71-.86 1.82-.86z"/></svg>