<svg xmlns="http://www.w3.org/2000/svg" viewBox="0 0 71 142" enable-background="new 0 0 71 142"><path fill="#808080" d="M51.76 76.83c-.06-1.55-1.33-2.79-2.9-2.79s-2.84 1.25-2.9 2.8l-.01.11c0 .16.01.31.04.47.03.2.08.39.15.58.42 1.08 1.47 1.86 2.71 1.86s2.28-.78 2.71-1.86c.07-.19.12-.38.15-.58.03-.15.04-.31.04-.47l.01-.12zm-1.23 1.16c-.35.56-.97.93-1.67.93-.71 0-1.32-.38-1.67-.93-.11-.17-.19-.37-.24-.58-.04-.15-.06-.31-.06-.47l.01-.1c.06-1.04.92-1.88 1.97-1.88s1.92.83 1.97 1.88l.01.1c0 .16-.03.32-.06.47-.06.21-.15.4-.26.58zm-28.58-3.95c-1.42 0-2.6 1.03-2.85 2.37-.03.17-.05.35-.05.53v.04c0 .2.02.4.07.58.28 1.31 1.44 2.29 2.84 2.29 1.25 0 2.32-.79 2.73-1.91.07-.18.11-.37.15-.57.02-.14.03-.28.03-.43v-.15c-.09-1.53-1.36-2.75-2.92-2.75zm1.74 3.83c-.33.62-.99 1.05-1.74 1.05-.85 0-1.57-.54-1.85-1.29-.07-.19-.11-.38-.12-.59l-.01-.1c0-.16.02-.32.06-.46.21-.87.99-1.51 1.92-1.51 1.02 0 1.85.78 1.96 1.77l.02.21-.03.37c-.04.19-.12.38-.21.55z"/><path fill="#fff" d="M48.85 76.11c-.42 0-.77.32-.82.73l-.01.1c0 .17.06.34.15.47.15.22.4.36.68.36s.53-.14.68-.36c.1-.13.15-.29.15-.47l-.01-.1c-.04-.41-.39-.73-.82-.73zm-26.9 0c-.32 0-.59.18-.73.44-.06.11-.1.25-.1.39l.02.18c.07.3.3.54.6.62l.2.03.09-.01c.32-.03.58-.25.68-.53.03-.09.06-.19.06-.29 0-.1-.02-.19-.06-.29-.1-.31-.4-.54-.76-.54zm33.77-5.34l-.08-.09-.25-.23-.08-.08h-.01l-2.4-.01-.06.04.03.07c.51.22 1.02.37 1.55.45l1.63.25c-.1-.14-.21-.28-.33-.4z"/><path fill="#B0DFDB" d="M22.33 65.03l1.06 1.51c.3.41.73.7 1.23.81 1.25.26 3.5.69 5.48.77l-.52-4.04c-3.31.13-5.53.52-7.25.95zm10.34-.95l.53 4.05h9.76v-.79c-2.61-1.41-6.46-3.08-10.29-3.26z"/><path fill="#DA291C" d="M56.62 72.42c-.37-.06-1.06-.16-2.38-.35-.63-.1-1.24-.27-1.82-.53-.54-.24-.83-.79-.72-1.36.12-.57.6-.96 1.18-.96h.22c-1.37-.51-3.2-.99-5.64-1.56l-.15-.06-1.13-.65c-3.52-2.03-8.34-4.8-15.01-4.8h-.11c-7.82 0-12.19 2-14.06 2.85-.14.06-.25.14-.35.24l1.44 2.07c.13.18.14.43.02.62-.07.11-1.61 2.75-3.4 3.62l-.19.15c-.24.18-.38.47-.38.76v1.74c0 .44.3.81.72.92l3.11 1.04c.36-1.87 2-3.28 3.98-3.28 2.2 0 3.99 1.76 4.05 3.95h18.8c.06-2.18 1.85-3.95 4.05-3.95s3.99 1.76 4.05 3.95c.47-.01 1.94-.04 3.15-.28.66-.13.8-1.12.8-1.93 0-.86-.07-1.58-.23-2.2zm-32.24-3.95c-.78-.17-1.47-.62-1.92-1.28l-1.54-2.19c-.11-.15-.14-.35-.07-.52.07-.18.21-.31.39-.36 2.8-.76 5.43-1.12 8.83-1.22.29-.01.55.21.58.5l.68 5.22c.02.17-.03.33-.14.46-.11.12-.26.2-.43.2-2.23.01-4.95-.5-6.38-.81zm18.45 6.52h-15c-.32 0-.58-.26-.58-.57s.25-.57.58-.57h15c.32 0 .58.26.58.57s-.27.57-.58.57zm1.46-4.5h-.76c-.32 0-.58-.26-.58-.57v-.62h-10.26c-.29 0-.53-.22-.57-.5l-.68-5.22c-.02-.17.03-.33.14-.45.11-.12.26-.19.43-.19 5.15 0 10.38 2.69 13.04 4.29l.19.15c.46.3.76.81.76 1.4-.01.94-.77 1.71-1.71 1.71zm-28.21-4.04l-.76 3.25c.67-.65 1.27-1.49 1.61-2.03l-.85-1.22zm28.21 1.77h-.19v1.11h.19l.22-.05c.19-.08.33-.28.33-.51l-.03-.18c-.08-.21-.28-.37-.52-.37z"/><path fill="#404040" d="M57.62 71.81l-.02-.09-.13-.34-.02-.04c-.15-.34-.33-.65-.54-.94l-.03-.04-.15-.18c-.27-.33-.58-.61-.91-.86l-.06-.03c-1.59-1.13-4.12-1.84-7.95-2.74l-1.05-.6c-3.63-2.09-8.61-4.95-15.58-4.95h-.11c-8.08 0-12.77 2.15-14.54 2.96-.73.33-1.27.98-1.46 1.78l-1.16 5-.06.05c-.52.4-.84 1.03-.84 1.69v1.74c0 .96.65 1.79 1.54 2.03l3.38 1.14c.2 2.01 1.93 3.61 4.02 3.61 1.88 0 3.45-1.28 3.91-3.01h19.08c.46 1.73 2.05 3.01 3.91 3.01 1.88 0 3.45-1.28 3.91-3.01h.03c.33 0 2.05-.01 3.48-.3.78-.16 1.72-.82 1.72-3.05.01-1.13-.11-2.04-.37-2.83zm-4.72 5.03c-.06-2.19-1.85-3.95-4.05-3.95s-3.99 1.76-4.05 3.95h-18.8c-.06-2.19-1.85-3.95-4.05-3.95-1.97 0-3.61 1.42-3.98 3.28l-3.11-1.04c-.42-.11-.72-.49-.72-.93v-1.74c0-.3.14-.58.38-.76l.19-.15c1.78-.87 3.33-3.51 3.4-3.62.11-.19.1-.43-.02-.61l-1.44-2.07c.1-.1.23-.18.35-.24 1.86-.86 6.24-2.86 14.06-2.86h.11c6.67 0 11.49 2.78 15 4.8l1.13.65.15.06c2.44.57 4.27 1.04 5.64 1.56h-.22c-.58 0-1.06.4-1.18.96-.12.56.17 1.12.72 1.36.58.25 1.19.43 1.82.53l2.38.35c.17.62.24 1.35.24 2.21 0 .81-.14 1.79-.8 1.92-1.21.25-2.67.29-3.15.29zm-1.34 1.15c-.42 1.08-1.47 1.86-2.7 1.86s-2.28-.78-2.71-1.86c-.07-.19-.12-.38-.15-.58-.03-.15-.04-.31-.04-.47l.01-.11c.06-1.55 1.33-2.8 2.9-2.8s2.84 1.25 2.9 2.79l.01.11c0 .16-.01.31-.04.47-.05.21-.1.41-.18.59zm-26.88-.06c-.41 1.11-1.48 1.91-2.73 1.91-1.39 0-2.55-.98-2.83-2.29-.04-.19-.07-.38-.07-.58v-.04c0-.19.02-.36.05-.54.25-1.35 1.43-2.37 2.85-2.37 1.55 0 2.82 1.22 2.9 2.75v.14c0 .15-.01.29-.03.43-.03.23-.08.42-.14.59zm-8.6-11.48l.85 1.22c-.34.54-.94 1.38-1.61 2.03l.76-3.25zm39.96 4.72l-1.62-.24c-.53-.08-1.04-.23-1.55-.45l-.03-.07.06-.04c.94.01 1.88.01 2.4.01h.01l.08.08.25.23.08.08c.12.13.22.26.32.4zm-7.19 3.79c-1.06 0-1.92.83-1.97 1.88l-.01.1c0 .16.03.32.06.47.05.21.13.4.24.58.35.56.97.93 1.67.93.71 0 1.32-.38 1.67-.93.11-.17.19-.37.24-.58.04-.15.06-.31.06-.47l-.01-.1c-.03-1.05-.89-1.88-1.95-1.88zm.84 1.98c0 .17-.06.34-.15.47-.15.22-.4.36-.68.36s-.53-.14-.68-.36c-.1-.13-.15-.29-.15-.47l.01-.1c.05-.41.4-.73.82-.73s.77.32.82.73l.01.1zm-27.74-1.98c-.93 0-1.7.64-1.92 1.51-.03.15-.06.31-.06.47l.01.1c.01.21.05.4.12.58.28.75 1 1.29 1.85 1.29.75 0 1.4-.43 1.74-1.05.09-.17.17-.36.2-.56.02-.12.03-.24.03-.37l-.02-.21c-.09-.98-.92-1.76-1.95-1.76zm.83 1.98c0 .1-.02.2-.06.29-.11.29-.37.5-.68.53l-.09.01-.2-.03c-.3-.08-.53-.31-.6-.61l-.02-.19c0-.14.04-.27.1-.39.14-.26.42-.44.73-.44.35 0 .66.23.77.54.03.09.05.19.05.29zm8.4-7.85c.11-.12.16-.29.14-.46l-.68-5.22c-.04-.29-.3-.51-.58-.5-3.39.1-6.02.46-8.83 1.22-.18.05-.33.18-.39.36s-.03.38.07.52l1.54 2.19c.46.65 1.15 1.11 1.92 1.28 1.43.3 4.16.81 6.37.81.17-.01.33-.08.44-.2zm-6.57-1.74c-.5-.11-.93-.4-1.23-.81l-1.06-1.51c1.72-.42 3.94-.82 7.24-.96l.52 4.04c-1.97-.07-4.22-.5-5.47-.76zm18.22 6.5h-15c-.32 0-.58.26-.58.57s.25.58.58.58h15c.32 0 .58-.26.58-.58-.01-.32-.27-.57-.58-.57zm2.41-6.49l-.19-.15c-2.66-1.6-7.89-4.29-13.04-4.29-.17 0-.33.07-.43.19-.11.12-.16.29-.14.46l.68 5.22c.03.28.28.5.57.5h10.26v.62c0 .32.26.57.58.57h.76c.94 0 1.71-.76 1.71-1.71-.01-.58-.3-1.09-.76-1.41zm-.95 1.97h-.19v-1.11h.19c.24 0 .44.16.52.38l.03.18c0 .22-.14.42-.33.51l-.22.04zm-1.34-1.99v.79h-9.76l-.53-4.05c3.84.18 7.68 1.85 10.29 3.26z"/></svg>