<svg xmlns="http://www.w3.org/2000/svg" viewBox="0 0 71 142" enable-background="new 0 0 71 142"><path fill="#E6D1B8" d="M15.41 71c0-8.5 6.67-15.47 15.06-15.96.75-.43 1.52-.81 2.33-1.13-.47-.04-.93-.06-1.41-.06-9.45 0-17.14 7.69-17.14 17.14s7.69 17.15 17.15 17.15c.48 0 .94-.03 1.41-.06-.81-.33-1.58-.7-2.33-1.13-8.4-.48-15.07-7.45-15.07-15.95zm24.19-17.15c-.47 0-.94.02-1.4.06-.46.04-.92.09-1.37.17-.45.07-.9.17-1.33.27-.81.2-1.58.45-2.34.76-.4.17-.8.35-1.19.54-.39.19-.77.4-1.14.62-5.01 3-8.37 8.47-8.37 14.72 0 6.24 3.36 11.72 8.36 14.72.37.22.75.43 1.14.62.39.19.79.38 1.19.54.76.31 1.54.56 2.34.76.44.11.88.2 1.33.27.45.08.9.12 1.37.17.47.04.93.06 1.4.06 9.46 0 17.15-7.69 17.15-17.15.01-9.43-7.68-17.12-17.14-17.13zm.93 33.11c-.31.02-.62.03-.93.03l-.42-.01c-.46-.01-.9-.04-1.35-.09-.8-.09-1.58-.24-2.34-.44-.4-.11-.8-.23-1.19-.37-.39-.13-.77-.29-1.15-.46-5.62-2.47-9.55-8.1-9.55-14.62 0-6.53 3.93-12.15 9.55-14.62.38-.17.76-.32 1.15-.46.39-.13.78-.26 1.19-.37.76-.2 1.54-.35 2.34-.44.44-.05.89-.07 1.35-.09l.42-.01c.31 0 .62.01.92.03 8.4.49 15.07 7.46 15.07 15.96s-6.67 15.47-15.06 15.96z"/><path fill="#EFE8DF" d="M21.21 71c0-5.81 2.71-10.99 6.93-14.37-6.57 1.49-11.48 7.37-11.48 14.37 0 7.01 4.92 12.88 11.48 14.37-4.22-3.38-6.93-8.56-6.93-14.37zm21.65-14.37c-.44-.1-.9-.18-1.35-.24-.44-.06-.88-.1-1.33-.11l-.57-.01c-.6 0-1.19.04-1.77.11-.4.05-.79.11-1.19.19s-.77.18-1.15.29c-6.14 1.78-10.63 7.44-10.63 14.14s4.49 12.36 10.63 14.15c.38.11.76.21 1.15.29.39.08.78.14 1.19.19.58.07 1.17.11 1.77.11l.57-.01c.45-.01.9-.06 1.33-.12.46-.06.91-.14 1.35-.24 6.56-1.49 11.48-7.36 11.48-14.37 0-7.01-4.92-12.88-11.48-14.37zm6.86 16.31l-.03.03c-.12.1-.26.16-.4.16-.08 0-.16-.01-.24-.05-.08-.03-.15-.07-.21-.13l-1.28-1.28v6.4c0 .35-.28.62-.62.62h-14.44c-.35 0-.62-.28-.62-.62v-6.4l-1.28 1.28c-.25.24-.64.24-.89 0-.25-.25-.25-.64 0-.89l9.56-9.58c.24-.24.65-.24.88 0l2.45 2.46v-.64c0-.35.28-.63.62-.63h1.81c.35 0 .62.28.62.63v3.7l4.06 4.06.03.05c.22.25.21.61-.02.83zm-5.3-8.02h-.56v1.26l.56.53v-1.79zm-4.7-1.11l-6.59 6.61v7.02h4.49v-5.67c0-.35.28-.62.62-.62h2.97c.35 0 .62.28.62.62v5.67h4.49v-7.02l-6.6-6.61zm-.86 8.57h1.72v5.05h-1.72v-5.05z"/><path fill="#404040" d="M39.6 52.6c-1.41 0-2.78.17-4.1.47-1.32-.3-2.69-.47-4.1-.47-10.15 0-18.4 8.25-18.4 18.4s8.25 18.4 18.4 18.4c1.41 0 2.78-.17 4.1-.47 1.32.3 2.69.47 4.1.47 10.15 0 18.4-8.25 18.4-18.4s-8.25-18.4-18.4-18.4zm0 35.55c-.47 0-.94-.03-1.4-.06-.46-.04-.92-.09-1.37-.17s-.9-.17-1.33-.28c-.81-.2-1.58-.46-2.34-.76-.4-.16-.8-.35-1.19-.54-.39-.2-.77-.4-1.14-.62-5-3-8.36-8.48-8.36-14.72 0-6.25 3.36-11.73 8.36-14.72.37-.22.75-.43 1.14-.62.39-.19.79-.38 1.19-.54.76-.31 1.53-.56 2.34-.76.44-.11.88-.2 1.33-.28.45-.08.9-.12 1.37-.17.47-.04.93-.06 1.4-.06 9.45 0 17.15 7.69 17.15 17.14s-7.69 17.15-17.15 17.16zm-25.35-17.15c0-9.46 7.69-17.15 17.15-17.15.48 0 .94.02 1.4.06-.81.32-1.58.7-2.33 1.13-8.39.48-15.06 7.46-15.06 15.96s6.68 15.47 15.06 15.96c.75.43 1.52.81 2.33 1.13-.47.04-.93.06-1.41.06-9.45 0-17.14-7.69-17.14-17.15zm13.89-14.37c-4.22 3.38-6.93 8.56-6.93 14.37s2.71 10.99 6.93 14.37c-6.57-1.49-11.48-7.37-11.48-14.37s4.92-12.88 11.48-14.37zm12.39-1.59c-.31-.02-.62-.03-.92-.03l-.42.01c-.46.01-.9.04-1.35.09-.8.09-1.58.24-2.34.44-.4.1-.8.23-1.19.37-.39.14-.77.29-1.15.46-5.61 2.48-9.55 8.1-9.55 14.62s3.93 12.15 9.55 14.62c.38.17.76.32 1.15.46.39.13.78.26 1.19.37.76.2 1.54.35 2.34.44.44.05.89.07 1.35.09l.42.01c.31 0 .62-.01.93-.03 8.38-.49 15.05-7.46 15.05-15.96s-6.67-15.47-15.06-15.96zm2.33 30.33c-.44.1-.9.18-1.35.24-.44.06-.88.1-1.33.12l-.57.01c-.6 0-1.19-.04-1.77-.11-.4-.05-.79-.11-1.19-.19-.39-.08-.77-.18-1.15-.29-6.14-1.78-10.63-7.45-10.63-14.15s4.49-12.36 10.63-14.15c.38-.11.76-.21 1.15-.29.39-.08.78-.14 1.19-.19.58-.07 1.17-.11 1.77-.11l.57.01c.45.01.9.06 1.33.12.46.06.91.14 1.35.24 6.56 1.49 11.48 7.36 11.48 14.37 0 7.01-4.92 12.88-11.48 14.37zm6.9-13.26l-.03-.05-4.06-4.06v-3.71c0-.35-.28-.62-.62-.62h-1.81c-.35 0-.62.28-.62.62v.64l-2.45-2.45c-.24-.24-.65-.24-.88 0l-9.56 9.58c-.25.25-.25.64 0 .89s.64.25.89 0l1.28-1.28v6.4c0 .35.28.62.62.62h14.43c.35 0 .62-.28.62-.62v-6.4l1.28 1.28c.06.06.13.11.21.14l.24.05c.15 0 .28-.06.4-.16l.03-.03c.22-.24.23-.6.03-.84zm-5.9-7.19h.56v1.79l-.56-.53v-1.26zm-5 12.51v-5.05h1.72v5.05h-1.72zm2.34-6.29h-2.97c-.35 0-.62.28-.62.62v5.67h-4.49v-7.02l6.59-6.6 6.59 6.6v7.02h-4.49v-5.67c.02-.34-.27-.62-.61-.62z"/></svg>