<svg xmlns="http://www.w3.org/2000/svg" viewBox="0 0 71 142" enable-background="new 0 0 71 142"><path fill="#AC9D8C" d="M31.84 81.62h-5.83v10.63h12.57v-10.63h-6.74zm-3.5-3.24h-12.05l1.98 1.99h12.05l-1.98-1.99zm-9.7 3.24h6.11v10.63h-6.11v-10.63zm35.58-16.81v1.09h1.33v-1.96c-.33.42-.79.73-1.33.87zm-1.37-5.52c.21.18.39.4.56.62l.19-.02c.79 0 1.5.38 1.96.96v-3.35c-.71.85-1.65 1.48-2.71 1.79z"/><path fill="#AFA191" d="M47.04 57.5v1.89c.34-.33.74-.61 1.18-.82-.44-.29-.84-.65-1.18-1.07z"/><path fill="#AC9D8C" d="M51.8 92.25c.65 0 1.17-.53 1.17-1.18v-16.2h-2.35v16.21c.01.65.53 1.17 1.18 1.17zm-4.77-1.17c0 .65.53 1.18 1.17 1.18.65 0 1.17-.53 1.17-1.18v-16.21h-2.35l.01 16.21zm-4.24-31.66c-1.63 0-2.97 1.33-2.97 2.97v5.47c1.08.28 1.88 1.25 1.88 2.42s-.8 2.14-1.88 2.42v.92h5.94v-11.22c0-1.64-1.33-2.97-2.97-2.98z"/><path fill="#B0DFDB" d="M51.1 62.4c0-.84.42-1.58 1.06-2.04-.54-.57-1.31-.93-2.15-.93-1.56 0-2.83 1.2-2.95 2.73l-.01.24v11.22h5.94v-8.81c-1.09-.28-1.89-1.25-1.89-2.41z"/><path fill="#E6D1B8" d="M47.53 52.02c-.1.19-.19.38-.26.58-.09.26-.15.52-.19.79-.03.21-.04.42-.04.62s.01.42.04.62c.06.42.19.83.38 1.22.49 1.02 1.35 1.8 2.43 2.17.46.16.93.24 1.41.24 1.81 0 3.42-1.14 4.02-2.85.06-.17.1-.34.14-.51 0 0-7.92-2.88-7.93-2.88zm-1.77 1.63c-.55.18-1.12.27-1.7.27-1.4 0-2.72-.54-3.71-1.44-.54.49-1.17.88-1.89 1.13-.38.13-.78.22-1.19.27-.01.51.06 1.03.24 1.54.6 1.7 2.22 2.85 4.02 2.85.48 0 .96-.08 1.41-.24 1.08-.38 1.94-1.15 2.43-2.18.32-.69.46-1.45.39-2.2z"/><path fill="#B0DFDB" d="M39.82 74.87v16.21c0 .65.53 1.18 1.17 1.18s1.17-.53 1.17-1.18v-16.21h-2.34zm3.6 16.21c0 .65.53 1.18 1.17 1.18s1.17-.53 1.17-1.18v-16.21h-2.35l.01 16.21z"/><path fill="#AC9D8C" d="M38.92 50.64l-.15.12-.18.16-.15.15-.15.16-.15.18-.12.17-.13.19-.11.2-.1.2-.16.38-.01.03h.01c.18-.04.36-.08.53-.15.56-.19 1.06-.51 1.48-.9-.21-.29-.38-.61-.53-.95l-.08.06zm6.44 1.55l-.13-.27-.19-.3-.17-.24-.24-.26-.19-.21c-.08-.08-.18-.16-.28-.23l-.22-.18-.31-.19-.24-.13-.35-.15-.24-.1c-.13-.05-.28-.07-.42-.1l-.21-.05-.22-.02h-.04c-.13-.02-.26-.03-.4-.03l-.19.01c-.23.01-.46.04-.68.08l-.03.01c-.17.04-.33.08-.5.14h-.01c.07.17.15.33.24.49.12.21.24.4.38.58.13.17.28.33.44.47.77.72 1.8 1.14 2.9 1.14.48 0 .95-.08 1.4-.24h.01l-.11-.22z"/><path fill="#E6D1B8" d="M54.06 61.23c-.14-.06-.29-.09-.46-.09l-.22.02c-.22.04-.4.13-.57.26-.28.23-.47.58-.47.97 0 .47.26.86.63 1.08.19.1.4.17.62.17s.44-.06.62-.17c.38-.22.63-.62.63-1.08.01-.53-.32-.98-.78-1.16zm-14.24 7.96c-.19-.11-.4-.17-.62-.17s-.44.06-.62.17c-.38.22-.63.62-.63 1.08 0 .47.26.86.63 1.08.19.11.4.17.62.17s.44-.06.62-.17c.38-.22.63-.62.63-1.08s-.26-.85-.63-1.08z"/><path fill="#AFA191" d="M48.9 50.5c.15-.1.29-.19.46-.27-.16.08-.31.17-.46.27zm1.82-.71c.18-.02.36-.04.54-.04l-.54.04zm-1.23.38l.42-.18c-.15.05-.29.11-.42.18zm-1.05.7l.32-.27-.32.27zm1.59-.93c.17-.06.35-.1.53-.12-.18.03-.35.07-.53.12z"/><path fill="#AC9D8C" d="M55.53 53.56l-.03-.17-.05-.31-.02-.1c-.04-.16-.09-.32-.15-.47l-.08-.19-.13-.28-.1-.19c-.08-.13-.16-.26-.26-.38l-.13-.16-.22-.24-.15-.15c-.12-.11-.24-.22-.38-.32l-.1-.06c-.12-.09-.24-.16-.38-.23l-.13-.07c-.17-.08-.33-.16-.51-.22-.46-.16-.93-.24-1.4-.24h-.03c-.19 0-.37.02-.54.04l-.15.03c-.18.03-.36.07-.53.12l-.15.03-.42.17-.13.06c-.15.08-.31.17-.46.27l-.15.1c-.11.08-.22.17-.32.27l-.12.1 7.22 2.62v-.03z"/><path fill="#404040" d="M56.81 54c0-.19-.01-.38-.03-.57l-.03-.28-.02-.1-.09-.42-.02-.06c-.04-.15-.08-.3-.14-.44l-.01-.04-.19-.46c-.31-.64-.73-1.21-1.25-1.69l-.03-.03-.35-.29-.1-.08-.31-.21-.13-.08-.33-.17-.15-.07-.46-.19-.03-.01c-.59-.2-1.21-.31-1.83-.31-.21 0-.42.01-.62.04l-.1.01c-.21.02-.4.06-.6.12h-.03c-.19.05-.38.11-.57.18l-.08.03c-.19.08-.38.16-.55.25l-.06.04c-.17.09-.35.2-.51.31l-.01.01c-.17.12-.34.26-.5.4l-.04.03c-.15.14-.28.28-.42.43l-.1.11c-.1.12-.21.25-.3.39l-.05.06-.01.02c-.12.18-.24.36-.33.55-.93-1.81-2.81-2.99-4.89-2.99-.47 0-.94.06-1.4.18l-.43.13-.4.17-.22.1h-.01l-.01.01-.16.08-.44.26-.15.1c-.17.12-.35.26-.5.4l-.12.12c-.12.11-.23.23-.33.35l-.17.21-.26.36-.12.18c-.1.18-.2.35-.28.54l-.08.21-.17.45-.06.17c-.06.22-.11.44-.15.67l-.01.02v.02c-.12.85-.05 1.74.25 2.6.6 1.69 1.97 2.96 3.63 3.45-.85.77-1.38 1.88-1.38 3.11v5.47c-1.08.28-1.88 1.25-1.88 2.42s.8 2.14 1.88 2.42v7.68h-6.49l-3.04-3.06c-.11-.12-.27-.18-.44-.18h-13.81c-.26 0-.48.15-.57.38s-.05.5.14.68l3.05 3.06v11.62c0 .35.28.62.62.62h21.17c.24 0 .46-.14.56-.35.37.22.78.35 1.24.35.72 0 1.35-.32 1.79-.81.44.5 1.08.81 1.79.81.72 0 1.37-.32 1.81-.83.44.51 1.08.83 1.81.83.72 0 1.35-.32 1.79-.81.44.5 1.08.81 1.79.81 1.33 0 2.42-1.08 2.42-2.42v-23.93h1.96c.35 0 .62-.28.62-.62l.03-12.52zm-3.84 37.08c0 .65-.53 1.18-1.17 1.18-.65 0-1.17-.53-1.17-1.18v-16.21h2.35s0 16.21-.01 16.21zm-3.59 0c0 .65-.53 1.18-1.17 1.18-.65 0-1.17-.53-1.17-1.18v-16.21h2.35l-.01 16.21zm-5.97 0v-16.21h2.35v16.21c0 .65-.53 1.18-1.17 1.18s-1.17-.53-1.18-1.18zm-1.25 0c0 .65-.53 1.18-1.17 1.18s-1.17-.53-1.17-1.18v-16.21h2.35l-.01 16.21zm-4.22-20.8c0-.47.26-.86.63-1.08.19-.11.4-.17.62-.17s.44.06.62.17c.38.22.63.62.63 1.08 0 .47-.26.86-.63 1.08-.19.11-.4.17-.62.17s-.44-.06-.62-.17c-.37-.22-.63-.62-.63-1.08zm-.68-16.39c.41-.04.81-.14 1.19-.27.72-.25 1.35-.64 1.89-1.13.99.91 2.31 1.44 3.71 1.44.58 0 1.15-.09 1.7-.27.06.75-.07 1.51-.4 2.2-.49 1.03-1.35 1.79-2.43 2.17-.46.16-.93.24-1.41.24-1.81 0-3.42-1.15-4.02-2.85-.17-.51-.24-1.03-.23-1.53zm.63-2.11l.13-.19.12-.17.15-.17.15-.17.15-.15.18-.16.15-.12.08-.06c.15.34.33.65.53.95-.42.39-.92.7-1.48.9-.17.06-.35.11-.53.15h-.01l.01-.03.16-.38.1-.2.11-.2zm4.49-1.93l.42.1.24.09.35.15.24.14.31.19.22.17.28.23.19.21.24.26.17.24.19.3.13.27.12.24h-.01c-.46.16-.93.24-1.4.24-1.1 0-2.12-.42-2.9-1.14-.15-.15-.3-.3-.44-.47-.14-.18-.27-.37-.38-.58-.09-.16-.17-.32-.24-.49h.01c.17-.06.33-.1.5-.14l.03-.01c.22-.05.46-.08.68-.09l.19-.01.44.03.22.02.2.05zm7.65.1c.17-.06.35-.1.53-.12l.15-.03c.18-.02.37-.04.54-.04h.03c.47 0 .95.08 1.4.24.17.06.35.14.51.22l.13.07.38.23.1.06.38.32.15.15.22.24.13.16.26.38.1.19.13.28.08.18c.06.16.11.32.15.48l.02.1.05.31.03.18.01.04-.6-.22-6.61-2.4.1-.1.32-.27.15-.1c.15-.1.29-.19.46-.27l.13-.06.42-.18.15-.04zm2.77 11.48c.16-.14.35-.22.57-.26l.22-.02c.16 0 .31.03.46.09.47.18.79.64.79 1.17 0 .47-.26.86-.63 1.08-.19.1-.4.17-.62.17s-.44-.06-.62-.17c-.38-.22-.63-.62-.63-1.08 0-.41.18-.75.46-.98zm-1.52-8.04l1.72.62 1.72.62.74.27c-.03.17-.08.34-.14.51-.6 1.7-2.22 2.85-4.02 2.85-.48 0-.96-.08-1.41-.24-1.08-.38-1.94-1.15-2.43-2.17-.19-.39-.31-.81-.38-1.22-.03-.2-.04-.42-.04-.62s.01-.42.04-.62c.04-.26.1-.52.19-.78.07-.2.16-.4.26-.58 0-.01 3.75 1.36 3.75 1.36zm-5.49 6.05c-.35-.35-.76-.65-1.22-.86.46-.31.87-.68 1.22-1.11v1.97zm1.25-1.94c.34.42.74.78 1.18 1.08-.44.2-.84.48-1.18.81v-1.89zm-4.25 1.93c1.64 0 2.97 1.33 2.97 2.97v11.22h-5.94v-.92c1.08-.28 1.88-1.25 1.88-2.42s-.8-2.14-1.88-2.42v-5.46c0-1.64 1.33-2.97 2.97-2.97zm10.18 7.72v6.47h-5.94v-11.22l.01-.24c.12-1.53 1.4-2.73 2.95-2.73.85 0 1.61.36 2.15.93-.64.45-1.06 1.19-1.06 2.04 0 1.17.8 2.13 1.88 2.41l.01 2.34zm1.25-2.34c.53-.14 1-.45 1.33-.88v1.96h-1.33v-1.08zm1.33-3.96c-.46-.58-1.16-.96-1.96-.96l-.19.02c-.17-.23-.35-.43-.56-.62 1.06-.32 2.01-.94 2.71-1.79v3.35zm-16.98 31.4h-12.57v-10.63h12.56l.01 10.63zm-10.23-13.86l1.98 1.99h-12.05l-1.98-1.99h12.05zm-9.7 3.23h6.11v10.63h-6.11v-10.63z"/></svg>