<svg xmlns="http://www.w3.org/2000/svg" viewBox="0 0 71 142" enable-background="new 0 0 71 142"><path fill="#666" d="M55.88 57.56h-40.76c-.48 0-.88.4-.88.88v25.13c0 .48.4.88.88.88h40.74c.48 0 .88-.4.88-.88v-25.14c.01-.47-.39-.87-.86-.87zm-38.55 9.69c0-.89.73-1.62 1.62-1.62h4.66c.9 0 1.62.73 1.62 1.62v3.9c0 .9-.73 1.62-1.62 1.62h-4.66c-.9 0-1.62-.73-1.62-1.62v-3.9zm5.47 14h-4.77c-.34 0-.62-.28-.62-.62s.28-.63.62-.63h4.77c.34 0 .62.28.62.62s-.27.63-.62.63zm1.85-3.84h-6.61c-.34 0-.62-.28-.62-.62s.28-.62.62-.62h6.61c.34 0 .62.28.62.62s-.27.62-.62.62zm9.59 3.84h-8.46c-.34 0-.62-.28-.62-.62s.28-.63.62-.63h8.46c.35 0 .62.28.62.62s-.27.63-.62.63zm0-3.84h-6.62c-.34 0-.62-.28-.62-.62s.28-.62.62-.62h6.61c.35 0 .62.28.62.62.02.34-.27.62-.61.62zm1.65-14.96h-17.94c-.34 0-.62-.28-.62-.62s.28-.62.62-.62h17.94c.35 0 .62.28.62.62s-.27.62-.62.62zm7.72 14.96h-6.62c-.35 0-.62-.28-.62-.62s.28-.62.62-.62h6.61c.35 0 .62.28.62.62.02.34-.26.62-.61.62zm9.37 0h-6.62c-.35 0-.62-.28-.62-.62s.28-.62.62-.62h6.62c.35 0 .62.28.62.62.01.34-.27.62-.62.62z"/><path fill="#E6D1B8" d="M23.6 66.88h-4.66c-.2 0-.38.17-.38.38v3.9c0 .21.17.38.38.38h4.66c.2 0 .38-.17.38-.38v-3.9c0-.22-.17-.38-.38-.38z"/><path fill="#404040" d="M55.88 56.31h-40.76c-1.17 0-2.12.96-2.12 2.12v25.13c0 1.17.95 2.12 2.12 2.12h40.74c1.17 0 2.12-.96 2.12-2.12v-25.13c.02-1.17-.94-2.12-2.1-2.12zm.87 27.26c0 .48-.4.88-.88.88h-40.75c-.48 0-.88-.4-.88-.88v-25.14c0-.48.4-.88.88-.88h40.74c.48 0 .88.4.88.88l.01 25.14zm-20.86-22.37h-17.94c-.34 0-.62.28-.62.62s.28.62.62.62h17.94c.35 0 .62-.28.62-.62s-.27-.62-.62-.62zm-13.09 18.81h-4.77c-.34 0-.62.28-.62.62s.28.62.62.62h4.77c.34 0 .62-.28.62-.62s-.28-.62-.62-.62zm1.85-3.84h-6.61c-.34 0-.62.28-.62.62s.28.62.62.62h6.61c.34 0 .62-.28.62-.62s-.28-.62-.62-.62zm28.33 0h-6.62c-.35 0-.62.28-.62.62s.28.62.62.62h6.61c.35 0 .62-.28.62-.62.01-.35-.27-.62-.61-.62zm-9.37 0h-6.62c-.35 0-.62.28-.62.62s.28.62.62.62h6.62c.35 0 .62-.28.62-.62.01-.35-.27-.62-.62-.62zm-9.37 0h-6.62c-.34 0-.62.28-.62.62s.28.62.62.62h6.61c.35 0 .62-.28.62-.62.02-.35-.27-.62-.61-.62zm0 3.84h-8.46c-.34 0-.62.28-.62.62s.28.62.62.62h8.46c.35 0 .62-.28.62-.62s-.27-.62-.62-.62zm-15.29-7.23h4.66c.9 0 1.62-.73 1.62-1.62v-3.9c0-.89-.73-1.62-1.62-1.62h-4.66c-.9 0-1.62.73-1.62 1.62v3.9c0 .89.73 1.62 1.62 1.62zm-.37-5.53c0-.2.17-.38.38-.38h4.66c.2 0 .38.17.38.38v3.9c0 .21-.17.38-.38.38h-4.66c-.2 0-.38-.17-.38-.38v-3.9z"/></svg>