<svg xmlns="http://www.w3.org/2000/svg" viewBox="0 0 71 142" enable-background="new 0 0 71 142"><path fill="#DA291C" d="M28.17 70.47h4.18v-5.35c0-.34.28-.62.62-.62h2.81c.35 0 .62.28.62.62v5.35h4.18v-6.55l-6.24-6.25-6.18 6.2c.01.01.01 6.6.01 6.6z"/><path fill="#fff" d="M44.69 56.47c-.28-.01-.52-.19-.6-.47-.99-3.68-4.33-6.26-8.15-6.26-2.25 0-4.36.88-5.96 2.47-.17.17-.43.23-.66.15-.92-.34-1.9-.51-2.9-.51-4.65 0-8.43 3.78-8.43 8.43 0 1.48.39 2.94 1.13 4.21.11.2.11.43 0 .62-.73 1.29-1.12 2.74-1.12 4.22 0 4.65 3.78 8.44 8.44 8.44 1.47 0 2.92-.39 4.19-1.12.1-.06.2-.08.31-.08.19 0 .38.09.5.25 1.58 2.15 4.12 3.44 6.79 3.44 4.02 0 7.5-2.86 8.28-6.8.04-.23.22-.42.44-.48 3.56-1.05 6.05-4.38 6.05-8.09 0-4.57-3.73-8.35-8.31-8.42zm-.83 9.85c-.24.25-.64.25-.88 0l-1.14-1.14v5.92c0 .35-.28.62-.62.62h-13.68c-.34 0-.62-.28-.62-.62v-6.04l-1.26 1.26c-.12.12-.28.18-.44.18s-.32-.06-.44-.18c-.25-.25-.25-.64 0-.89l9.1-9.12c.12-.13.31-.18.49-.17.17-.01.34.05.46.17l2.26 2.27v-.53c0-.34.28-.62.62-.62h1.72c.35 0 .62.28.62.62v3.51l1.61 1.61.1.15 2.1 2.11c.25.25.24.64 0 .89zm-15.33 15.48c-1.6 0-2.9 1.3-2.9 2.9 0 1.6 1.3 2.9 2.9 2.9s2.9-1.3 2.9-2.9c0-1.6-1.29-2.9-2.9-2.9zm-5.85 7.05c-.94 0-1.7.76-1.7 1.71s.76 1.71 1.7 1.71 1.7-.76 1.7-1.71-.76-1.71-1.7-1.71zm15.65-29.01l.47.47v-1.62h-.47v1.15zm-4.73 5.91h1.56v4.72h-1.56v-4.72z"/><path fill="#404040" d="M45.17 55.24c-1.27-3.99-5-6.74-9.23-6.74-2.45 0-4.76.9-6.56 2.56-.95-.31-1.94-.46-2.95-.46-5.34 0-9.68 4.35-9.68 9.68 0 1.58.39 3.14 1.12 4.53-.74 1.39-1.12 2.95-1.12 4.53 0 5.34 4.34 9.69 9.69 9.69 1.5 0 2.99-.36 4.33-1.03 1.83 2.21 4.58 3.51 7.47 3.51 4.49 0 8.4-3.11 9.42-7.44 3.9-1.31 6.58-5.03 6.58-9.17 0-5.1-4.02-9.34-9.07-9.66zm1.34 18.23c-.78 3.94-4.26 6.8-8.28 6.8-2.67 0-5.21-1.29-6.79-3.44-.12-.17-.31-.25-.5-.25-.1 0-.22.02-.31.08-1.27.73-2.72 1.12-4.19 1.12-4.65 0-8.44-3.79-8.44-8.43 0-1.48.39-2.94 1.13-4.22.11-.19.11-.43 0-.62-.74-1.29-1.13-2.74-1.13-4.22 0-4.65 3.78-8.44 8.44-8.44 1 0 1.97.17 2.9.51.23.08.49.02.66-.15 1.59-1.59 3.71-2.46 5.96-2.46 3.81 0 7.17 2.57 8.15 6.25.07.27.31.46.6.47 4.57.07 8.29 3.86 8.29 8.43 0 3.71-2.49 7.04-6.04 8.09-.23.06-.4.25-.45.48zm-17.98 7.08c-2.28 0-4.15 1.86-4.15 4.15s1.86 4.15 4.15 4.15 4.15-1.86 4.15-4.15c.01-2.29-1.85-4.15-4.15-4.15zm0 7.05c-1.6 0-2.9-1.3-2.9-2.9s1.3-2.9 2.9-2.9 2.9 1.3 2.9 2.9-1.29 2.9-2.9 2.9zm-5.85 0c-1.63 0-2.95 1.32-2.95 2.95s1.33 2.95 2.95 2.95 2.95-1.33 2.95-2.95-1.32-2.95-2.95-2.95zm0 4.65c-.94 0-1.7-.76-1.7-1.71s.76-1.71 1.7-1.71 1.7.76 1.7 1.71-.76 1.71-1.7 1.71zm19.08-28.92l-.1-.16-1.61-1.61v-3.5c0-.35-.28-.62-.62-.62h-1.73c-.35 0-.62.28-.62.62v.53l-2.26-2.27c-.12-.12-.29-.18-.46-.18-.17-.01-.35.04-.49.17l-9.1 9.12c-.25.25-.25.64 0 .89.12.12.28.19.44.19s.32-.06.44-.19l1.26-1.26v6.04c0 .35.28.62.62.62h13.67c.35 0 .62-.28.62-.62v-5.93l1.14 1.14c.24.25.64.25.88 0s.24-.64 0-.89l-2.08-2.09zm-1.17 7.15h-4.18v-5.35c0-.35-.28-.62-.62-.62h-2.81c-.35 0-.62.28-.62.62v5.35h-4.18v-6.61l6.19-6.2 6.24 6.25-.02 6.56zm-5.44 0h-1.56v-4.72h1.56v4.72zm3.18-11.79h.47v1.62l-.47-.47v-1.15z"/></svg>