<svg xmlns="http://www.w3.org/2000/svg" viewBox="0 0 71 142" enable-background="new 0 0 71 142"><path fill="#fff" d="M51.76 73.47l-4.42-9.06c-1.64-3.02-4.79-4.89-8.24-4.89h-21.35c-1.93 0-3.51 1.57-3.51 3.51v11.69c0 1.9 1.47 3.44 3.32 3.53v-14.03c0-.93.76-1.69 1.69-1.69h4.77c.93 0 1.69.76 1.69 1.69v14.03h1.74c.36-2.25 2.31-3.97 4.67-3.97 2.35 0 4.3 1.72 4.67 3.97h11.71c1.94 0 3.51-1.57 3.51-3.5-.01-.44-.09-.87-.25-1.28zm-7.84-2.59h-12.62c-1.16 0-2.1-.94-2.1-2.09v-4.17c0-1.15.94-2.09 2.09-2.09h9.28c1.54 0 2.95.83 3.68 2.19l.08.14 1.51 3.09.03.06c.1.25.15.51.15.78-.01 1.15-.94 2.09-2.1 2.09zm-19.89-7.1h-4.77c-.25 0-.44.2-.44.44v14.03h5.66v-14.02c0-.25-.2-.45-.45-.45z"/><path fill="#765" d="M35.6 78.88c-.01-.22-.03-.43-.08-.62-.35-1.56-1.74-2.72-3.4-2.72s-3.05 1.16-3.4 2.72c-.05.2-.07.41-.08.62v.13c0 .17.01.33.04.5.24 1.68 1.69 2.98 3.44 2.98s3.19-1.3 3.44-2.98c.03-.16.04-.33.04-.5v-.13zm-3.47 2.61c-1.2 0-2.2-.86-2.43-1.99-.03-.16-.05-.33-.05-.5l.01-.13c.01-.22.05-.43.11-.62.32-1 1.25-1.73 2.35-1.73s2.03.73 2.35 1.73c.06.2.1.4.12.62l.01.13c0 .17-.02.33-.05.5-.21 1.14-1.22 1.99-2.42 1.99z"/><path fill="#fff" d="M33.35 78.88c-.03-.24-.12-.45-.25-.62-.22-.29-.58-.48-.97-.48-.4 0-.74.19-.97.48-.14.17-.23.39-.25.62l-.01.13c0 .17.04.35.1.5.19.43.62.74 1.12.74.51 0 .94-.31 1.12-.74.06-.15.1-.32.1-.5l.01-.13z"/><path fill="#808080" d="M43.15 65.3c-.51-.94-1.49-1.52-2.56-1.52h-9.3c-.47 0-.84.38-.84.84v4.15c0 .47.38.85.84.85h12.62c.47 0 .84-.38.84-.84 0-.1-.02-.2-.06-.29.01 0-1.54-3.19-1.54-3.19zm12.87 16.44c-.08-.15-.24-.25-.42-.25-.19 0-.33.11-.42.25-.04.07-.07.15-.07.24 0 .27.22.49.49.49s.49-.22.49-.49c0-.08-.03-.16-.07-.24z"/><path fill="#404040" d="M31.31 70.88h12.61c1.15 0 2.1-.94 2.1-2.09 0-.27-.05-.53-.15-.78l-.03-.06-1.51-3.09-.08-.14c-.73-1.35-2.14-2.18-3.68-2.18h-9.28c-1.16 0-2.09.94-2.09 2.09v4.17c0 1.14.94 2.08 2.11 2.08zm-.86-6.26c0-.46.38-.84.84-.84h9.29c1.08 0 2.06.58 2.56 1.52l1.56 3.19c.03.1.06.19.06.29 0 .46-.38.84-.84.84h-12.63c-.47 0-.84-.38-.84-.85v-4.15zm4.04 13.64c-.32-1-1.25-1.73-2.35-1.73s-2.03.73-2.35 1.73c-.07.2-.1.4-.11.62l-.01.13c0 .17.01.33.05.5.23 1.13 1.24 1.99 2.43 1.99 1.2 0 2.2-.86 2.44-1.99.03-.16.05-.33.05-.5l-.01-.13c-.04-.22-.08-.42-.14-.62zm-1.12.75c0 .17-.04.35-.1.5-.19.43-.62.74-1.12.74-.5 0-.93-.31-1.12-.74-.07-.15-.1-.32-.1-.5l.01-.13c.02-.24.11-.45.25-.62.23-.29.58-.48.97-.48.4 0 .74.19.97.48.14.17.22.39.25.62l-.01.13zm24.01-.76h-1.15v-.92h.77c.35 0 .62-.28.62-.62s-.28-.62-.62-.62h-2.88c-.35 0-.62.28-.62.62s.28.62.62.62h.85v.92h-3.28c.95-.87 1.55-2.12 1.55-3.5 0-.62-.12-1.21-.35-1.78l-.03-.07-4.24-8.71-.19-.38c-1.85-3.43-5.44-5.56-9.34-5.56h-21.34c-2.62 0-4.76 2.14-4.76 4.76v11.73c0 2.62 2.14 4.76 4.78 4.76h9.65c.25 2.38 2.26 4.23 4.7 4.23s4.46-1.85 4.7-4.23h11.66l.08-.01h6.4v.86c-.65.25-1.12.88-1.12 1.62 0 .96.78 1.74 1.74 1.74s1.74-.78 1.74-1.74c0-.74-.47-1.36-1.12-1.62v-.85h1.15c.35 0 .62-.28.62-.62s-.25-.63-.59-.63zm-21.77.76c0 .17-.01.34-.04.5-.24 1.68-1.69 2.98-3.44 2.98s-3.19-1.3-3.44-2.98c-.02-.16-.04-.33-.04-.5v-.13c.01-.22.03-.42.08-.62.34-1.56 1.74-2.72 3.39-2.72 1.66 0 3.04 1.17 3.4 2.72.04.2.07.41.08.62l.01.13zm-16.79-.76v-14.03c0-.25.2-.44.44-.44h4.77c.25 0 .44.2.44.44v14.03h-5.65zm5.21-15.72h-4.77c-.93 0-1.69.76-1.69 1.69v14.02c-1.85-.1-3.32-1.62-3.32-3.53v-11.69c0-1.93 1.57-3.51 3.5-3.51h21.34c3.44 0 6.6 1.88 8.24 4.89l4.42 9.06c.16.4.24.83.24 1.28 0 1.93-1.58 3.51-3.51 3.51h-11.68c-.37-2.25-2.31-3.97-4.67-3.97s-4.3 1.72-4.67 3.97h-1.74v-14.03c.01-.93-.75-1.69-1.69-1.69zm31.08 19.45c0-.09.03-.17.07-.24.08-.15.24-.26.42-.26s.33.11.42.26c.04.07.07.15.07.24 0 .27-.22.49-.49.49s-.49-.22-.49-.49z"/></svg>