<svg xmlns="http://www.w3.org/2000/svg" viewBox="0 0 71 142" enable-background="new 0 0 71 142"><path fill="#fff" d="M27.15 86.7c-2.85.5-5.5.7-7.6.8l-2.85 2.85c2.65.05 8.45-.2 12.9-2.8-.8-.25-1.6-.5-2.45-.85zm24.35-28.35l-.05-.05c-.1-.25-.2-.55-.2-.8 0-.35.1-.7.3-1l-1.4-1.25c-.15-.15-.25-.4-.2-.6.05-.25.25-.4.45-.45l2.75-.65c.05-.9-.25-1.75-.8-2.45-.6-.75-1.45-1.2-2.4-1.3h-.35c-4.2 0-7.65 3.45-7.65 7.7 0 1.75-.55 3.35-3.1 5.95l-22.85 22.85c.75.05 1.75.05 2.95 0 .3 0 .6 0 .9-.05l.95-.05c2.4-.15 5.35-.45 8.3-1.2 1.5-.35 2.95-.8 4.45-1.4l.9-.35.7-.3c3.55-1.65 6.8-4.1 8.85-7.75.2-.3.35-.65.5-1 .15-.3.5-.45.85-.3.3.15.45.5.3.85-2.1 4.35-5.95 7.7-11.25 9.9-.35.15-.7.3-1.05.4-.4.15-.8.3-1.15.4-.85.3-1.75.55-2.65.75.5.15.95.25 1.45.35l.8.15.8.1c.7.1 1.4.15 2.1.15 10.6 0 19.2-8.6 19.2-19.2.05-3.3-.8-6.55-2.4-9.4z"/><path fill="#DB2B1C" d="M53.5 54.75l-1.55.35.95.85h1.9l-1.3-1.2z"/><path fill="#404040" d="M56.75 56.15l-2.3-2.2v-.15c.25-2.65-1.7-5-4.35-5.25h-.45c-4.9 0-8.9 4-8.95 8.95 0 1.15-.2 2.55-2.7 5.05l-23.85 23.85c-.15.15-.25.45-.15.65.1.25.3.4.55.4.1 0 1.3.1 3.15.1l-2.9 2.9c-.15.15-.25.45-.15.65.1.25.3.4.55.4.05 0 .9.1 2.15.1 1.5 0 3.7-.1 6.05-.55 3.2-.6 5.85-1.65 7.9-3.15 1.15.2 2.25.3 3.45.3 1.25 0 2.5-.1 3.7-.35l.45 2.6c-1.2.35-2.25 1.05-3.05 2-.2.25-.2.65.1.9.1.1.25.15.4.15.2 0 .35-.1.5-.25 1-1.2 2.4-1.85 3.95-1.85s2.95.7 3.95 1.85c.2.25.6.3.9.1.25-.2.3-.6.1-.9-1.2-1.45-3-2.3-4.9-2.3-.2 0-.45 0-.65.05l-.45-2.65c8.9-2.2 15.55-10.25 15.55-19.85 0-3.5-.9-6.95-2.6-9.95-.05-.1-.05-.15-.05-.25l.1-.3h3.7c.25 0 .5-.15.6-.4-.05-.2-.1-.5-.3-.65zm-3.85-.2l-.95-.85 1.6-.35 1.25 1.2h-1.9zm-18.15 30.95c-.7 0-1.4-.05-2.1-.15l-.8-.1-.8-.15c-.5-.1-1-.2-1.45-.35.9-.2 1.8-.5 2.65-.75.4-.15.8-.25 1.15-.4l1.05-.4c5.3-2.15 9.15-5.5 11.25-9.9.15-.3 0-.7-.3-.85s-.7 0-.85.3l-.5 1c-2.05 3.65-5.25 6.1-8.85 7.8-.2.1-.45.2-.7.3-.3.15-.6.25-.9.35-1.45.55-2.95 1-4.45 1.4-3 .7-5.9 1.05-8.3 1.2l-.95.05c-.3 0-.6 0-.9.05-1.2.05-2.2 0-2.95 0l22.85-22.85c2.6-2.65 3.1-4.25 3.1-6 0-4.25 3.45-7.7 7.65-7.7h.35c.95.1 1.8.55 2.4 1.3.6.7.85 1.55.8 2.45l-2.75.65c-.25.05-.4.25-.45.45-.05.2 0 .45.2.6l1.4 1.25c-.2.3-.3.65-.3 1 0 .25.05.55.2.8l.05.05c1.6 2.85 2.45 6.1 2.45 9.35-.05 10.65-8.65 19.25-19.25 19.25zm-18.05 3.4l2.85-2.85c2.15-.05 4.8-.25 7.6-.8h.05c.8.3 1.6.55 2.4.8-4.4 2.7-10.25 2.9-12.9 2.85z"/></svg>