<svg xmlns="http://www.w3.org/2000/svg" viewBox="0 0 71 142" enable-background="new 0 0 71 142"><path fill="#E6D1B8" d="M45.26 83.15l1.13 3.92h1.84l-1.26-4.27c-.56.14-1.13.25-1.71.35zm-20.5-19.09l-3.43-.4 1.3 2.06c.7-.51 1.41-1.06 2.13-1.66zm29.53-.87c-2.02-2.16-5.29-3.59-9.22-4.13-.08.29-.2.57-.34.84.33.06.65.13.99.21.34.08.54.42.46.76-.07.29-.33.48-.61.48l-.15-.02c-.7-.17-1.39-.29-2.05-.37-.35-.04-.69-.08-1.04-.1l-.13-.01c-.38-.02-.76-.04-1.14-.04h-.25c-.34 0-.67.01-1 .03l-.34.02c-.3.02-.6.05-.89.09-1.21.15-1.95.36-1.96.37-.33.1-.68-.09-.78-.42-.1-.33.09-.68.42-.78.05-.01.41-.12 1.01-.23-.12-.22-.21-.45-.29-.68-2.82.46-5.4 1.34-7.4 2.53l1.84 1.28c.28.2.35.59.16.87-.2.28-.59.35-.87.16l-.28-.2-1.96-1.36-.54-.38-.53-.37-1.84-1.28.39 2.54v.03l.11.74.03.23.08.51.08.54.07.45.06.37.03.2v.11c-.01.3-.21.56-.52.6l-.1.01c-.1 0-.19-.03-.28-.07-.17-.09-.31-.25-.34-.46l-.01-.06-.11-.75c-.57.47-1.16.92-1.77 1.35l-.51.36-.52.35c-2.67 1.78-5.49 3.09-7.83 3.11l1.34 5.43c1.18.56 6.27 2.89 12.94 4.48l2.56.56.09.02.07.01.06.01.2.09.04.03.14.15.01.01.07.15.09.31.2.66 1.4 4.56h3.51l.91-3.86.15-.62.15-.62.35-1.5.05-.2c.08-.34.42-.54.75-.47.34.08.54.42.46.75l-.37 1.55c.59.05 1.17.09 1.75.09 1.06 0 2.07-.07 3.04-.19.1-.01.39-.05.77-.12l.52-.09.76-.16.08-.02.07-.02-.44-1.48c-.1-.33.09-.68.42-.78.26-.07.52.02.67.22l.11.2.44 1.49.18.6.18.61 1.36 4.61h4.17l1.81-9.6.31-1.65.63-3.33-.01.01c.15-.65.25-1.33.3-2.03.2-2.92-.62-5.37-2.42-7.29zm-12.66 8.42v3.25c0 .35-.28.62-.62.62s-.62-.28-.62-.62v-3.25h-3.25c-.35 0-.62-.28-.62-.62s.28-.62.62-.62h3.25v-3.25c0-.35.28-.62.62-.62s.62.28.62.62v3.25h3.25c.35 0 .62.28.62.62s-.28.62-.62.62h-3.25zm-10.88 10.63l-1.2-.25-.36-.07 1.46 5.16h1.69l-1.48-4.81-.11-.03z"/><path fill="#ccc" d="M43.97 57.69c-.11-1.54-1.4-2.76-2.97-2.76-1.6 0-2.91 1.28-2.97 2.87l-.01.11c0 .17.02.34.05.51.04.21.1.41.18.61.1.23.21.46.36.66.38-.04.76-.08 1.15-.1.38-.02.76-.03 1.14-.03h.06c.38 0 .76.01 1.15.03h.01c.39.02.79.06 1.18.1l.07.01c.18-.24.31-.5.42-.77.07-.2.12-.4.15-.61.02-.13.03-.27.03-.41v-.22z"/><path fill="#404040" d="M55.21 62.34c-2.22-2.37-5.75-3.94-9.97-4.51-.04-2.29-1.92-4.15-4.22-4.15-2.33 0-4.23 1.9-4.23 4.23v.07c-3.19.53-6.11 1.57-8.31 2.98l-3.4-2.36c-.2-.14-.48-.15-.69-.02-.21.13-.33.38-.29.62l.55 3.59-4.48-.52c-.24-.03-.47.08-.6.29-.13.2-.13.46 0 .67l2.02 3.21c-3.1 2.06-5.98 3.15-7.88 2.87-.21-.03-.41.04-.55.2-.14.15-.19.37-.15.57l1.61 6.54c.04.18.16.33.33.41.08.04 5.43 2.7 12.84 4.54l1.78 6.29c.08.27.32.45.6.45h7.48c.29 0 .54-.2.61-.48l1.06-4.5c.68.07 1.36.11 2.04.11.91 0 1.78-.05 2.63-.13l1.31 4.55c.08.27.32.45.6.45h8.3c.3 0 .56-.21.61-.51l2.97-15.78c.08-.48.14-.98.17-1.49.23-3.25-.7-6.01-2.74-8.19zm.29 15.13l-1.81 9.6h-4.17l-1.36-4.61-.18-.61-.18-.6-.44-1.49c-.02-.08-.06-.14-.11-.2-.15-.2-.41-.29-.67-.22-.33.1-.52.45-.42.78l.44 1.48-.07.02-.08.02c-.66.16-1.34.28-2.04.38-.97.13-1.99.19-3.04.19-.58 0-1.16-.04-1.75-.09l.37-1.55c.08-.34-.13-.67-.46-.75-.34-.08-.67.13-.75.46l-.05.2-.35 1.5-.15.62-.15.62-.91 3.86h-3.51l-1.4-4.56-.2-.66-.09-.31-.07-.15-.01-.01-.14-.15-.04-.03-.2-.09-.06-.01-.07-.01-.09-.02-2.56-.56c-6.67-1.59-11.77-3.92-12.94-4.48l-1.34-5.43c2.34-.02 5.15-1.33 7.83-3.11l.52-.35.51-.36c.6-.44 1.19-.89 1.77-1.35l.11.75.01.06c.03.21.17.37.34.46.08.04.18.07.28.07l.1-.01c.3-.05.51-.31.52-.6v-.11l-.03-.2-.06-.37-.07-.45-.08-.54-.08-.51-.03-.23-.11-.74v-.03l-.39-2.54 1.84 1.28.53.37.54.38 1.96 1.36.28.2c.28.2.67.13.87-.16.2-.28.13-.67-.16-.87l-1.84-1.28c2-1.18 4.58-2.06 7.4-2.53.08.23.17.46.29.68-.6.11-.96.22-1.01.23-.33.1-.52.45-.42.78.1.33.44.52.78.42.02 0 .76-.22 1.96-.37.29-.04.59-.06.89-.09l.34-.02c.33-.02.66-.03 1-.03h.25c.38 0 .76.01 1.14.04l.13.01c.34.02.68.06 1.04.1.66.08 1.34.2 2.05.37l.15.02c.28 0 .54-.19.61-.48.08-.34-.12-.67-.46-.76-.33-.08-.66-.15-.99-.21.14-.27.26-.55.34-.84 3.94.53 7.2 1.97 9.22 4.13 1.8 1.92 2.62 4.36 2.43 7.27-.04.7-.15 1.38-.3 2.03l.01-.01-.63 3.33-.33 1.67zm-9.12 9.6l-1.13-3.92c.58-.09 1.15-.21 1.7-.35l1.26 4.27h-1.83zm-15.72 0l-1.46-5.16.36.07 1.2.25.12.03 1.48 4.81h-1.7zm-8.04-21.35l-1.3-2.06 3.43.4c-.71.6-1.42 1.15-2.13 1.66zm18.39-10.79c1.57 0 2.85 1.22 2.97 2.76l.01.22c0 .14-.01.27-.03.41-.03.21-.08.42-.15.61-.1.27-.24.54-.42.77l-.07-.01c-.79-.09-1.59-.13-2.37-.13s-1.55.04-2.31.13c-.15-.2-.27-.43-.36-.66-.08-.2-.15-.4-.18-.61-.03-.17-.05-.34-.05-.51l.01-.11c.04-1.59 1.34-2.87 2.95-2.87zm3.87 15.43h-3.25v-3.25c0-.35-.28-.62-.62-.62s-.62.28-.62.62v3.25h-3.25c-.35 0-.62.28-.62.62s.28.62.62.62h3.25v3.25c0 .35.28.62.62.62s.62-.28.62-.62v-3.25h3.25c.35 0 .62-.28.62-.62.01-.34-.27-.62-.62-.62z"/></svg>