<svg xmlns="http://www.w3.org/2000/svg" viewBox="0 0 71 142" enable-background="new 0 0 71 142"><path fill="#EFE8DF" d="M49.55 54.98c-.17 0-.33-.06-.44-.19-.12-.11-.19-.27-.19-.44v-4.6h-21.77v3.17h12.55l.04.01.17.03.06.03.14.1.04.03.01.01 4.78 5.23.1.17.01.04.03.17.01.03v29.07h8.61v-32.87l-4.15.01zm.62-4.24v2.99l2.74-.01-2.74-2.98z"/><path fill="#E6D1B8" d="M35.38 72.82h-11.41v9.89h13.21v-9.89h-1.8z"/><path fill="#fff" d="M39.69 59.4c-.35 0-.62-.28-.62-.62v-4.6h-21.78v38.08h26.56v-32.86h-4.16zm-16.97 23.93v-11.14c0-.35.28-.62.62-.62h1.8v-4c0-1.01.28-1.95.76-2.76.18-.31.39-.59.62-.86.19-.21.4-.42.62-.6.93-.76 2.12-1.22 3.42-1.22 2.99 0 5.43 2.44 5.43 5.44v4h1.8c.35 0 .62.28.62.62v11.14c0 .35-.28.62-.62.62h-14.45c-.34.01-.62-.27-.62-.62zm7.85-16.95c-.79 0-1.19.4-1.19 1.19v4h2.38v-4c0-.79-.4-1.19-1.19-1.19zm9.75-11.23v2.99h2.74l-2.74-2.99zm-13.17 16.42h.98v-4c0-1.8 1.32-2.44 2.44-2.44s2.44.64 2.44 2.44v4h1.74v-4c0-2.31-1.88-4.19-4.18-4.19-1.42 0-2.67.71-3.42 1.79-.28.4-.5.86-.62 1.35-.08.33-.14.68-.14 1.04v4.01h.76z"/><path fill="#404040" d="M54.95 54.32l-.03-.17-.02-.05-.11-.17-4.78-5.23-.01-.01-.04-.04-.13-.09-.06-.03-.17-.03-.04-.01h-23.03c-.34 0-.62.28-.62.62v3.79h-9.23c-.34 0-.62.28-.62.62v39.33c0 .35.28.62.62.62h27.81c.35 0 .62-.28.62-.62v-3.79h9.24c.35 0 .62-.28.62-.62v-34.09l-.02-.03zm-1.24 33.51h-8.61v-29.06l-.01-.03-.03-.18-.01-.04-.1-.15-.01-.01-4.78-5.23-.01-.01-.04-.03-.14-.1-.06-.02-.17-.03-.04-.01h-12.55v-3.15h21.78v4.61c0 .17.06.32.19.44.12.12.28.19.44.19l4.15-.01v32.82zm-9.86 1.25v3.17h-26.56v-38.08h21.78v4.6c0 .34.28.62.62.62h4.16v29.69zm-3.53-30.94v-2.99l2.74 2.99h-2.74zm9.85-4.41v-2.99l2.74 2.99h-2.74zm-12.37 17.84h-1.8v-4c0-3-2.44-5.44-5.43-5.44-1.3 0-2.49.46-3.42 1.22-.23.18-.43.39-.62.6-.24.26-.44.55-.62.86-.48.81-.76 1.75-.76 2.76v4h-1.8c-.34 0-.62.28-.62.62v11.14c0 .35.28.62.62.62h14.45c.35 0 .62-.28.62-.62v-11.14c0-.34-.27-.62-.62-.62zm-.63 11.14h-13.2v-9.89h13.22l-.02 9.89zm-10.78-15.14c0-.36.05-.71.14-1.04.12-.5.34-.95.62-1.35.75-1.08 2-1.79 3.42-1.79 2.31 0 4.18 1.88 4.18 4.18v4.01h-1.74v-4.01c0-1.8-1.32-2.44-2.44-2.44s-2.44.64-2.44 2.44v4.01h-1.74v-4.01zm5.37 4h-2.38v-4c0-.79.4-1.19 1.19-1.19s1.19.4 1.19 1.19v4z"/></svg>