<svg xmlns="http://www.w3.org/2000/svg" viewBox="0 0 71 142" enable-background="new 0 0 71 142"><path d="M45.18 81.88c-.26.04-.51.09-.77.12.26-.03.52-.07.77-.12zm-5.4-22.29c.38-.02.76-.03 1.14-.03-.39 0-.77 0-1.14.03zm-1.16.09c.38-.04.76-.07 1.15-.1-.38.03-.76.06-1.15.1zm3.5-.09c.4.02.79.06 1.19.1-.39-.04-.79-.08-1.19-.1zm-1.15-.03c.38 0 .76.01 1.15.03-.38-.02-.77-.03-1.15-.03zm8.09 3.7c-2.64 0-5.15.94-7.14 2.65-1.99-1.71-4.51-2.65-7.14-2.65-.35 0-.62.28-.62.62v5.7c0 .35.28.62.62.62 1.75 0 3.44-.41 4.97-1.19l-3.21 5.11c-.1.15-.12.35-.06.53.06.17.19.31.37.39l3.83 1.52.23.04c.09 0 .19-.02.27-.06.15-.07.28-.21.33-.38l.43-1.39.41 1.38c.05.17.17.31.33.39.08.04.18.06.28.06l.23-.04 3.83-1.52c.17-.07.31-.21.37-.39.06-.17.03-.37-.06-.52l-3.21-5.12c1.53.78 3.22 1.19 4.97 1.19.35 0 .62-.28.62-.62v-5.71c-.03-.33-.31-.61-.65-.61z" fill="none"/><path fill="#E6D1B8" d="M45.26 83.15l1.13 3.92h1.83l-1.26-4.27c-.55.14-1.12.26-1.7.35zm-20.5-19.08l-3.43-.4 1.3 2.06c.7-.52 1.41-1.07 2.13-1.66zm29.53-.88c-2.03-2.15-5.28-3.6-9.22-4.13-.08.29-.2.57-.35.83.33.06.65.13.99.21.33.08.54.42.46.76-.07.28-.33.48-.6.48l-.15-.02c-.71-.17-1.38-.29-2.04-.37-.35-.04-.69-.08-1.04-.1l-.13-.01c-.38-.03-.76-.03-1.13-.04h-.24c-.33 0-.67.01-1 .03l-.34.03c-.3.03-.6.05-.89.09-1.21.15-1.94.36-1.97.37-.33.09-.68-.09-.78-.42-.1-.33.09-.68.42-.77.05-.01.42-.12 1.01-.24-.12-.22-.22-.45-.29-.68-2.82.46-5.41 1.34-7.4 2.52l1.83 1.27c.28.19.35.58.16.87-.2.28-.58.36-.87.15l-.28-.19-1.96-1.36-.55-.38-.53-.37-1.84-1.28.39 2.54v.02l.11.74.03.23.08.51.08.54.07.45.06.38.03.19v.11c-.01.29-.22.56-.52.6l-.09.01c-.1 0-.19-.03-.27-.08-.17-.09-.31-.25-.34-.45l-.01-.06-.11-.75c-.58.47-1.16.92-1.77 1.36l-.51.36c-.17.12-.34.24-.52.35-2.67 1.78-5.49 3.08-7.83 3.11l1.34 5.43c1.17.56 6.27 2.89 12.94 4.48l2.57.56.09.02.07.01.06.01c.08.01.14.05.2.09l.05.03.14.15v.01l.07.15.1.31.21.67 1.4 4.56h3.51l.91-3.86.15-.61.15-.62.35-1.5.04-.2c.08-.34.42-.54.75-.47.33.08.54.42.47.75l-.37 1.54c.58.05 1.17.09 1.75.09 1.06 0 2.07-.07 3.05-.2.26-.03.51-.08.77-.12.44-.07.86-.15 1.27-.26l.08-.02.07-.01-.44-1.48c-.1-.33.09-.68.42-.77.26-.08.51.02.67.22l.1.21.44 1.49.17.6.18.62 1.36 4.61h4.17l1.81-9.62.31-1.65.63-3.33-.01.01c.15-.65.26-1.33.3-2.04.17-2.91-.65-5.35-2.45-7.27zm-4.61 6.4c0 .35-.28.62-.62.62-1.75 0-3.44-.41-4.97-1.19l3.21 5.11c.1.15.12.35.06.53-.06.17-.19.31-.37.39l-3.83 1.52-.23.04c-.1 0-.19-.02-.28-.06-.16-.08-.28-.22-.33-.39l-.41-1.38-.43 1.39c-.05.16-.17.3-.33.38-.08.04-.17.06-.27.06l-.23-.04-3.83-1.52c-.17-.07-.31-.21-.37-.38-.06-.18-.03-.37.06-.53l3.21-5.11c-1.53.78-3.22 1.19-4.97 1.19-.35 0-.62-.28-.62-.62v-5.7c0-.35.28-.62.62-.62 2.64 0 5.15.94 7.14 2.65 1.99-1.71 4.51-2.65 7.14-2.65.35 0 .62.28.62.62l.03 5.69zm-18.93 12.65l-1.2-.25-.35-.07 1.46 5.16h1.69l-1.48-4.81-.12-.03z"/><path fill="#ccc" d="M43.97 57.68c-.11-1.54-1.4-2.76-2.97-2.76-1.6 0-2.92 1.28-2.97 2.87l-.01.11c0 .17.02.35.04.51.03.21.1.41.18.61.1.24.21.46.36.66.38-.05.76-.08 1.15-.1.38-.02.76-.03 1.13-.03h.06c.38 0 .76.01 1.15.03h.01c.4.02.79.06 1.19.1h.07c.18-.24.31-.5.42-.77.08-.2.12-.41.15-.62.02-.13.03-.27.03-.4l.01-.21z"/><path fill="#DA291C" d="M35.4 64.53v4.42c2.05-.13 3.99-.9 5.58-2.21-1.59-1.31-3.54-2.08-5.58-2.21zm7.45 2.21c1.58 1.31 3.53 2.08 5.58 2.21v-4.41c-2.05.12-3.99.89-5.58 2.2zm-.26 5.91l.74 2.51 2.49-.99-2.48-3.96-.75 2.44zm-4.6 1.52l2.51.99 1.97-6.35-.56-.9-3.92 6.26z"/><path fill="#404040" d="M55.21 62.33c-2.22-2.36-5.75-3.93-9.97-4.51-.04-2.29-1.92-4.15-4.22-4.15-2.33 0-4.22 1.9-4.22 4.23l.01.07c-3.19.53-6.11 1.57-8.31 2.98l-3.4-2.37c-.2-.14-.48-.15-.69-.01-.21.13-.33.38-.28.62l.55 3.59-4.49-.51c-.24-.03-.48.08-.6.29-.13.21-.13.47 0 .67l2.02 3.21c-3.1 2.06-5.98 3.15-7.88 2.87-.2-.03-.41.04-.56.19-.14.15-.19.37-.15.57l1.61 6.54c.05.18.16.32.32.41.07.04 5.43 2.7 12.84 4.54l1.78 6.29c.08.27.32.46.6.46h7.48c.29 0 .54-.2.61-.48l1.06-4.5c.68.06 1.37.11 2.04.11.9 0 1.78-.04 2.63-.14l1.31 4.56c.08.27.32.45.6.45h8.3c.3 0 .56-.21.62-.51l2.97-15.78c.08-.49.14-.98.17-1.49.22-3.25-.71-6.01-2.75-8.2zm-17.17-4.54c.06-1.59 1.37-2.87 2.97-2.87 1.57 0 2.85 1.22 2.97 2.76l.01.22c0 .14-.01.27-.03.4-.03.21-.08.42-.15.62-.1.27-.24.53-.42.77h-.07c-.4-.05-.79-.08-1.19-.1h-.01c-.38-.02-.77-.03-1.15-.03h-.06c-.38 0-.76.01-1.14.03-.38.02-.77.06-1.15.1-.15-.2-.26-.42-.36-.66-.08-.19-.15-.4-.18-.61-.03-.17-.04-.34-.04-.51v-.12zm-16.71 5.87l3.43.4c-.72.6-1.42 1.15-2.14 1.66l-1.29-2.06zm9.33 23.41l-1.46-5.16.35.07 1.2.25.12.03 1.48 4.81h-1.69zm15.73 0l-1.13-3.92c.58-.1 1.15-.21 1.71-.35l1.26 4.27h-1.84zm10.34-16.61c-.04.71-.15 1.38-.3 2.04l.01-.01-.63 3.33-.31 1.65-1.81 9.6h-4.17l-1.36-4.61-.18-.61-.17-.6-.44-1.5-.1-.21c-.15-.2-.42-.29-.67-.22-.33.1-.52.45-.42.78l.44 1.48-.07.01-.08.02c-.42.1-.84.18-1.27.25l-.77.12c-.97.12-1.99.19-3.05.19-.58 0-1.17-.03-1.75-.09l.37-1.54c.08-.33-.13-.67-.47-.75s-.67.13-.75.46l-.04.2-.35 1.5-.15.61-.15.62-.91 3.86h-3.51l-1.4-4.56-.21-.67-.09-.31-.07-.15v-.01l-.14-.14-.05-.03-.2-.09-.06-.01-.07-.01-.09-.02-2.57-.56c-6.67-1.59-11.77-3.92-12.94-4.48l-1.34-5.43c2.34-.02 5.16-1.32 7.83-3.11l.52-.35.51-.36c.6-.43 1.19-.89 1.77-1.35l.11.74.01.06c.03.21.17.37.34.46.08.04.17.08.27.08h.09c.31-.05.51-.31.52-.61v-.11l-.03-.19-.06-.38-.07-.45-.08-.54-.08-.5-.03-.23-.09-.73v-.02l-.39-2.54 1.84 1.28.53.37.55.38 1.96 1.36.28.19c.28.19.67.12.87-.15.19-.28.12-.67-.16-.87l-1.84-1.27c2-1.19 4.58-2.06 7.4-2.52.08.24.17.46.29.68-.6.11-.97.22-1.01.24-.33.1-.52.44-.42.77.1.33.44.52.78.42.01-.01.76-.22 1.97-.37l.89-.09.34-.03c.33-.02.67-.03 1-.03h.24c.38 0 .76.01 1.13.04l.13.01c.35.02.69.06 1.04.1.66.08 1.34.2 2.04.37l.15.02c.28 0 .53-.19.6-.48.08-.33-.12-.68-.46-.76s-.67-.15-.99-.21c.15-.26.26-.55.35-.83 3.94.53 7.2 1.97 9.22 4.13 1.79 1.92 2.61 4.37 2.43 7.27zm-7.67-7.2c-2.64 0-5.15.94-7.14 2.65-1.99-1.71-4.51-2.65-7.14-2.65-.35 0-.62.28-.62.62v5.7c0 .35.28.62.62.62 1.75 0 3.44-.41 4.97-1.19l-3.21 5.11c-.1.15-.12.35-.06.53.06.17.19.31.37.39l3.83 1.52.23.04c.09 0 .19-.02.27-.06.15-.07.28-.21.33-.38l.43-1.39.41 1.38c.05.17.17.31.33.39.08.04.18.06.28.06l.23-.04 3.83-1.52c.17-.07.31-.21.37-.39.06-.17.03-.37-.06-.52l-3.21-5.12c1.53.78 3.22 1.19 4.97 1.19.35 0 .62-.28.62-.62v-5.71c-.03-.33-.31-.61-.65-.61zm-.63 5.68c-2.05-.13-3.99-.9-5.58-2.21 1.58-1.31 3.53-2.08 5.58-2.21v4.42zm-5.1 6.23l-.74-2.51.76-2.44 2.48 3.96-2.5.99zm-5.34-1l3.92-6.25.56.9-1.97 6.35-2.51-1zm-2.59-9.64c2.05.13 3.99.9 5.58 2.21-1.58 1.31-3.53 2.08-5.58 2.21v-4.42z"/></svg>