<svg xmlns="http://www.w3.org/2000/svg" viewBox="0 0 71 142" enable-background="new 0 0 71 142"><path fill="#DA291C" d="M32.35 53.75c-8.65 1.29-15.7 7.75-17.69 16.29 1.68-1.58 3.91-2.48 6.28-2.49 2.58 0 4.97 1.05 6.69 2.88.12-4.71.86-9.04 2.13-12.32.73-1.9 1.61-3.36 2.59-4.36zm6.25 0c2.68 2.7 4.53 8.88 4.76 16.56 1.72-1.77 4.07-2.79 6.6-2.79 2.41 0 4.69.95 6.4 2.57-1.99-8.6-9.07-15.08-17.76-16.34zm-3.12-.24h-.01c-1.65.01-3.3 1.85-4.53 5.04-1.2 3.11-1.91 7.24-2.04 11.73 1.58-1.62 3.71-2.6 6.01-2.74l.54-.01c.24 0 .47.01.71.03 2.29.17 4.4 1.18 5.96 2.81-.31-10.45-3.59-16.84-6.64-16.86z"/><path fill="#404040" d="M57.98 72.21c-1.33-11.15-10.62-19.58-21.83-19.92v-2.82c0-.35-.28-.62-.62-.62s-.62.28-.62.62v2.82c-11.2.29-20.56 8.76-21.89 19.93-.03.29.14.57.41.67s.59-.01.74-.26c1.46-2.38 3.99-3.81 6.8-3.81 2.74 0 5.24 1.38 6.72 3.7.11.18.32.29.52.29.22 0 .42-.11.52-.29 1.37-2.16 3.64-3.51 6.17-3.69v21.57c0 .41-.16.79-.45 1.09-.29.29-.67.45-1.08.45-.85 0-1.53-.68-1.53-1.53 0-.35-.28-.62-.62-.62s-.62.28-.62.62c0 1.54 1.25 2.78 2.78 2.78h.01c.74 0 1.44-.29 1.97-.82s.81-1.22.81-1.97v-21.57c2.46.21 4.68 1.54 6.03 3.66.12.18.31.29.53.29.22 0 .42-.11.53-.29 1.47-2.32 3.98-3.71 6.73-3.71 2.81 0 5.44 1.51 6.87 3.94.12.19.32.31.54.31h.01c.35 0 .62-.28.62-.62l-.05-.2zm-22.54-4.67l-.54.01c-2.3.14-4.42 1.12-6.01 2.74.13-4.5.84-8.62 2.04-11.73 1.23-3.19 2.88-5.03 4.53-5.04h.01c3.05 0 6.33 6.41 6.63 16.86-1.56-1.63-3.67-2.64-5.96-2.81-.22-.03-.45-.03-.7-.03zm-3.09-13.78c-.98.99-1.85 2.46-2.58 4.35-1.26 3.28-2.01 7.62-2.13 12.32-1.72-1.82-4.11-2.88-6.69-2.88-2.39 0-4.6.9-6.28 2.49 1.97-8.54 9.03-15 17.68-16.28zm11 16.55c-.23-7.67-2.08-13.86-4.76-16.57 8.69 1.26 15.78 7.75 17.75 16.35-1.69-1.62-3.99-2.58-6.4-2.58-2.52.01-4.87 1.03-6.59 2.8z"/></svg>