<svg xmlns="http://www.w3.org/2000/svg" viewBox="0 0 71 142" enable-background="new 0 0 71 142"><path d="M39.4 67.74l1.92 3.42c.17.29.06.67-.22.84l-.71.44c1.27.96 2.84 1.51 4.49 1.51 1.26 0 2.51-.33 3.6-.94 3.56-1.99 4.84-6.51 2.85-10.08-1.31-2.33-3.79-3.78-6.47-3.78-1.26 0-2.51.32-3.6.94-2.86 1.6-4.24 4.82-3.65 7.88l.99-.47c.29-.17.65-.06.8.24z" fill="none"/><path fill="#BF1D19" d="M41.49 79.22c-2.36-.63-4.5-1.9-6.17-3.68l-1.19.73c-.1.06-.21.09-.33.09l-.16-.02-.08-.04c-.13-.06-.24-.14-.31-.26l-2.29-4.17-.02-.08c-.05-.13-.07-.28-.02-.41.05-.17.17-.3.33-.37l1.1-.53c-.76-2.42-.82-5.01-.1-7.51l.01-.04c-2.35-2.52-4.45-3.84-5.77-3.84-.27 0-.52.06-.73.17-1.01.57-1.28 2.62-.73 5.5.41 2.16 1.25 4.63 2.4 7.18l.28.62c.09.21.19.41.3.61.4.81.82 1.64 1.28 2.46.5.9 1.02 1.75 1.53 2.56l.37.56c.12.19.25.38.38.56 3.59 5.24 7.17 8.04 9.1 8.04.28 0 .51-.05.72-.17 1.26-.71 1.35-3.75.1-7.96z"/><path fill="#DA291C" d="M55.24 60.72c-2.1-3.75-6.08-6.08-10.4-6.08-2.02 0-4.02.52-5.78 1.51-2.56 1.43-4.44 3.72-5.4 6.47-.08.23-.16.44-.22.68l-.01.02c-.07.25-.13.5-.18.75-.42 1.97-.33 3.97.23 5.86l2.97-1.43-.01-.05c-.11-.48-.17-.96-.19-1.44-.02-.37-.02-.73.01-1.1.21-2.81 1.76-5.46 4.4-6.93 1.29-.72 2.74-1.1 4.22-1.1 3.14 0 6.04 1.69 7.56 4.42 2.33 4.17.84 9.45-3.33 11.78-1.28.72-2.74 1.1-4.22 1.1-1.38 0-2.71-.33-3.89-.92-.33-.17-.65-.36-.96-.56-.26-.18-.52-.38-.76-.58l-.16.1-2.7 1.65c1.29 1.31 2.88 2.3 4.62 2.89.24.08.49.16.74.22.24.07.49.12.75.18.78.15 1.57.24 2.38.24 2.02 0 4.02-.52 5.78-1.51 2.76-1.55 4.76-4.08 5.63-7.14.85-3.05.47-6.26-1.08-9.03z"/><path fill="#E6D1B8" d="M26.62 73.23c-3.88.19-7.15.49-9.05 1.54-1.51.85-2.61 2.24-3.08 3.91-.47 1.67-.27 3.43.59 4.94 1.15 2.05 3.32 3.33 5.68 3.33 1.1 0 2.2-.29 3.17-.83 1.91-1.07 3.91-3.62 6.11-6.82-.64-.97-1.26-1.99-1.86-3.07-.56-1-1.08-2-1.56-3zm11.98-4.37l-6.23 2.99 1.65 3.02 5.91-3.62-1.33-2.39z"/><path fill="#404040" d="M56.33 60.11c-2.32-4.14-6.72-6.72-11.49-6.72-2.23 0-4.44.58-6.4 1.67-2.63 1.47-4.63 3.76-5.75 6.53-2.31-2.36-4.52-3.76-6.23-3.76-.49 0-.94.11-1.33.33-1.57.88-2.03 3.24-1.35 6.82.41 2.12 1.19 4.53 2.28 7.01-3.83.19-7.06.53-9.1 1.68-1.81 1.01-3.11 2.67-3.68 4.66-.56 1.99-.31 4.08.69 5.89 1.37 2.44 3.96 3.97 6.77 3.97 1.32 0 2.62-.34 3.78-.99 2.04-1.14 4.07-3.66 6.25-6.81 3.49 4.97 7.26 8.19 9.85 8.19.49 0 .94-.11 1.33-.33 1.67-.94 2.19-4.07.92-8.76.65.1 1.31.15 1.98.15 2.23 0 4.44-.58 6.4-1.67 3.06-1.71 5.26-4.51 6.22-7.9.99-3.35.57-6.9-1.14-9.96zm-.03 9.65c-.87 3.06-2.86 5.6-5.63 7.14-1.77.99-3.77 1.51-5.78 1.51-.81 0-1.6-.08-2.38-.24-.25-.05-.5-.11-.75-.18l-.74-.22c-1.74-.6-3.33-1.58-4.62-2.89l2.7-1.65.16-.1c.24.21.5.4.76.58.31.21.63.4.96.56 1.19.6 2.51.92 3.89.92 1.47 0 2.93-.38 4.22-1.1 4.17-2.33 5.65-7.61 3.33-11.78-1.53-2.73-4.43-4.42-7.56-4.42-1.47 0-2.93.38-4.22 1.1-2.63 1.47-4.19 4.13-4.4 6.93-.03.36-.03.73-.01 1.1.03.48.09.96.19 1.44l.01.05-2.97 1.43c-.57-1.9-.65-3.9-.23-5.86.06-.25.11-.5.18-.75l.01-.02c.06-.23.15-.45.22-.67.96-2.76 2.85-5.04 5.4-6.47 1.77-.99 3.77-1.51 5.78-1.51 4.31 0 8.3 2.33 10.4 6.08 1.57 2.75 1.94 5.96 1.08 9.02zm-14.93 17.42c-.21.11-.44.17-.72.17-1.92 0-5.51-2.8-9.1-8.04l-.38-.56-.37-.56c-.51-.81-1.03-1.65-1.53-2.56-.46-.82-.88-1.64-1.28-2.46l-.3-.61-.28-.62c-1.16-2.56-1.99-5.02-2.4-7.18-.55-2.88-.27-4.93.73-5.5.2-.11.45-.17.73-.17 1.32 0 3.42 1.31 5.77 3.84l-.01.04c-.7 2.5-.66 5.1.1 7.51l-1.1.53c-.16.08-.27.21-.33.37-.05.13-.03.28.02.41l.02.08 2.29 4.17c.07.12.18.21.31.26l.08.04.16.02c.12 0 .23-.03.33-.09l1.19-.73c1.67 1.77 3.81 3.05 6.17 3.68 1.28 4.2 1.18 7.24-.1 7.96zm-26.29-3.55c-.85-1.51-1.06-3.27-.59-4.95.47-1.67 1.56-3.06 3.08-3.91 1.9-1.06 5.17-1.36 9.05-1.54.48 1 .99 2 1.55 3 .6 1.08 1.23 2.1 1.86 3.07-2.2 3.2-4.2 5.75-6.11 6.82-.97.54-2.07.83-3.17.83-2.35.01-4.52-1.27-5.67-3.32zm26.03-11.63c.28-.17.38-.54.22-.84l-1.92-3.42c-.16-.29-.52-.4-.81-.26l-.99.47c-.6-3.05.79-6.28 3.65-7.88 1.1-.61 2.35-.94 3.6-.94 2.69 0 5.17 1.45 6.47 3.78 1.99 3.56.72 8.08-2.85 10.08-1.1.61-2.35.94-3.6.94-1.65 0-3.22-.54-4.49-1.51 0 0 .72-.43.72-.42zm-2.5-3.14l1.33 2.39-5.91 3.62-1.65-3.01 6.23-3z"/></svg>