<svg xmlns="http://www.w3.org/2000/svg" viewBox="0 0 71 142" enable-background="new 0 0 71 142"><path fill="#A8C432" stroke="#A8C432" stroke-miterlimit="10" d="M50.01 64.03c-.33 0-.59.26-.59.59v6.65c0 3.35-2.72 6.07-6.06 6.07s-6.06-2.72-6.06-6.07v-6.65c0-.32-.26-.59-.59-.59s-.59.26-.59.59v6.66c0 3.49 2.49 6.48 5.92 7.12.29.06.51.32.51.62v6c0 3.35-2.72 6.06-6.06 6.06s-6.07-2.72-6.07-6.06c0-2.22-1.01-4.22-2.59-5.54-.18-.15-.36-.29-.56-.42-.19-.13-.39-.25-.58-.36-.38-.21-.77-.39-1.19-.53l.02.24c0 .34-.07.66-.19.95.37.14.73.32 1.06.53.18.11.35.24.52.36l.49.42c1.14 1.11 1.85 2.65 1.85 4.35 0 3.99 3.25 7.24 7.24 7.24s7.24-3.25 7.24-7.24v-5.94c0-.31.24-.58.54-.62 3.61-.46 6.33-3.54 6.33-7.18v-6.65c0-.34-.26-.6-.59-.6z"/><path fill="#A6A6A6" d="M26.49 77.19c-.5-1.41-1.84-2.42-3.42-2.42-2 0-3.62 1.62-3.62 3.62s1.62 3.62 3.62 3.62c1.02 0 1.94-.43 2.6-1.11-.37-.22-.77-.4-1.19-.53-.4.29-.89.46-1.41.46-1.34 0-2.44-1.1-2.44-2.44 0-1.34 1.09-2.44 2.44-2.44.68 0 1.29.28 1.74.72.58.12 1.14.29 1.68.52zm13.29-27.43l-1.81.19v1.74l1.81.19c.63.07 1.17-.44 1.17-1.06 0-.63-.53-1.13-1.17-1.06zm7.16 0l-.12-.01c-.58 0-1.06.48-1.06 1.07 0 .62.54 1.12 1.17 1.06l1.81-.19v-1.74c0-.01-1.8-.19-1.8-.19zm-23.87 27.44c-.23 0-.43.07-.61.18-.34.21-.58.58-.58 1.02 0 .65.53 1.19 1.19 1.19l.14-.01c.37-.04.69-.25.88-.55.11-.19.18-.4.18-.62 0-.2-.06-.39-.15-.56-.21-.39-.6-.65-1.05-.65z"/><path fill="#404040" d="M50.64 62.89v-.11c0-1.67.56-3.18 1.11-4.64.54-1.44 1.06-2.82 1.06-4.31 0-1.84-1.37-2.81-2.81-3.28v-1.17c0-.32-.24-.59-.56-.62l-2.37-.25c-1.38-.15-2.56.94-2.56 2.3 0 1.27 1.03 2.31 2.31 2.31l.24-.01 2.37-.25c.32-.03.56-.3.56-.62v-.36c.83.33 1.56.92 1.56 1.95 0 1.27-.47 2.53-.97 3.87-.58 1.57-1.19 3.18-1.19 5.07v.11c-.71.26-1.22.93-1.22 1.72v6.65c0 2.65-2.16 4.82-4.81 4.82s-4.81-2.16-4.81-4.82v-6.64c0-.79-.51-1.47-1.22-1.72v-.12c0-1.9-.6-3.51-1.19-5.07-.5-1.34-.97-2.6-.97-3.87 0-1.03.74-1.61 1.56-1.96v.37c0 .32.24.59.56.62l2.37.25.24.01c1.28 0 2.31-1.04 2.31-2.31 0-1.36-1.18-2.45-2.56-2.3l-2.37.25c-.32.03-.56.3-.56.62v1.17c-1.45.47-2.81 1.44-2.81 3.28 0 1.5.51 2.86 1.06 4.31.54 1.46 1.11 2.97 1.11 4.64v.11c-.71.26-1.22.93-1.22 1.72v6.65c0 3.92 2.67 7.3 6.42 8.24v5.51c0 2.65-2.16 4.82-4.81 4.82s-4.82-2.16-4.82-4.82c0-2.93-1.49-5.51-3.74-7.04-.22-2.49-2.31-4.45-4.85-4.45-2.69 0-4.88 2.19-4.88 4.88s2.18 4.88 4.88 4.88c1.42 0 2.69-.61 3.58-1.58.83.87 1.34 2.03 1.34 3.32 0 4.68 3.81 8.49 8.49 8.49s8.49-3.81 8.49-8.49v-5.42c3.96-.76 6.88-4.25 6.88-8.33v-6.65c.02-.8-.49-1.47-1.2-1.73zm-1.9-11.35v.14l-1.81.19c-.63.07-1.17-.44-1.17-1.06 0-.59.47-1.07 1.06-1.07l.12.01 1.81.19c-.01 0-.01 1.6-.01 1.6zm-10.77-1.28v-.32l1.81-.19c.64-.07 1.17.44 1.17 1.06s-.54 1.12-1.17 1.06l-1.81-.19v-1.42zm5.75 28.81v5.94c0 3.99-3.25 7.24-7.24 7.24s-7.24-3.25-7.24-7.24c0-1.71-.71-3.25-1.85-4.35-.16-.15-.32-.29-.49-.42-.17-.13-.34-.25-.52-.37-.33-.21-.68-.38-1.06-.53.12-.29.19-.61.19-.95l-.02-.24c.42.14.82.31 1.19.53.2.11.4.24.58.36.19.13.38.28.56.43 1.58 1.33 2.59 3.32 2.59 5.54 0 3.35 2.72 6.07 6.07 6.07s6.06-2.72 6.06-6.07v-6.01c0-.3-.22-.56-.51-.61-3.43-.64-5.92-3.63-5.92-7.12v-6.65c0-.33.26-.59.59-.59s.59.26.59.59v6.65c0 3.35 2.72 6.07 6.06 6.07s6.06-2.72 6.06-6.07v-6.65c0-.33.26-.59.59-.59s.59.26.59.59v6.65c0 3.64-2.72 6.73-6.33 7.19-.31.03-.54.3-.54.61zm-24.28-.68c0-2 1.62-3.62 3.62-3.62 1.58 0 2.92 1.01 3.41 2.42-.53-.22-1.09-.4-1.68-.51-.44-.45-1.06-.72-1.74-.72-1.34 0-2.44 1.1-2.44 2.44 0 1.35 1.09 2.44 2.44 2.44.52 0 1.01-.17 1.41-.46.42.12.83.3 1.19.53-.66.69-1.58 1.11-2.6 1.11-1.98-.01-3.61-1.63-3.61-3.63zm4.82 0c0 .23-.07.44-.18.62-.19.3-.5.51-.88.55l-.14.01c-.66 0-1.19-.54-1.19-1.19 0-.43.24-.81.58-1.02.18-.11.39-.17.61-.17.45 0 .84.26 1.05.64.1.17.15.36.15.56z"/></svg>