<svg xmlns="http://www.w3.org/2000/svg" viewBox="0 0 71 142" enable-background="new 0 0 71 142"><path fill="#E6D1B8" d="M41.53 68.22c-.38.03-.95.06-1.65.06-2.2 0-5.15-.31-7.24-1.68-1.16.75-10.15 7.03-11.36 21.99l-.03.43-.04.64-.03.62v.06l-.05.18-.03.06c-.1.19-.31.32-.54.32h-3.26c-.38 0-.68.3-.68.67 0 .19.08.37.23.49.09.08.24.19.45.19h20.17c-2.2-1.54-2.21-4.14-2.21-5.64 0-3.01 2.24-7.03 4.05-9.11-2.31-2.94-3.2-6.58-3.24-6.74-.06-.22.01-.45.18-.61s.4-.21.62-.14l2.62.84.03-.04.04-.04c.76-.64 1.72-1 2.71-1.05-.15-.34-.31-.64-.44-.92-.13-.2-.23-.4-.3-.58zm.85-12.07c-.13-.1-.22-.25-.24-.42-.17-1.33.1-2.46.47-3.4-.64.47-1.27.95-1.6 1.22-.16.12-.37.17-.56.11s-.35-.2-.42-.39c-.28-.81-.26-1.61-.19-2.38-4.17 4.69-5.78 8.94-6.4 11.71.54.49 2.58 1.88 8.1 1.95.12-.28.26-.54.44-.78 1.03-1.34 2.9-1.58 4.72-1.81 1.85-.23 2.56-1.62 2.81-2.4-4.01-1.09-7-3.3-7.13-3.41z"/><path fill="#ccc" d="M51.79 88.1c-.15 0-.28.12-.28.28s.12.28.28.28c1.33 0 2.03.78 2.03 1.54 0 .71-.62 1.48-1.99 1.48h-3.91c-.24 0-.47-.14-.57-.37-.1-.22-.06-.49.1-.67.94-1.1 1.02-2.67 1.02-4.04 0-2.61-2.15-6.65-4.08-8.65-.12-.12-.18-.28-.17-.46.01-.17.08-.33.2-.44 1.53-1.41 2.51-4.03 2.97-5.5l-1.88.6c-.21.07-.42.02-.59-.11-.24-.19-.53-.39-.84-.56-.22-.12-.47-.24-.7-.32-.24-.08-.47-.14-.68-.17l-.22-.02c-.77 0-1.52.26-2.12.75l-.28.28c-.17.17-.41.23-.63.15l-1.85-.59c.46 1.35 1.4 3.69 3 5.54.21.24.2.61-.03.84-1.93 2-4.08 6.05-4.08 8.65 0 2.29.28 4.39 2.92 5.24.4.13.87.23 1.4.3.41.05.85.08 1.35.1h9.67c.78 0 1.43-.22 1.9-.61.42-.37.66-.88.66-1.42-.01-1.01-.92-2.1-2.6-2.1z"/><path fill="#DA291C" d="M33.19 63.99c-.04.29-.06.55-.08.78l-.03.61c1.92 1.43 5.06 1.65 6.81 1.65.55 0 1.03-.02 1.38-.04l-.03-.61.02-.39.01-.15.01-.04c-4.6-.09-6.95-1.06-8.09-1.81zm8.07 1.86l-.01.15.01-.15zm-8.08-1.87l-.04.4-.03.39c.02-.23.04-.49.08-.78l-.01-.01z"/><path fill="#404040" d="M51.79 86.85c-.85 0-1.53.69-1.53 1.53 0 .85.69 1.53 1.53 1.53.58 0 .78.22.78.29 0 .03-.15.23-.74.23h-2.76c.59-1.22.65-2.59.65-3.83 0-2.99-2.21-6.97-4.01-9.06 2.19-2.4 3.17-6.6 3.21-6.79.05-.22-.02-.45-.19-.6-.17-.15-.4-.21-.62-.14l-2.67.85c-.5-.37-1.12-.71-1.76-.92-.24-.68-.53-1.24-.76-1.69-.15-.31-.33-.65-.35-.79-.09-.6-.11-1.12-.07-1.57.01-.19.04-.38.08-.55.08-.32.21-.6.38-.82.65-.86 2.03-1.09 3.88-1.32 2.83-.35 3.87-2.78 4.03-4.01.04-.32-.17-.62-.47-.69-3.44-.83-6.27-2.66-7.06-3.19-.12-1.49.47-2.69.94-3.66.13-.28.26-.53.36-.78.1-.24.04-.51-.15-.69s-.46-.22-.69-.11c-.65.3-1.92 1.23-2.76 1.88-.02-.49.03-1 .1-1.53.05-.41.1-.84.11-1.27.01-.26-.15-.49-.38-.6-.24-.1-.51-.04-.69.14-7.96 8.14-8.39 15.22-8.36 16.95-1.83 1.2-10.44 7.6-11.75 22.5v.02l-.02.24-.05.75-.03.49h-2.67c-1.06 0-1.92.86-1.92 1.92 0 .54.23 1.06.64 1.42.32.29.71.46 1.12.49l.16.02h34.54c1.08 0 2.02-.32 2.72-.92.69-.6 1.09-1.46 1.09-2.37-.02-1.62-1.36-3.35-3.86-3.35zm.04 5.4h-9.34l-.33-.01c-.49-.01-.94-.04-1.35-.1-.53-.06-.99-.17-1.4-.3-2.64-.85-2.92-2.96-2.92-5.24 0-2.61 2.15-6.65 4.08-8.65.22-.23.24-.6.03-.84-1.6-1.86-2.54-4.2-3-5.55l1.85.59c.22.07.47.01.63-.15l.28-.28c.6-.49 1.35-.76 2.12-.76l.22.02c.22.02.44.08.68.17.24.08.47.19.7.32.31.17.6.37.84.57.17.13.38.18.59.12l1.88-.6c-.46 1.48-1.44 4.1-2.97 5.5-.12.12-.19.28-.2.44-.01.17.06.33.17.46 1.92 2 4.08 6.04 4.08 8.65 0 1.38-.08 2.94-1.02 4.04-.16.19-.19.44-.1.67.1.22.33.36.57.36h3.91c1.37 0 1.99-.76 1.99-1.47 0-.77-.69-1.54-2.03-1.54-.15 0-.28-.12-.28-.28s.12-.28.28-.28c1.69 0 2.59 1.08 2.59 2.11 0 .54-.24 1.05-.66 1.42-.46.4-1.12.61-1.89.61zm-34.54 0c-.21 0-.36-.11-.45-.19-.15-.13-.23-.3-.23-.49 0-.37.3-.67.68-.67h3.26c.24 0 .43-.13.54-.32l.03-.06.05-.18v-.06l.03-.62.04-.64.03-.43c1.21-14.96 10.2-21.24 11.36-21.99 2.08 1.38 5.03 1.68 7.24 1.68.69 0 1.26-.03 1.65-.06l.29.6c.14.27.29.58.44.92-.99.05-1.94.42-2.71 1.05l-.04.04-.03.04-2.62-.83c-.22-.07-.45-.01-.62.14s-.24.39-.18.61c.04.16.93 3.8 3.24 6.74-1.81 2.08-4.05 6.11-4.05 9.11 0 1.5.01 4.1 2.21 5.64.01-.03-20.15-.03-20.16-.03zm23.97-26.4l-.01.15-.02.39c0 .21.01.42.03.61-.35.02-.83.05-1.38.05-1.74 0-4.89-.22-6.81-1.66l.03-.61.03-.39.04-.4h.01c1.14.75 3.49 1.72 8.07 1.81l.01.05zm.71-2.08c-.17.24-.32.5-.44.78-5.53-.07-7.56-1.46-8.1-1.95.62-2.77 2.22-7.01 6.4-11.71-.08.78-.08 1.56.19 2.38.06.19.22.34.42.4s.4.01.56-.11c.33-.26.97-.75 1.6-1.22-.37.94-.65 2.06-.47 3.39.02.17.11.32.24.42.13.1 3.12 2.31 7.12 3.41-.26.78-.96 2.17-2.81 2.4-1.8.23-3.68.46-4.71 1.81z"/></svg>