<svg xmlns="http://www.w3.org/2000/svg" viewBox="0 0 142 142" enable-background="new 0 0 142 142"><g fill="#EFE8DF"><path d="M102.98 113.5h3.72v-6.35c-1.08.37-2.32.6-3.72.69v5.66zM44.29 33.62v22.62h12.85v-11.8c0-.69.56-1.25 1.25-1.25h34.2c.69 0 1.25.56 1.25 1.25v26.1c0 .69-.56 1.25-1.25 1.25h-48.3v41.71h7.28v-3.87c0-.69.56-1.25 1.25-1.25h4.32v-30.99c0-.69.56-1.25 1.25-1.25h17.1c.69 0 1.25.56 1.25 1.25v30.99h4.45c.69 0 1.25.56 1.25 1.25v3.87h18.03v-5.66c-4.04-.25-6.79-1.7-8.17-4.35-1.89-3.64-1.01-9.3 2.6-16.83 2.6-5.43 5.66-9.8 5.79-9.98.47-.67 1.58-.67 2.05 0 .1.14 1.92 2.75 3.94 6.41v-49.47h-62.39z"/></g><g fill="#B0DFDB"><path d="M59.65 78.64h14.6v29.74h-14.6zM59.65 45.69h8.9v10.55h-8.9zM71.04 45.69h8.9v10.55h-8.9zM82.45 45.69h8.9v10.55h-8.9z"/></g><g fill="#fff"><path d="M54.07 110.88h25.87v2.62h-25.87zM32.39 58.74h58.96v10.55h-58.96zM44.29 28.5h62.4v2.62h-62.4z"/></g><path fill="#A8C432" d="M109.2 95.69c-.29-1.31-.73-2.69-1.25-4.07-.38-1-.8-2-1.25-2.99-1.57-3.44-3.48-6.72-4.97-9-3.67 5.65-9.98 17.35-7.2 22.71 1.05 2.02 3.47 3.05 7.2 3.05 2.07 0 3.71-.33 4.97-.95.47-.24.9-.51 1.25-.83.4-.37.73-.78.98-1.26.11-.22.19-.46.27-.7.57-1.64.5-3.7 0-5.96z"/><path fill="#404040" d="M109.2 88.06v-60.809999999999995c0-.69-.56-1.25-1.25-1.25h-64.9c-.69 0-1.25.56-1.25 1.25v28.99h-10.66c-.69 0-1.25.56-1.25 1.25v13.05c0 .69.56 1.25 1.25 1.25h10.66v42.96c0 .69.56 1.25 1.25 1.25h64.9c.69 0 1.25-.56 1.25-1.25v-8.94c.81-.63 1.47-1.4 1.95-2.32 1.76-3.41 1.11-8.6-1.95-15.43zm0 13.58c-.08.24-.16.48-.27.7-.25.48-.58.9-.98 1.26-.35.32-.78.6-1.25.83-1.25.63-2.9.95-4.97.95-3.72 0-6.15-1.03-7.2-3.05-2.78-5.36 3.52-17.06 7.2-22.71 1.49 2.28 3.4 5.56 4.97 9 .45.99.87 1.99 1.25 2.99.52 1.38.96 2.76 1.25 4.07.5 2.27.57 4.33 0 5.96zm-2.5 11.86h-3.72v-5.66c1.39-.09 2.64-.32 3.72-.69v6.35zm-26.75 0h-25.88v-2.62h25.87v2.62zm-5.7-5.12h-14.6v-29.74h14.6v29.74zm6.95 0h-4.45v-30.99c0-.69-.56-1.25-1.25-1.25h-17.1c-.69 0-1.25.56-1.25 1.25v30.99h-4.32c-.69 0-1.25.56-1.25 1.25v3.87h-7.28v-41.71h48.3c.69 0 1.25-.56 1.25-1.25v-26.1c0-.69-.56-1.25-1.25-1.25h-34.2c-.69 0-1.25.56-1.25 1.25v11.8h-12.86v-22.62h62.4v49.46c-2.02-3.66-3.85-6.27-3.94-6.41-.47-.67-1.58-.67-2.05 0-.13.18-3.19 4.56-5.79 9.98-3.61 7.53-4.49 13.2-2.6 16.83 1.38 2.65 4.13 4.1 8.17 4.35v5.66h-18.03v-3.87c0-.68-.56-1.24-1.25-1.24zm-48.81-49.64h58.96v10.55h-58.96v-10.55zm74.31-27.62h-62.4v-2.62h62.4v2.62zm-35.66 14.57h8.9v10.55h-8.9v-10.55zm11.41 0h8.9v10.55h-8.9v-10.55zm-13.91 10.55h-8.9v-10.55h8.9v10.55z"/></svg>