<svg xmlns="http://www.w3.org/2000/svg" viewBox="0 0 71 142" enable-background="new 0 0 71 142"><path fill="#DA291C" d="M43.67 79.85v12.4h1.99v-9.26c0-.35.28-.62.62-.62h4.85c.35 0 .62.28.62.62v9.26h1.99v-10.96c.01 0-10.06-1.44-10.07-1.44zm-1.54-.23l-.06-.01-.17-.09-.01-.01-.01-.01-11.48-9.02-12.03 9.4v12.38h24.06v-12.58l-.24-.04-.06-.02zm-13.51 5.28v3.05c0 .35-.28.62-.62.62h-5.2c-.34 0-.62-.28-.62-.62v-6.1c0-.35.28-.62.62-.62h5.2c.34 0 .62.28.62.62v3.05zm9.63 0v3.05c0 .35-.28.62-.62.62h-5.2c-.35 0-.62-.28-.62-.62v-6.1c0-.35.28-.62.62-.62h5.2c.35 0 .62.28.62.62v3.05z"/><path fill="#B0DFDB" d="M33.05 82.47h1.35v1.8h-1.35v-1.8zm0 3.05h1.35v1.8h-1.35v-1.8zm2.6 0h1.35v1.8h-1.35v-1.8zm0-3.05h1.35v1.8h-1.35v-1.8zm-9.63 0h1.35v1.8h-1.35v-1.8zm-2.6 3.05h1.35v1.8h-1.35v-1.8zm0-3.05h1.35v1.8h-1.35v-1.8zm2.6 3.05h1.35v1.8h-1.35v-1.8z"/><path fill="#404040" d="M37.62 81.22h-5.2c-.35 0-.62.28-.62.62v6.1c0 .35.28.62.62.62h5.2c.35 0 .62-.28.62-.62v-6.1c.01-.34-.27-.62-.62-.62zm-.62 1.25v1.8h-1.35v-1.8h1.35zm-3.95 0h1.35v1.8h-1.35v-1.8zm0 4.85v-1.8h1.35v1.8h-1.35zm2.6-1.8h1.35v1.8h-1.35v-1.8zm-7.65-4.3h-5.2c-.34 0-.62.28-.62.62v6.1c0 .35.28.62.62.62h5.2c.34 0 .62-.28.62-.62v-6.1c0-.34-.28-.62-.62-.62zm-4.58 1.25h1.35v1.8h-1.35v-1.8zm0 4.85v-1.8h1.35v1.8h-1.35zm3.95 0h-1.35v-1.8h1.35v1.8zm-1.35-3.05v-1.8h1.35v1.8h-1.35zm31.92-5.36c-.09-.19-.27-.33-.48-.36l-13.56-1.96h-.01l-4.33-3.51v-4.44c.33-.02.6-.28.6-.62 0-.33-.26-.6-.6-.62v-1.85h-1.19v-.1c0-.47.42-.86.94-.86h6.08c1.21 0 2.19-.94 2.19-2.11s-.99-2.11-2.19-2.11h-13.22c-.52 0-.94-.38-.94-.86 0-.47.42-.86.94-.86h10.81c1.21 0 2.19-.94 2.19-2.11s-.99-2.11-2.19-2.11h-7.68c-.52 0-.94-.38-.94-.86 0-.47.42-.86.94-.86h3.51c1.21 0 2.19-.94 2.19-2.11s-.99-2.11-2.19-2.11c-.35 0-.62.28-.62.62 0 .33.26.6.58.62l.04.01c.52 0 .94.38.94.86 0 .47-.42.86-.94.86h-3.51c-1.21 0-2.19.94-2.19 2.11s.99 2.11 2.19 2.11h7.68c.52 0 .94.39.94.86 0 .48-.42.86-.94.86h-10.81c-1.21 0-2.19.94-2.19 2.11s.99 2.11 2.19 2.11h13.21c.52 0 .94.39.94.86 0 .48-.42.86-.94.86h-6.07c-.55 0-1.04.2-1.43.53-.46.39-.76.95-.76 1.58v.1h-1.17v1.84h-.08c-.35 0-.62.28-.62.62s.28.62.62.62h.08v1.49l-5.15-4.17c-.23-.18-.56-.18-.78 0l-16.78 13.46c-.14.11-.23.27-.23.46-.01.17.06.35.18.47l1.62 1.62c.12.12.28.19.44.19.14 0 .27-.04.39-.13l1.49-1.16v12.03c0 .35.28.62.62.62h36.63c.35 0 .62-.28.62-.62v-11.43l1.15.17h.09c.22 0 .42-.11.53-.29l1.14-1.83c.1-.19.12-.41.03-.6zm-2.94 1.29l-.62-.09-9.74-1.38v.01l-1.05-.13-.09-.01-.44-.06-.26-.04-.07-.01-.17-.02-.13-.11-.24-.19-.29-.24.01-.01-11.11-8.72-.12-.07-.07-.04-.18-.03h-.03l-.2.03-.06.03-.14.07-12.88 10.07-1.82 1.42-.73-.74 15.83-12.7 6.1 4.95 3.06 2.48 3.29 2.67h.01l.43.32.08.06.08.06h.04l.58.08.14.02.06.01.41.05v.01l10.3 1.49 1.36.19-.42.68c0 .01-.92-.11-.92-.11zm-1.25 12.05h-1.99v-9.26c0-.35-.28-.62-.62-.62h-4.85c-.35 0-.62.28-.62.62v9.26h-1.99v-12.4l10.08 1.44c-.01 0-.01 10.96-.01 10.96zm-3.24 0h-3.59v-8.64h3.59v8.64zm-32.14-12.37l12.03-9.4 11.49 9.03.01.01.01.01.17.09.06.01.06.01.24.04v12.57h-24.08s0-12.37.01-12.37zm18.82-13.07h1.12v.59h-1.12v-.59zm1.12 1.84v3.35l-1.12-.9v-2.44c0-.01 1.12-.01 1.12-.01z"/><path fill="#765" d="M37.19 66.81h1.12v.59h-1.12v-.59zm1.12 1.84h-1.12v2.44l1.12.9v-3.34zm5.15 9.15l-13.07-10.55-15.83 12.7.73.74 14.71-11.49.14-.07.06-.03.2-.03h.01l.18.03.07.04.12.07 11.78 9.28 13.36 1.86.42-.67-12.88-1.88zm3.46 5.81h3.59v8.64h-3.59v-8.64z"/></svg>