<svg xmlns="http://www.w3.org/2000/svg" viewBox="0 0 71 142" enable-background="new 0 0 71 142"><path fill="#fff" d="M30.23 54.64v-1.73h-10.25v10.47h8.56l-1-5.81-.01-.06c-.05-.76.2-1.49.73-2.04.51-.54 1.23-.84 1.97-.83zm-8.4 4.82c-.16 0-.32-.06-.44-.19-.25-.24-.25-.64 0-.88l3.56-3.56c.25-.25.64-.25.89 0 .25.24.25.64 0 .88l-3.56 3.56c-.13.13-.29.19-.45.19zm4.55-.18l-1.57 1.57c-.12.12-.28.18-.44.18s-.32-.06-.44-.18c-.25-.25-.25-.64 0-.89l1.57-1.57c.25-.25.64-.25.89 0 .23.25.23.64-.01.89z"/><path fill="#E6D1B8" d="M33.38 55.12v-5.37h-16.54v16.79h12.26l-.33-1.91h-9.41c-.34 0-.62-.28-.62-.62v-11.72c0-.35.28-.62.62-.62h11.5c.34 0 .62.28.62.62v2.53c.6.1 1.23.2 1.9.3zm-.98 37.13h1.03l1.33-5.82h-2.36v5.82zm14.6-5.82l1.33 5.82h1.03v-5.82h-2.36z"/><path fill="#DA291C" d="M30.93 69.87c.86.57 1.43 1.58 1.43 2.7v3.13c2.6-.91 5.61-1.41 8.51-1.41 3.05 0 6.05.44 8.51 1.24v-2.95c0-1.12.57-2.12 1.43-2.69l2.16-12.47c.02-.4-.12-.78-.39-1.07-.33-.35-.81-.51-1.28-.42-1.4.26-3.13.54-4.96.76v3.44c0 1-.67 1.85-1.64 2.07l-1.04.24c-.91.21-1.85.31-2.78.31s-1.87-.1-2.78-.31l-1.04-.24c-.97-.22-1.64-1.07-1.64-2.07v-3.44c-.26-.03-.53-.06-.78-.1l-.62-.08-.62-.11c-.67-.1-1.3-.2-1.9-.31l-.62-.11-.4-.07-.23-.01c-.4-.01-.78.14-1.06.44-.27.29-.41.67-.39 1.07 0 0 2.14 12.46 2.13 12.46zm22.58 1.12c-.36-.27-.79-.39-1.25-.35-.11.01-.22.04-.31.07-.27.08-.51.24-.71.43-.36.35-.6.87-.6 1.43v3.47l.34.23c.88.67 1.48 1.66 1.64 2.77l1.49-6.14c.17-.74-.07-1.5-.6-1.91zm-22.4 5.28v-3.7c0-.56-.23-1.06-.59-1.42-.2-.2-.44-.36-.71-.44-.1-.03-.2-.06-.32-.06-.46-.04-.89.08-1.25.35-.53.4-.77 1.17-.6 1.9l1.6 6.64c.07-1.21.64-2.31 1.56-3.04l.31-.23zm19.54 1.37c-.14-.15-.29-.29-.46-.4l-.17-.11c-.13-.08-.27-.15-.42-.21l-.15-.07-.06-.02c-2.41-.83-5.43-1.29-8.51-1.29-2.91 0-5.92.53-8.48 1.47l-.03.01-.17.09c-.16.07-.31.16-.45.26l-.12.09c-.19.15-.35.32-.5.51l-.03.05c-.43.59-.65 1.33-.56 2.11v.05l.2 5.01h20.32l.37-5.4c.04-.75-.22-1.47-.69-2.03l-.09-.12zm-13.32-16.69l1.04.24c1.64.37 3.37.37 5.01 0l1.04-.24c.38-.08.67-.44.67-.84v-4.14c0-.17-.06-.31-.17-.42-.1-.1-.24-.17-.39-.17h-7.3c-.15 0-.29.07-.39.17-.1.1-.17.25-.17.42v4.14c0 .4.28.75.66.84z"/><path fill="#404040" d="M25.83 54.83c-.25-.25-.64-.25-.89 0l-3.56 3.56c-.25.24-.25.64 0 .88.12.12.28.19.44.19s.32-.06.44-.19l3.56-3.56c.25-.24.25-.63.01-.88zm-.33 3.56l-1.57 1.57c-.25.25-.25.64 0 .89.12.12.28.18.44.18s.32-.06.44-.18l1.57-1.57c.25-.25.25-.64 0-.89-.24-.25-.64-.25-.88 0zm28.76 11.61c-.6-.46-1.33-.67-2.1-.6l2.04-11.82.01-.07c.05-.76-.21-1.49-.72-2.04-.62-.66-1.54-.97-2.42-.81-1.37.25-3.06.52-4.83.74-.24-.74-.92-1.27-1.72-1.27h-7.29c-.81 0-1.49.54-1.72 1.27l-.88-.11v-6.18c0-.35-.28-.62-.62-.62h-17.8c-.35 0-.62.28-.62.62v18.04c0 .35.28.62.62.62h13.1l.28 1.61c-.77-.06-1.5.14-2.09.6-.94.71-1.35 1.96-1.06 3.19l3.09 12.75.02.06.03.09.08.11.06.06.12.08.07.03.22.04h1.03v6.46c0 .35.28.62.62.62h2.15c.29 0 .54-.2.61-.49l1.5-6.59h9.67l1.5 6.59c.06.29.32.49.61.49h2.15c.35 0 .62-.28.62-.62v-6.46h1.03l.22-.04.06-.03.12-.08.06-.06.08-.11.03-.08.03-.07 3.08-12.75c.32-1.21-.1-2.46-1.04-3.17zm-.15 2.9l-1.49 6.14c-.16-1.11-.76-2.11-1.64-2.77l-.34-.23v-3.48c0-.56.23-1.06.6-1.42.2-.2.44-.36.71-.44l.31-.06c.46-.04.89.08 1.25.36.53.4.77 1.17.6 1.9zm-4.76 19.35h-1.03l-1.32-5.82h2.35v5.82zm-21.7-19.35c-.17-.73.07-1.5.6-1.9.36-.27.79-.39 1.25-.35l.32.07c.27.08.51.24.71.43.36.35.59.87.59 1.43v3.7l-.3.22c-.92.74-1.5 1.84-1.56 3.04 0-.01-1.61-6.65-1.61-6.64zm1.13-15.5c-.02-.4.12-.78.39-1.07.27-.29.67-.45 1.06-.44l.23.01.4.07.62.11c.59.1 1.23.21 1.9.31l.62.09.62.08.78.1v3.44c0 1 .67 1.85 1.64 2.06l1.04.24c.91.2 1.85.31 2.78.31s1.87-.11 2.78-.31l1.04-.24c.97-.22 1.64-1.06 1.64-2.06v-3.44c1.83-.22 3.56-.5 4.96-.76.47-.08.96.08 1.28.42.27.29.41.67.39 1.07l-2.16 12.47c-.86.57-1.43 1.57-1.43 2.69v2.95c-2.47-.79-5.46-1.24-8.51-1.24-2.9 0-5.91.5-8.51 1.41v-3.13c0-1.12-.57-2.12-1.43-2.69.01.01-2.13-12.45-2.13-12.45zm-11.95 9.14v-16.79h16.54v5.38c-.67-.1-1.31-.2-1.9-.31v-2.53c0-.35-.28-.62-.62-.62h-11.5c-.34 0-.62.28-.62.62v11.72c0 .34.28.62.62.62h9.41l.33 1.91h-12.26zm10.7-9.03l.01.07 1 5.81h-8.57v-10.48h10.25v1.72c-.74 0-1.46.3-1.98.84-.5.56-.76 1.28-.71 2.04zm9.14-1.54c0-.17.06-.31.17-.42.1-.1.24-.17.39-.17h7.3c.15 0 .29.07.39.17.1.1.17.25.17.42v4.14c0 .4-.28.76-.67.84l-1.04.24c-1.64.37-3.37.37-5.01 0l-1.04-.24c-.38-.08-.67-.44-.67-.84l.01-4.14zm-4.27 36.28v-5.83h2.35l-1.33 5.83h-1.02zm-1.67-7.07l-.2-5.01v-.05c-.09-.77.12-1.52.56-2.1l.03-.05c.15-.19.31-.36.5-.51l.12-.09c.14-.1.29-.19.45-.26l.17-.08.03-.01c2.56-.95 5.57-1.47 8.48-1.47 3.08 0 6.1.46 8.51 1.29l.06.02.15.06c.15.06.28.13.42.22l.17.11c.17.12.33.25.46.4l.08.1c.47.56.73 1.28.69 2.04l-.37 5.39h-20.31z"/></svg>