<svg xmlns="http://www.w3.org/2000/svg" viewBox="0 0 71 142" enable-background="new 0 0 71 142"><path fill="#EFE8DF" d="M49.55 54.98c-.17 0-.33-.06-.44-.19-.12-.11-.19-.27-.19-.44v-4.6h-21.77v3.17h12.55l.04.01.17.03.06.03.14.1.04.03.01.01 4.78 5.23.1.17.01.04.03.17.01.03v29.07h8.61v-32.87l-4.15.01zm.62-4.24v2.99l2.74-.01-2.74-2.98z"/><path fill="#fff" d="M39.69 59.4c-.35 0-.62-.28-.62-.62v-4.6h-21.78v38.08h26.56v-32.86h-4.16zm.97 15.61c0 .21-.11.41-.29.53-.1.06-.22.1-.33.1-.09 0-.19-.02-.27-.06l-1.81-.86-2.44 5.12c-.15.31-.52.44-.83.29l-3.65-1.74-2.43 5.1c-.07.15-.2.26-.35.32-.16.06-.33.04-.48-.03l-.63-.3-.62-.3-.62-.3-1.78-.85-2.45 5.14c-.1.23-.33.36-.57.36-.09 0-.18-.02-.27-.06-.31-.15-.44-.52-.3-.83l2.73-5.71c.15-.31.52-.44.83-.29l1.81.87.62.3.62.3.6.29 2.43-5.1c.07-.15.2-.26.35-.32.16-.05.33-.04.48.03l3.64 1.74 2.17-4.57-1.82-.87c-.19-.1-.33-.28-.35-.49-.03-.21.06-.43.22-.56l4.76-3.86c.19-.15.44-.19.67-.08.22.1.35.32.35.56l.01 6.13zm-.35-19.86v2.99h2.74l-2.74-2.99z"/><path fill="#A8C432" d="M38.88 70.62l-.58.47-1.85 1.5.92.44 1.13.54.92.44v-3.83l-.54.44z"/><path fill="#404040" d="M54.95 54.32l-.03-.17-.02-.05-.11-.17-4.78-5.23-.01-.01-.04-.04-.13-.09-.06-.03-.16-.03-.04-.01h-23.04c-.34 0-.62.28-.62.62v3.79h-9.23c-.34 0-.62.28-.62.62v39.33c0 .35.28.62.62.62h27.81c.35 0 .62-.28.62-.62v-3.79h9.24c.35 0 .62-.28.62-.62v-34.09l-.02-.03zm-1.24 33.51h-8.61v-29.06l-.01-.03-.03-.18-.01-.04-.1-.15-.01-.01-4.78-5.23-.01-.01-.04-.03-.14-.1-.06-.02-.17-.03-.04-.01h-12.55v-3.15h21.78v4.61c0 .17.06.32.19.44.12.12.28.19.44.19l4.16-.01c-.01-.03-.01 32.83-.01 32.82zm-9.86 1.25v3.17h-26.56v-38.08h21.78v4.6c0 .34.28.62.62.62h4.16v29.69zm-3.54-30.94v-2.99l2.74 2.99h-2.74zm9.86-4.41v-2.99l2.74 2.99h-2.74zm-9.86 14.58c-.22-.11-.47-.08-.67.08l-4.76 3.86c-.17.14-.25.35-.22.56.03.21.16.4.35.49l1.82.87-2.17 4.56-3.65-1.73c-.15-.07-.32-.08-.48-.03-.16.06-.28.17-.35.32l-2.42 5.1-.6-.29-.62-.3-.62-.3-1.81-.87c-.31-.15-.68-.01-.83.29l-2.73 5.71c-.15.31-.01.68.3.83.08.04.18.06.27.06.24 0 .45-.13.57-.36l2.45-5.14 1.78.85.62.3.62.3.63.3c.15.07.32.08.48.03.16-.06.28-.17.35-.32l2.43-5.1 3.64 1.74c.31.15.69.01.83-.29l2.44-5.12 1.81.87c.08.04.18.06.27.06.12 0 .23-.03.33-.1.18-.12.29-.32.29-.53v-6.14c0-.24-.14-.46-.35-.56zm-1.43 2.31l.53-.44v3.83l-.91-.44-1.12-.54-.92-.45 1.85-1.5s.57-.47.57-.46z"/></svg>