<svg xmlns="http://www.w3.org/2000/svg" viewBox="0 0 71 142" enable-background="new 0 0 71 142"><path d="M20.03 73.78c-2.01 0-3.63 1.63-3.63 3.63s1.63 3.63 3.63 3.63 3.63-1.63 3.63-3.63-1.62-3.63-3.63-3.63zm29.15 7.26c2.01 0 3.63-1.63 3.63-3.63s-1.63-3.63-3.63-3.63c-2.01 0-3.63 1.63-3.63 3.63s1.63 3.63 3.63 3.63z" fill="none"/><circle fill="#fff" cx="24.44" cy="64.18" r=".66"/><path fill="#666" d="M49.18 71.65c-.51 0-1.01.07-1.48.2l-.49 1.1c.6-.27 1.28-.42 1.97-.42 2.69 0 4.88 2.19 4.88 4.88s-2.19 4.88-4.88 4.88c-2.51 0-4.58-1.9-4.85-4.35l-.86.19c.36 2.83 2.78 5.03 5.71 5.03 3.17 0 5.76-2.58 5.76-5.76s-2.58-5.76-5.76-5.75zm-2.19-1.27l-6.89 3.37c-.25.12-.55.06-.74-.14l-1.6-1.76c-.13-.14-.19-.34-.15-.53s.15-.36.33-.44c3.25-1.71 10.73-5.79 10.73-5.79.53-.29 1.04-.58 1.52-.85l-.85.22c-.56.15-1.09.21-1.68.22-.28 0-.53-.01-.8-.03-.24-.01-.49-.03-.74-.03-.49 0-.9.05-1.36.17-1.12.28-4.35 2.21-5.5 2.92-.12.08-.26.11-.4.09l-16.39-1.92c-.2-.03-.37-.14-.47-.31-.1-.17-.11-.38-.03-.56l2.14-4.8c-2.36 2.27-3.24 5.09-3.53 6.31l15.69 1.92c.26.03.47.22.53.47s-.03.51-.24.66l-2.77 1.98 5.77 5.92.2.21 4.35-.97c.32-.68 2.82-6.2 2.88-6.33zm7.7-2.89l-1.48.38 1.88 1.34-.4-1.72zm-33.04 4.39c-.17-.05-.33-.1-.51-.13-.35-.07-.73-.11-1.1-.11-3.17 0-5.76 2.58-5.76 5.76s2.59 5.76 5.76 5.76c2.12 0 3.98-1.16 4.98-2.88.28-.49.5-1.01.62-1.58.1-.42.16-.86.16-1.31 0-1.01-.26-1.97-.73-2.8-.73-1.29-1.96-2.27-3.42-2.71zm-1.62 10.41c-2.69 0-4.88-2.19-4.88-4.88s2.19-4.88 4.88-4.88c2.33 0 4.28 1.64 4.76 3.82.08.34.12.69.12 1.06 0 .17-.01.35-.03.51-.25 2.45-2.32 4.37-4.85 4.37z"/><path fill="#DA291C" d="M32.98 63.6c-1.95 0-3.68.85-4.67 1.71l9.91 1.16c-.42-1.29-2.49-2.87-5.24-2.87zm23.07 4.22l.3-.07.26 1.11-.3.07-.26-1.11zm-16.72 11.31l-.07-.13-.01-.03-.09-.11-.16-.17-6.6-6.79c-.12-.13-.19-.31-.17-.49.01-.18.11-.35.26-.46l2.06-1.47-14.77-1.8-.06-.02c-.15-.03-.27-.11-.36-.22-.1-.13-.15-.3-.12-.47v-.03c.02-.19.22-1.41.88-2.99.36-.88.86-1.85 1.57-2.83-.19.15-.36.31-.53.46-.57.5-1.06 1.03-1.48 1.58-.65.85-1.12 1.76-1.43 2.74l-.07.25c-.19.76-.28 1.5-.32 1.97v.16l1.14.77.03.03.11.07 1.08.7.7.46.3.2c.17.03.35.06.52.11l.33.08.47.17.07.03.16.06c.47.19.9.44 1.31.74 1.8 1.27 2.97 3.36 2.97 5.72 0 .95-.19 1.85-.53 2.68h12.12c.23-.01.42-.07.56-.17l.05-.04c.06-.05.1-.12.13-.19.05-.13.04-.28-.01-.44l-.04-.13z"/><path fill="#404040" d="M57.96 69.19l-.53-2.33c-.08-.33-.42-.54-.75-.47l-.49.11-.01-.03c-.03-.16-.14-.31-.28-.39-.15-.09-.32-.11-.49-.07l-3.53.92-1.72-1.23c2.38-1.33 4.28-2.45 4.69-2.85.21-.2.26-.52.1-.77-.15-.25-.46-.36-.74-.27-.92.31-2.67.8-5.19 1.46-.46.12-.88.17-1.37.17-.25 0-.49-.01-.73-.02-.26-.01-.53-.03-.81-.03-.58 0-1.11.07-1.66.2-1.15.28-3.69 1.75-5.03 2.57-.62-2.19-3.74-3.79-6.45-3.79-2.68 0-5.15 1.36-6.2 2.78l-.64-.08c.14-.26.22-.56.22-.87 0-1.02-.8-1.84-1.8-1.9l1.7-3.82.01-.04.02-.07.01-.14v-.07l-.04-.17v-.04l-.1-.16-.01-.01-.05-.03-.12-.08-.07-.03-.13-.03h-.08l-.16.02-.04.01c-.08.02-6.36 2.07-8.34 7.56l-.02.03c-.05.14-.09.28-.12.42-.26.85-.42 1.78-.44 2.78l-.01.22v.02l.03.17v.02l.01.03.07.12.02.04.01.01.13.11h.01l2.06 1.34c-3.34.54-5.89 3.43-5.89 6.91 0 3.86 3.15 7.01 7.01 7.01 2.41 0 4.54-1.22 5.8-3.08h12.76c.91 0 1.66-.46 1.95-1.2.17-.43.16-.9 0-1.35l1.71-.38c.49 3.39 3.4 6.01 6.93 6.01 3.87 0 7.01-3.15 7.01-7.01s-3.15-7.01-7.01-7.01c-.29 0-.58.03-.86.06l.1-.21c.08-.19.29-.69.02-1.1-.15-.22-.4-.35-.69-.35-.23 0-.5.08-.86.26l-6.92 3.39-.74-.82c1.79-.95 6.08-3.22 9.72-5.25l7.24 5.17c.11.08.24.11.37.11h.02l.19-.04.06-.03.13-.09.08-.09.01-.01.01-.01.09-.2.01-.03.03-.12-.02-.1-.01-.02-.03-.12-.16-.72.51-.12c.35-.1.56-.44.49-.78zm-17.86 4.57l6.89-3.38-2.87 6.32-4.35.97-5.97-6.13 2.77-1.98c.21-.15.31-.42.24-.67s-.28-.43-.53-.46l-15.69-1.92c.28-1.23 1.17-4.04 3.53-6.31l-2.14 4.8c-.08.18-.07.39.03.57.1.17.27.29.47.31l16.38 1.92c.14.01.28-.01.4-.09 1.15-.72 4.38-2.64 5.5-2.92.46-.11.88-.17 1.36-.17.26 0 .5.01.74.03.26.01.53.03.8.03.59 0 1.12-.07 1.68-.22l.85-.22c-.47.27-9.01 4.93-12.25 6.64-.17.09-.29.26-.33.44s.03.39.15.53l1.6 1.76c.19.21.49.27.74.15zm14.84 3.64c0 3.18-2.58 5.76-5.76 5.76-2.93 0-5.35-2.2-5.71-5.03l.86-.19c.27 2.44 2.34 4.35 4.85 4.35 2.69 0 4.88-2.19 4.88-4.88s-2.19-4.88-4.88-4.88c-.71 0-1.37.15-1.97.42.17-.39.35-.76.49-1.1.47-.12.97-.2 1.48-.2 3.18 0 5.76 2.58 5.76 5.75zm-5.76-3.62c2.01 0 3.63 1.63 3.63 3.63s-1.63 3.63-3.63 3.63c-2.01 0-3.63-1.63-3.63-3.63s1.63-3.63 3.63-3.63zm-22.67 6.31c.34-.82.53-1.73.53-2.68 0-2.36-1.17-4.45-2.97-5.72-.41-.29-.84-.54-1.31-.74l-.16-.06-.07-.03-.47-.17c-.1-.04-.22-.06-.33-.08l-.52-.11-.3-.2-3.09-2v-.16c.03-.47.12-1.21.32-1.97l.07-.25c.31-.98.78-1.89 1.43-2.74.42-.56.91-1.08 1.48-1.58.17-.16.34-.32.53-.46-.7.98-1.2 1.96-1.57 2.83-.66 1.58-.84 2.79-.88 2.99v.03c-.02.17.02.33.12.47.09.11.22.19.36.22l.06.02 14.77 1.8-2.06 1.47c-.15.11-.24.27-.26.46-.01.18.05.36.17.49l6.61 6.79.15.17.09.11.01.03.07.13.04.11c.05.15.06.31.01.44l-.13.19-.05.04c-.13.1-.33.17-.56.18h-.04l-12.05-.02zm-6.48 3.08c-3.17 0-5.76-2.58-5.76-5.76s2.59-5.76 5.76-5.76c.38 0 .75.04 1.1.11 1.69.33 3.11 1.39 3.93 2.85.47.83.73 1.79.73 2.8 0 .45-.06.88-.16 1.3-.13.57-.34 1.1-.62 1.58-1 1.72-2.85 2.87-4.98 2.88zm5.07-18.99c0 .36-.3.66-.66.66s-.66-.29-.66-.66.3-.66.66-.66.66.3.66.66zm7.88-.58c2.76 0 4.83 1.58 5.24 2.87l-9.91-1.16c.98-.87 2.72-1.71 4.67-1.71zm21.71 3.89l.4 1.72-1.88-1.34 1.48-.38zm1.62 1.44l-.26-1.11.3-.07.26 1.11-.3.07zm-36.28 3.6c-2.69 0-4.88 2.19-4.88 4.88s2.19 4.88 4.88 4.88c2.52 0 4.59-1.92 4.85-4.37.02-.17.03-.34.03-.51 0-.37-.05-.72-.12-1.06-.48-2.18-2.43-3.82-4.76-3.82zm0 8.51c-2.01 0-3.63-1.63-3.63-3.63s1.63-3.63 3.63-3.63 3.63 1.63 3.63 3.63-1.62 3.63-3.63 3.63z"/></svg>