<svg xmlns="http://www.w3.org/2000/svg" viewBox="0 0 71 142" enable-background="new 0 0 71 142"><path d="M51.32 79.69h-5.2c.28 1.17 1.34 2.05 2.6 2.05s2.32-.88 2.6-2.05zm-32.7-3.23c-1.17.29-2.05 1.34-2.05 2.6 0 1.48 1.2 2.68 2.68 2.68 1.48 0 2.68-1.21 2.68-2.68 0-.31-.07-.6-.16-.88l-.97 1.74c-.32.57-.92.93-1.58.93-.31 0-.6-.08-.87-.22-.87-.48-1.18-1.57-.7-2.44.02 0 .97-1.73.97-1.73z" fill="none"/><path fill="#fff" d="M24.67 60.31v-1.43c-.36.12-.58.38-.58.71.01.34.22.59.58.72zm3.59 1.29l-9.5 17.2c-.15.26-.05.6.22.74.08.04.17.07.26.07.19 0 .38-.11.48-.29l9.8-17.73c0 .01-1.26.01-1.26.01z"/><path fill="#B0DFDB" d="M46.62 68.65h-9.42c-.08 0-.28.01-.28.17l.05.11c.06.06.17.09.31.09 3.56 0 3.69 2.5 3.69 2.53v4.53c0 .35-.28.62-.62.62h-6.33c-1.82 0-3.94-.86-3.94-3.27v-7.67c-.1-.35-.48-.72-.86-1l-3.9 7.05c.39 4.99 4.6 6.63 6.7 6.63h24.35c-4.79-9.5-9.25-9.79-9.75-9.79zm-19.55-8.15l.08-.06c.1-.07.23-.1.34-.1h4.07v-1.51h-4.09c-.16 0-.31-.06-.43-.17l-.08-.08c-.29-.25-.66-.46-1.04-.57v3.13c.39-.12.77-.33 1.07-.59l.08-.05z"/><path fill="#765" d="M48.72 82.99c-1.96 0-3.58-1.43-3.88-3.3h-1.08c.31 2.47 2.42 4.38 4.97 4.38s4.66-1.92 4.97-4.39h-1.1c-.3 1.88-1.92 3.31-3.88 3.31zm-26.2-6.13c.42.63.67 1.38.67 2.2 0 2.17-1.76 3.94-3.93 3.94s-3.93-1.76-3.93-3.94c0-2.17 1.76-3.93 3.93-3.93l.1.01.57-1.03c-.22-.03-.44-.05-.67-.05-2.76.01-5.01 2.25-5.01 5.01s2.25 5.01 5.01 5.01 5.01-2.25 5.01-5.01c0-1.23-.45-2.36-1.18-3.23 0-.01-.57 1.02-.57 1.02zm27.16-9.46c.51 0 .94-.31.94-.67v-.39c0-.36-.43-.68-.94-.68h-13.19c-.51 0-.94.31-.94.68v.39c0 .36.43.67.94.67h13.19z"/><path fill="#404040" d="M57.94 78.79c-2.85-5.97-5.7-8.82-7.85-10.18 1.01-.17 1.78-.95 1.78-1.88v-.39c0-1.06-.98-1.93-2.19-1.93h-13.19c-1.21 0-2.19.87-2.19 1.93v.39c0 .82.58 1.5 1.39 1.79-.03.1-.04.2-.04.3 0 .39.16.76.44 1.02.21.19.58.43 1.17.43 2.28 0 2.43 1.19 2.44 1.29v3.88h-5.7c-.63 0-2.69-.14-2.69-2.02v-7.74l-.01-.12c-.17-.85-.9-1.51-1.49-1.92l1.09-1.96.04-.1h1.26c.35 0 .62-.28.62-.62v-2.76c0-.34-.28-.62-.62-.62h-4.48c-.68-.56-1.59-.9-2.41-.9-.34 0-.62.28-.62.62v.28c-1.25.23-1.83 1.15-1.83 2.01s.58 1.78 1.83 2.01v.28c0 .35.28.62.62.62.38 0 .76-.08 1.15-.21l-5.89 10.65c-.42-.09-.86-.14-1.31-.14-3.45 0-6.26 2.81-6.26 6.26 0 3.46 2.81 6.26 6.26 6.26 3.45 0 6.26-2.81 6.26-6.26 0-1.71-.69-3.25-1.8-4.39l.6-1.1c1.17 4.55 5.45 6.1 7.69 6.1h10.49c.31 3.16 2.99 5.64 6.23 5.64s5.92-2.47 6.23-5.64h2.42c.22 0 .42-.11.53-.29.11-.17.12-.39.03-.59zm-22.38-12.05v-.39c0-.37.43-.68.94-.68h13.19c.51 0 .94.31.94.68v.39c0 .36-.43.67-.94.67h-13.2c-.5-.01-.93-.31-.93-.67zm-10.89-6.44c-.36-.12-.58-.38-.58-.72 0-.34.21-.59.58-.72v1.44zm1.25.86v-3.13c.38.11.75.31 1.04.56l.08.08c.11.11.27.17.43.17h4.09v1.51h-4.06c-.12 0-.25.03-.34.1l-.08.06-.08.06c-.3.26-.68.47-1.08.59zm-1.65 17.9c0 2.76-2.25 5.01-5.01 5.01s-5.01-2.25-5.01-5.01 2.25-5.01 5.01-5.01c.23 0 .45.02.67.05l-.57 1.03h-.1c-2.17 0-3.93 1.76-3.93 3.94 0 2.17 1.76 3.93 3.93 3.93s3.93-1.76 3.93-3.93c0-.82-.25-1.57-.67-2.2l.57-1.03c.74.86 1.18 1.99 1.18 3.22zm-5.89 1.58c.26.15.57.22.87.22.66 0 1.26-.36 1.58-.93l.97-1.74c.09.27.16.56.16.88 0 1.48-1.2 2.68-2.68 2.68s-2.68-1.21-2.68-2.68c0-1.26.88-2.31 2.05-2.6l-.95 1.73c-.51.86-.19 1.96.68 2.44zm1.35-1.31c-.1.18-.29.28-.48.28-.09 0-.18-.02-.26-.07-.26-.15-.36-.48-.22-.74l9.5-17.2h1.25l-9.79 17.73zm28.99 4.74c-2.55 0-4.66-1.92-4.97-4.39h1.09c.3 1.87 1.92 3.31 3.88 3.31s3.58-1.43 3.88-3.31h1.09c-.31 2.47-2.42 4.39-4.97 4.39zm-2.6-4.38h5.21c-.28 1.17-1.34 2.06-2.6 2.06-1.27-.01-2.32-.89-2.61-2.06zm-14.1-1.25c-2.1 0-6.32-1.65-6.7-6.64l3.9-7.05c.39.29.76.65.86 1.01v7.66c0 2.42 2.13 3.27 3.94 3.27h6.33c.35 0 .62-.28.62-.62v-4.53c0-.03-.12-2.53-3.69-2.53-.15 0-.26-.03-.31-.09l-.05-.12c0-.15.19-.17.28-.17h9.42c.51 0 4.97.28 9.76 9.78h-24.36v.03z"/></svg>