<svg xmlns="http://www.w3.org/2000/svg" viewBox="0 0 71 142" enable-background="new 0 0 71 142"><path fill="#666" d="M31.55 49.75h7.81v1.06h-7.81v-1.06zm-1.8 42.5c.64 0 1.17-.46 1.3-1.06h-2.59c.12.6.65 1.06 1.29 1.06zm11.31 0c.64 0 1.17-.46 1.29-1.06h-2.6c.13.6.66 1.06 1.31 1.06z"/><path fill="#DA291C" d="M43.79 66.41h-9.22l2.4 2.4c.12.11.19.27.19.44s-.06.33-.19.44l-2.38 2.39c-.12.12-.28.19-.44.19s-.32-.06-.44-.19l-4.58-4.58c-.25-.25-.25-.64 0-.89l.21-.21h-2.11c-.94 0-1.7.76-1.7 1.71v20.11c0 .94.76 1.71 1.7 1.71h16.57c.94 0 1.71-.76 1.71-1.71v-20.11c-.01-.94-.78-1.7-1.72-1.7z"/><path fill="#fff" d="M30.45 67.06l1.5-1.5 3.7 3.7-1.5 1.5-3.7-3.7z"/><path fill="#404040" d="M43.79 65.16h-3.18v-16.04c0-.35-.28-.62-.62-.62h-9.06c-.34 0-.62.28-.62.62v16.04h-3.08c-1.63 0-2.95 1.32-2.95 2.95v20.11c0 1.62 1.32 2.95 2.95 2.96.14 1.29 1.22 2.32 2.55 2.32 1.33 0 2.41-1.02 2.55-2.32h6.2c.13 1.29 1.22 2.32 2.55 2.32 1.33 0 2.42-1.02 2.55-2.32h.19c1.63 0 2.95-1.32 2.95-2.96v-20.11c-.03-1.62-1.35-2.95-2.98-2.95zm1.71 23.07c0 .94-.76 1.71-1.71 1.71h-16.58c-.94 0-1.7-.76-1.7-1.71v-20.12c0-.94.76-1.71 1.7-1.71h2.11l-.21.21c-.25.25-.25.64 0 .89l4.58 4.58c.12.12.28.18.44.18s.32-.06.44-.18l2.38-2.38c.12-.12.19-.28.19-.44 0-.17-.06-.32-.19-.44l-2.4-2.4h9.23c.94 0 1.71.76 1.71 1.71v20.1h.01zm-5.74 2.95h2.6c-.12.6-.65 1.06-1.29 1.06-.65.01-1.19-.45-1.31-1.06zm-11.3 0h2.59c-.12.6-.66 1.06-1.3 1.06-.64.01-1.17-.45-1.29-1.06zm1.99-24.12l.48-.47.17-.18.45-.45.17-.18.23-.22.23.22.62.62 2.85 2.85-1.5 1.5-3.02-3.02-.68-.67zm8.91-1.9h-6.04l-.92-.92c-.24-.24-.6-.24-.85-.03v-12.15h7.81v13.1zm0-14.35h-7.81v-1.06h7.81v1.06z"/></svg>