<svg xmlns="http://www.w3.org/2000/svg" viewBox="0 0 71 142" enable-background="new 0 0 71 142"><path fill="#A8C432" d="M40.08 80.79h13.63v3.3h-13.64l.01-3.3zm-15.02.32c0 1.16-.47 2.21-1.23 2.98h8.6v-3.3h-7.39l.02.32zm-3.22-4.87v.76c1.33.33 2.42 1.28 2.92 2.53h10.72v-3.29h-13.64zm21.28 0h13.63v3.3h-13.64l.01-3.3z"/><path fill="#E6D1B8" d="M36.72 76.24h5.15v3.3h-5.15v-3.3zm-3.04 4.55h5.14v3.3h-5.14v-3.3z"/><path fill="#ccc" d="M23.09 70.13h7.92v1.81h-7.92v-1.81zm0 4.86h7.92v-1.8h-7.92v1.8zm12.24 0h7.92v-1.8h-7.92v1.8zm0-4.86h7.92v1.81h-7.92v-1.81zm0-3.05h7.92v1.8h-7.92v-1.8zm0-3.06v1.81h7.92v-1.81h-7.92zm-1.39-3.05h7.92v1.81h-7.92v-1.81zm1.39-3.06h7.92v1.81h-7.92v-1.81zm12.28 17.08h7.92v-1.8h-7.92v1.8zm0-4.86h7.92v1.81h-7.92v-1.81zm0-3.05h7.92v1.8h-7.92v-1.8zm-23.95 13.09c-.08-.22-.17-.43-.3-.62-.35-.56-.89-1-1.52-1.23-.2-.07-.41-.12-.62-.15l-.38-.03-.25.01-.31.04c.11.12.22.24.31.37.23.3.42.63.57.99l.06.17c.06.15.1.31.14.46.05.21.08.41.09.62l.01.32c0 1.13-.45 2.17-1.18 2.93.18.03.36.05.56.05 1.64 0 2.98-1.33 2.98-2.98l-.02-.32c-.03-.23-.08-.43-.14-.63zm-3.61 0c-.08-.22-.17-.43-.3-.62-.19-.31-.43-.58-.73-.79-.17-.14-.36-.25-.57-.34-.22-.1-.44-.17-.67-.21-.18-.04-.36-.06-.56-.06-1.64 0-2.98 1.33-2.98 2.98 0 1.64 1.34 2.98 2.98 2.98l.32-.01.24-.04c.13-.02.26-.06.39-.1l.29-.12.33-.18.24-.16c.72-.54 1.17-1.4 1.17-2.37l-.02-.32c-.02-.24-.06-.44-.13-.64z"/><path fill="#404040" d="M57.38 74.99h-.58v-8.54c0-.35-.28-.62-.62-.62h-9.18c-.35 0-.62.28-.62.62v8.54h-1.85v-11.6c0-.34-.28-.62-.62-.62h-.76v-1.81h.76c.35 0 .62-.28.62-.62v-3.06c0-.34-.28-.62-.62-.62h-9.18c-.35 0-.62.28-.62.62v2.43h-.77c-.35 0-.62.28-.62.62v3.06c0 .35.28.62.62.62h.77v10.97h-1.81v-5.48c0-.35-.28-.62-.62-.62h-9.18c-.34 0-.62.28-.62.62v5.49h-.62c-.34 0-.62.28-.62.62v1.28c-.56.03-1.08.17-1.56.4-.55-.26-1.16-.41-1.8-.41-2.33 0-4.23 1.9-4.23 4.23 0 2.33 1.9 4.23 4.23 4.23h37.1c.35 0 .62-.28.62-.62v-3.93h2.42c.35 0 .62-.28.62-.62v-4.55c-.04-.35-.32-.63-.66-.63zm-33.55 9.1c.76-.76 1.23-1.81 1.23-2.98l-.01-.32h7.38v3.3h-8.6zm-6.04-5.9c.24.04.46.12.67.21.2.1.4.21.57.34.28.22.53.49.73.79.12.2.22.4.3.62.07.2.11.41.14.62l.02.32c0 .96-.47 1.82-1.17 2.36l-.24.16-.33.18-.29.11c-.12.04-.25.08-.39.1l-.24.04-.32.01c-1.64 0-2.98-1.34-2.98-2.98s1.34-2.98 2.98-2.98l.55.1zm2.8-.04l.25-.01.38.03c.22.03.42.08.62.15.64.23 1.17.67 1.52 1.23.12.19.22.4.3.62.07.2.11.41.14.62l.02.32c0 1.64-1.33 2.98-2.98 2.98-.19 0-.38-.02-.56-.06.73-.76 1.18-1.79 1.18-2.93l-.01-.32c-.01-.22-.05-.42-.09-.62-.03-.15-.08-.31-.14-.46l-.06-.16c-.15-.36-.33-.69-.57-.99l-.31-.37.31-.03zm10.43-6.21h-7.92v-1.81h7.92v1.81zm-7.93 3.06v-1.81h7.92v1.81h-7.92zm-1.25 1.25h13.64v3.29h-10.72c-.5-1.25-1.58-2.21-2.92-2.53v-.76zm12.1-15.28h7.93v1.81h-7.93v-1.81zm1.39-3.06h7.92v1.81h-7.92v-1.81zm7.16 6.11h.76v1.81h-7.92v-1.81h7.16zm13.05 7.92h-7.92v-1.81h7.92v1.81zm0-3.05h-7.92v-1.81h7.92v1.81zm-7.93 6.11v-1.81h7.92v1.81h-7.92zm9.14 1.25v3.3h-13.63v-3.29c0-.01 13.63-.02 13.63-.01zm-17.92 7.84h-5.15v-3.3h5.14l.01 3.3zm3.04-4.55h-5.15v-3.3h5.15v3.3zm-6.54-12.46h7.92v1.81h-7.92v-1.81zm0 3.06h7.92v1.8h-7.92v-1.8zm0 4.86v-1.81h7.92v1.81h-7.92zm18.38 9.09h-13.63v-3.3h13.64l-.01 3.3z"/></svg>