<svg xmlns="http://www.w3.org/2000/svg" viewBox="0 0 71 142" enable-background="new 0 0 71 142"><path fill="#ccc" d="M19.56 72.83h31.02v1.6h-31.02v-1.6zm0 2.85v4.11h14.77l2.67-3.16c.12-.14.29-.22.47-.22h5.94c.19 0 .36.08.47.22l2.67 3.15h10.17v-4.11c.02.01-37.16.01-37.16.01zm18.2 1.99l-1.8 2.12h1.08c.74-1.09 1.99-1.81 3.41-1.81s2.67.72 3.41 1.81h1.08l-1.8-2.12h-5.38z"/><path fill="#765" d="M43.12 81.04c-.09-.22-.21-.44-.35-.62-.17-.24-.38-.45-.62-.62-.47-.35-1.06-.56-1.69-.56s-1.22.21-1.69.56c-.24.17-.45.39-.62.62-.14.19-.26.4-.35.62-.13.33-.21.69-.21 1.06 0 1.59 1.29 2.88 2.88 2.88s2.88-1.29 2.88-2.88c-.02-.37-.1-.73-.23-1.06zm-2.67 3.2c-1.18 0-2.13-.96-2.13-2.14 0-.39.12-.75.29-1.06.14-.25.33-.46.55-.62.36-.28.81-.45 1.29-.45s.93.17 1.29.45c.22.17.41.38.55.62.19.31.29.67.29 1.06 0 1.19-.95 2.14-2.13 2.14z"/><path fill="#DA291C" d="M51.83 72.83h4.92v1.6h-4.92v-1.6z"/><g fill="#fff"><circle cx="40.45" cy="82.1" r=".88"/><path d="M56.74 57.02h-25.04c-7.33 0-11.07 11.45-11.95 14.56h37l-.01-14.56z"/></g><path fill="#404040" d="M41.74 80.42c-.36-.28-.81-.44-1.29-.44s-.93.17-1.29.44c-.22.17-.41.38-.55.62-.19.31-.29.67-.29 1.06 0 1.18.96 2.14 2.13 2.14 1.18 0 2.13-.96 2.13-2.14 0-.39-.12-.75-.29-1.06-.14-.25-.33-.46-.55-.62zm-1.29 2.57c-.49 0-.88-.4-.88-.89s.4-.89.88-.89.88.4.88.89-.39.89-.88.89zm17.54-26.59c0-.34-.28-.62-.62-.62h-25.67c-3.94 0-7.51 2.85-10.32 8.24-2.08 3.97-3.01 7.89-3.05 8.05l-.01.14v7.58h-4.68c-.35 0-.62.28-.62.62s.28.62.62.62h22.84c-.09.34-.15.7-.15 1.06 0 2.28 1.85 4.12 4.12 4.12s4.12-1.85 4.12-4.12c0-.37-.06-.72-.15-1.06h12.94c.35 0 .62-.28.62-.62.02 0 .01-24.02.01-24.01zm-1.24 23.39h-10.17l-2.67-3.15c-.12-.14-.29-.22-.47-.22h-5.95c-.19 0-.36.08-.47.22l-2.67 3.15h-14.79v-4.11h37.19v4.11zm-13.42 2.31c0 1.59-1.29 2.88-2.88 2.88s-2.88-1.29-2.88-2.88c0-.38.08-.74.21-1.06.09-.22.21-.44.35-.62.17-.24.38-.45.62-.62.47-.35 1.06-.56 1.69-.56s1.22.21 1.69.56c.24.17.45.39.62.62.14.19.26.4.35.62.15.33.22.69.23 1.06zm-2.88-4.12c-1.42 0-2.67.72-3.41 1.81h-1.08l1.8-2.12h5.37l1.8 2.12h-1.08c-.73-1.09-1.99-1.81-3.4-1.81zm-8.75-20.96h25.05l.01 14.56h-37c.87-3.11 4.61-14.56 11.94-14.56zm25.05 17.41h-4.92v-1.6h4.92v1.6zm-37.19 0v-1.6h31.02v1.6h-31.02z"/></svg>