<svg xmlns="http://www.w3.org/2000/svg" viewBox="0 0 71 142" enable-background="new 0 0 71 142"><path fill="#fff" d="M25 63.33c1.57.25 3.05.79 4.38 1.56v-7.92h-3.42l-.96 6.36zm9.26 6.66h3.46l-.01-13.02h-7.08v8.75c1.49 1.11 2.74 2.56 3.63 4.27z"/><path fill="#666" d="M23.99 67.31c-.34-.04-.68-.07-1.03-.07-1 0-1.97.18-2.86.5-.39.13-.76.29-1.12.48-.36.19-.7.4-1.03.62-2.23 1.58-3.69 4.17-3.69 7.11 0 4.8 3.91 8.71 8.7 8.71 3.78 0 7.01-2.44 8.2-5.82.07-.21.14-.42.19-.62.06-.21.11-.42.15-.62.1-.53.16-1.07.16-1.63 0-1.84-.58-3.54-1.55-4.95-1.39-2.02-3.59-3.41-6.12-3.71zm5.88 9.06c-.01.25-.05.51-.08.76-.04.24-.09.47-.16.69-.82 2.92-3.5 5.06-6.68 5.06-3.83 0-6.94-3.11-6.94-6.94 0-2.88 1.75-5.35 4.25-6.39.22-.09.44-.17.67-.24.24-.07.49-.13.74-.18.42-.08.84-.12 1.27-.12.35 0 .69.03 1.03.08 1.48.22 2.81.9 3.83 1.91 1.28 1.26 2.08 3.01 2.08 4.94.01.14 0 .28-.01.43zm26.82 1.17c-.06-.57-.2-1.12-.4-1.64-.2-.52-.47-1.01-.78-1.45-1.17-1.62-3.08-2.69-5.22-2.69-3.33 0-6.08 2.54-6.41 5.78-.02.21-.03.42-.03.63v.04c0 .2.01.39.03.59.3 3.28 3.06 5.85 6.42 5.85 3.55 0 6.44-2.89 6.44-6.44l-.05-.67zm-6.41 5.15c-2.33 0-4.26-1.79-4.47-4.08l-.02-.41.01-.22c.01-.22.03-.43.08-.64.4-2.07 2.22-3.64 4.4-3.64 1.88 0 3.5 1.17 4.17 2.82.08.19.15.4.19.61.05.2.09.4.11.61l.02.44c0 2.5-2.01 4.51-4.49 4.51z"/><path fill="#5F6E57" d="M34.51 71.24h3.2v3.21h-3.21l.01-3.21zm4.57-16.32h-14.97l-.11.8-1.18 8.16c-.05.3-.3.53-.6.53-2.76.07-5.12 1.11-7.17 3.17h2.53c1.56-1 3.41-1.6 5.39-1.6.35 0 .69.02 1.03.06 3.25.33 6.03 2.25 7.59 4.96.84 1.46 1.33 3.14 1.33 4.94 0 .56-.06 1.11-.15 1.64h.5v-6.81c-.87-1.72-2.11-3.17-3.62-4.24l-.08-.06c-1.56-1.09-3.4-1.79-5.36-2l-.21-.06c-.15-.08-.27-.2-.32-.36-.05-.15-.03-.31.02-.45l.3-1.94.82-5.41c.05-.31.31-.53.62-.53h13.82c-.11-.25-.18-.52-.18-.8zm.18 9.54h-.28l-.01 13.12h3.65c.32-3.95 3.63-7.07 7.66-7.07 2.01 0 3.83.78 5.2 2.04v-5.45c-.86-.57-4.79-2.64-16.22-2.64zm-4.75 11.24h3.2v3.21h-3.21l.01-3.21z"/><path fill="#A8C432" d="M25.75 71c-.54-.31-1.14-.54-1.76-.65-.33-.06-.68-.1-1.03-.1-.3 0-.58.03-.86.07-.26.04-.51.09-.75.17-2.35.7-4.07 2.88-4.07 5.45 0 3.13 2.55 5.69 5.69 5.69 2.82 0 5.16-2.06 5.6-4.76.04-.25.07-.51.08-.77l.01-.16c0-.24-.02-.47-.05-.71-.24-1.81-1.33-3.36-2.86-4.23zm27.76 6.88c-.02-.21-.06-.42-.12-.61-.06-.21-.15-.42-.25-.61-.55-1.01-1.62-1.69-2.85-1.69-1.44 0-2.67.95-3.08 2.26-.06.21-.11.42-.13.64l-.02.34.01.29c.15 1.65 1.53 2.95 3.22 2.95 1.78 0 3.24-1.46 3.24-3.24l-.02-.33zm-12.36-23.82c-.23 0-.44.1-.59.25-.15.15-.24.36-.24.58l.01.04c.01.18.08.35.19.48.15.19.37.31.62.31h.02c.24 0 .46-.1.6-.26.14-.15.22-.34.22-.56s-.08-.42-.22-.57c-.15-.18-.36-.27-.61-.27z"/><path fill="#404040" d="M23.99 69.09c-.34-.05-.68-.08-1.03-.08-.43 0-.86.04-1.27.12-.25.04-.5.1-.74.18-.23.07-.45.15-.67.24-2.49 1.05-4.25 3.53-4.25 6.4 0 3.82 3.11 6.94 6.94 6.94 3.17 0 5.85-2.14 6.68-5.06.07-.23.11-.46.16-.7.05-.25.07-.5.08-.76l.02-.42c0-1.93-.8-3.68-2.08-4.94-1.03-1.01-2.36-1.69-3.84-1.92zm4.6 6.15c.03.23.05.46.05.71l-.01.16c0 .26-.03.51-.08.77-.44 2.69-2.78 4.76-5.6 4.76-3.14 0-5.69-2.55-5.69-5.69 0-2.57 1.72-4.75 4.07-5.45.25-.07.5-.12.75-.17.28-.04.57-.07.86-.07.35 0 .7.04 1.03.1.63.12 1.23.34 1.76.65 1.55.86 2.64 2.41 2.86 4.23zm28.15-1.21v-7.24c0-.17-.07-.33-.19-.45-.13-.13-3.44-3.13-17.28-3.13h-.29v-6.24h2.19c1.15 0 2.08-.94 2.08-2.08 0-1.15-.94-2.08-2.08-2.08-.69 0-1.31.35-1.69.87h-15.9c-.31 0-.58.23-.62.53l-1.3 8.99c-3.34.22-6.12 1.74-8.5 4.62-.15.18-.19.44-.09.66.1.22.32.36.56.36h2.37c-1.85 1.81-3 4.32-3 7.1 0 5.49 4.47 9.96 9.95 9.96 4.49 0 8.28-2.99 9.52-7.07h.78v.7c0 .35.28.62.62.62h4.46c.35 0 .62-.28.62-.62v-.7h3.65c.32 3.95 3.63 7.07 7.66 7.07 4.24 0 7.69-3.45 7.69-7.69.02-1.54-.44-2.97-1.21-4.18zm-16.17-19.73c.15-.15.36-.24.59-.24.24 0 .46.1.6.26.14.15.22.34.22.56s-.08.42-.22.56c-.15.16-.37.26-.6.26h-.02c-.26 0-.47-.12-.62-.31-.11-.14-.17-.3-.19-.48l-.01-.04c.01-.22.1-.42.25-.57zm-9.07 23.28c-.04.21-.09.42-.15.62-.06.21-.12.42-.19.62-1.19 3.38-4.41 5.82-8.2 5.82-4.8 0-8.7-3.9-8.7-8.71 0-2.94 1.47-5.53 3.69-7.11.33-.23.67-.44 1.03-.62s.74-.35 1.12-.48c.9-.32 1.85-.5 2.86-.5.35 0 .69.03 1.03.07 2.53.3 4.74 1.69 6.12 3.69.98 1.4 1.55 3.1 1.55 4.94 0 .59-.06 1.13-.16 1.66zm6.22-7.58h-3.45c-.9-1.71-2.15-3.16-3.64-4.28v-8.75h7.09v13.03zm0 8.9h-3.21v-3.2h3.21v3.2zm0-4.45h-3.21v-3.21h3.21v3.21zm-12.29-18.73c-.31 0-.57.22-.62.53l-.82 5.41-.3 1.94c-.07.14-.08.3-.02.45.06.17.17.29.32.36l.21.07c1.97.21 3.8.91 5.36 2l.08.06c1.51 1.08 2.76 2.52 3.62 4.25v6.8h-.5c.09-.53.15-1.08.15-1.63 0-1.8-.49-3.49-1.33-4.94-1.56-2.71-4.34-4.62-7.59-4.96-.34-.03-.68-.06-1.03-.06-1.99 0-3.84.59-5.39 1.6h-2.53c2.05-2.06 4.41-3.1 7.17-3.17.31-.01.56-.24.6-.53l1.18-8.17.11-.79h14.97c.01.28.06.55.17.79l-13.81-.01zm3.95 1.25v7.92c-1.33-.78-2.81-1.31-4.38-1.56l.97-6.36h3.41zm9.59 20.61v-13.12h.28c11.44 0 15.37 2.08 16.22 2.64v5.45c-1.37-1.26-3.19-2.04-5.2-2.04-4.03 0-7.34 3.12-7.66 7.07h-3.64zm11.32 7.07c-3.35 0-6.11-2.58-6.42-5.85-.02-.19-.03-.39-.03-.59v-.04c0-.21.01-.42.03-.63.33-3.24 3.08-5.78 6.41-5.78 2.15 0 4.05 1.06 5.22 2.69.32.44.58.93.78 1.45s.34 1.07.4 1.64c.03.22.03.44.03.67.02 3.55-2.87 6.44-6.42 6.44zm4.35-7.5c-.05-.21-.12-.42-.19-.61-.67-1.65-2.28-2.82-4.17-2.82-2.19 0-4.01 1.57-4.4 3.64-.04.21-.06.42-.08.64l-.01.22.02.41c.21 2.28 2.13 4.08 4.47 4.08 2.47 0 4.49-2.01 4.49-4.49l-.02-.44c-.02-.22-.06-.43-.11-.63zm-4.36 4.29c-1.69 0-3.08-1.3-3.22-2.95l-.01-.29.02-.34c.03-.22.07-.44.13-.64.42-1.31 1.64-2.26 3.08-2.26 1.23 0 2.3.69 2.85 1.7.1.19.19.39.25.6.06.2.1.4.12.62l.01.32c.01 1.79-1.44 3.24-3.23 3.24z"/></svg>