<svg xmlns="http://www.w3.org/2000/svg" viewBox="0 0 71 142" enable-background="new 0 0 71 142"><path fill="#819F2B" d="M37.82 64.26h-13.2v.94c.61-.08 1.23-.13 1.86-.13 5.44 0 10.14 3.24 12.27 7.89h4.88v-2.88c.01-3.21-2.6-5.82-5.81-5.82z"/><path fill="#666" d="M44.89 84.67c-.19-.14-.4-.26-.62-.35-.2-.09-.41-.15-.62-.19-.21-.04-.42-.07-.63-.07-1.78 0-3.24 1.46-3.24 3.24s1.46 3.24 3.24 3.24 3.24-1.46 3.24-3.24c-.02-1.08-.55-2.04-1.37-2.63zm-1.89 4.52c-1.04 0-1.9-.85-1.9-1.9s.85-1.9 1.9-1.9c.22 0 .44.04.63.12.24.08.44.21.62.37.36.32.59.78.62 1.28l.01.13c.02 1.05-.83 1.9-1.88 1.9zm13.72-2.92c-.1-.31-.43-.49-.74-.4l-4.67 1.42.38 1.14 4.63-1.43c.15-.04.28-.15.35-.29.08-.13.1-.28.05-.44zm-18.8-12.06c-.08-.21-.17-.42-.26-.62-.1-.21-.19-.42-.3-.62-2.03-3.94-6.15-6.64-10.88-6.64-.64 0-1.25.05-1.86.14l-.62.12c-.21.04-.42.1-.62.15-5.24 1.38-9.12 6.16-9.12 11.83 0 6.75 5.49 12.24 12.24 12.24 6.44 0 11.73-5 12.2-11.32.03-.31.04-.61.04-.92v-.08c-.02-1.51-.3-2.95-.82-4.28zm-11.43 15.28c-6.03 0-10.94-4.9-10.94-10.93 0-4.94 3.3-9.14 7.82-10.48l.62-.17c.2-.05.42-.09.62-.12.6-.1 1.23-.16 1.86-.16 3.99 0 7.47 2.14 9.39 5.33l.35.62c.1.21.21.42.29.62.58 1.33.9 2.81.9 4.35.02 6.04-4.88 10.94-10.91 10.94z"/><g fill="#fff"><path d="M43.64 87.23c-.03-.32-.3-.58-.63-.58-.36 0-.65.29-.65.65s.29.65.65.65c.35 0 .62-.28.65-.62l.01-.03-.03-.07zm-8.86-13.64c-.13-.21-.26-.42-.4-.62-1.76-2.47-4.64-4.08-7.89-4.08-.64 0-1.26.06-1.86.18-.21.04-.42.1-.62.15-.21.06-.42.11-.62.19-3.82 1.3-6.57 4.91-6.57 9.16 0 5.34 4.34 9.69 9.68 9.69s9.69-4.35 9.69-9.69c0-1.56-.38-3.04-1.04-4.35l-.37-.63zm-8.29 7.4c-1.34 0-2.43-1.09-2.43-2.43s1.09-2.43 2.43-2.43 2.43 1.09 2.43 2.43-1.09 2.43-2.43 2.43z"/><circle cx="26.49" cy="78.56" r="1.19"/></g><path fill="#AC9D8C" d="M37.87 61.83h-13.24v1.19h13.24c.33 0 .6-.26.6-.59s-.27-.6-.6-.6zm-16.62-10.52l-5.4 1.2c-.15.03-.28.12-.37.26s-.11.3-.08.45c.07.31.4.52.71.45l5.49-1.24-.2-.64-.15-.48z"/><path fill="#404040" d="M44.26 85.88c-.18-.16-.39-.29-.62-.37-.2-.07-.41-.12-.63-.12-1.04 0-1.9.85-1.9 1.9s.85 1.9 1.9 1.9c1.05 0 1.9-.85 1.9-1.9l-.01-.13c-.04-.5-.28-.95-.64-1.28zm-1.91 1.41c0-.36.29-.65.65-.65.33 0 .6.26.63.58l.01.07-.01.03c-.02.35-.29.62-.65.62-.34 0-.63-.29-.63-.65zm15.57-1.39c-.24-.78-.94-1.31-1.76-1.31-.18 0-.36.03-.53.08l-4.69 1.43-1.38-4.17c-.81-1.96-2.59-3.28-4.65-3.53v-8.33c0-3.31-2.29-6.09-5.37-6.85.12-.24.19-.51.19-.81 0-1.01-.83-1.84-1.85-1.84h-13.26c-.05-2.03-.39-4.05-1-5.99l-1.34-4.2v-.01l-.11-.2-.06-.05-.12-.1-.09-.03-.13-.04h-.1l-.11.01-5.95 1.33c-.99.22-1.62 1.21-1.4 2.2.19.83.94 1.44 1.8 1.44.14 0 .27-.01.41-.05l5.6-1.26.43 1.35c.64 1.99.95 4.06.95 6.15v4.33c-5.96 1.4-10.4 6.75-10.4 13.11 0 7.44 6.05 13.49 13.49 13.49 7.08 0 12.9-5.49 13.45-12.43h3.71v3.24c-.21-.03-.42-.05-.63-.05-2.47 0-4.49 2.01-4.49 4.49s2.01 4.49 4.49 4.49 4.49-2.01 4.49-4.49c0-1.8-1.07-3.35-2.6-4.06v-3.56c1.55.24 2.88 1.26 3.48 2.71l2.33 7.03c.08.26.33.43.6.43l.19-.03 5.22-1.6c.47-.15.85-.46 1.09-.9.2-.44.24-.94.1-1.42zm-36.31-33.48l-5.49 1.24c-.31.07-.64-.14-.71-.45-.03-.15-.01-.31.08-.45s.22-.23.37-.26l5.4-1.2.15.48c-.01 0 .2.64.2.64zm4.88 38.38c-6.75 0-12.24-5.49-12.24-12.24 0-5.68 3.88-10.46 9.12-11.83.2-.06.42-.11.62-.15l.62-.11c.61-.1 1.23-.14 1.86-.14 4.73 0 8.85 2.7 10.88 6.64l.3.62.26.62c.51 1.33.79 2.76.8 4.27v.08c0 .31-.01.62-.04.92-.46 6.33-5.75 11.32-12.18 11.32zm-1.87-28.98h13.24c.33 0 .6.26.6.6s-.26.6-.6.6h-13.24v-1.2zm0 2.44h13.2c3.21 0 5.82 2.61 5.82 5.82v2.88h-4.88c-2.13-4.65-6.83-7.89-12.27-7.89-.63 0-1.25.04-1.86.13-.01 0-.01-.94-.01-.94zm15.35 14.11c-.02-1.45-.27-2.85-.72-4.15h4.39v4.15h-3.67zm-.21 8.92c0-1.79 1.46-3.24 3.24-3.24.22 0 .43.02.63.07.22.04.42.11.62.19.22.1.43.21.62.35.81.59 1.35 1.54 1.35 2.62 0 1.79-1.46 3.24-3.24 3.24-1.77.01-3.22-1.44-3.22-3.23zm16.92-.57c-.08.14-.2.25-.35.29l-4.63 1.43-.38-1.14 4.67-1.42c.31-.1.65.09.74.39.04.16.03.32-.05.45zm-20.46-13.13c-.11-.21-.22-.42-.35-.62-1.91-3.19-5.41-5.33-9.39-5.33-.64 0-1.25.06-1.86.16-.21.03-.42.08-.62.12-.21.05-.42.11-.62.17-4.51 1.35-7.82 5.53-7.82 10.48 0 6.03 4.91 10.94 10.93 10.94s10.94-4.9 10.94-10.94c0-1.54-.33-3.01-.9-4.35-.1-.21-.2-.43-.31-.63zm-9.73 14.65c-5.34 0-9.69-4.35-9.69-9.68 0-4.25 2.76-7.86 6.57-9.16.2-.07.42-.13.62-.18.2-.06.42-.11.62-.15.6-.12 1.23-.19 1.86-.19 3.25 0 6.13 1.62 7.89 4.09.15.2.28.41.4.62l.35.62c.66 1.31 1.04 2.78 1.04 4.35.02 5.34-4.32 9.68-9.66 9.68zm0-12.11c-1.34 0-2.43 1.09-2.43 2.43s1.09 2.44 2.43 2.44 2.43-1.09 2.43-2.43-1.09-2.44-2.43-2.44zm0 3.62c-.66 0-1.18-.53-1.18-1.19 0-.65.53-1.18 1.18-1.18s1.18.53 1.18 1.18c0 .66-.53 1.19-1.18 1.19z"/></svg>