<svg xmlns="http://www.w3.org/2000/svg" viewBox="0 0 71 142" enable-background="new 0 0 71 142"><path fill="#AC9D8C" d="M31.08 91.08c0 .65.52 1.17 1.17 1.17s1.17-.53 1.17-1.17v-15.18h-2.33l-.01 15.18zm3.59-15.18v15.18c0 .64.53 1.17 1.17 1.17s1.16-.52 1.16-1.17v-15.18h-2.33z"/><path fill="#B0DFDB" d="M37.01 65.85l-.28.97h.28v-.97zm-5.16 5.84h-.13l-.25-.03-.15-.02-.25-.07v3.07h5.93v-2.96c0 .01-5.15.01-5.15.01zm-.77-5.15c.5-.66 4.82-6.38 4.82-6.38-.51-.42-1.15-.66-1.86-.66-1.63 0-2.96 1.33-2.96 2.96v4.08zm6.5 2.72c0-.17.01-.33.05-.48.05-.25.15-.49.28-.71h-1.54l-.69 2.38h2.24c-.12-.22-.22-.45-.28-.71-.04-.16-.06-.32-.06-.48z"/><path fill="#fff" d="M36.89 61.65l-.06-.2-.01-.05-.1-.24c-.92 1.23-5.23 6.9-5.62 7.4v.89c0 .29.03.48.09.62.11.28.31.34.57.35h2.6199999999999997l2.54-8.72v-.01l-.03-.04z"/><path fill="#E6D1B8" d="M34.04 49.75c-2.34 0-4.25 1.9-4.25 4.25s1.91 4.25 4.25 4.25 4.25-1.9 4.25-4.25-1.9-4.25-4.25-4.25zm5.98 18.32l-.08.01c-.62.04-1.1.55-1.1 1.18 0 .62.47 1.12 1.08 1.18l.11.01c.65 0 1.19-.53 1.19-1.19s-.54-1.19-1.2-1.19z"/><path fill="#404040" d="M40.02 66.82h-1.76v-4.36c0-.29-.03-.58-.08-.85v-.01l-.03-.08-.1-.38-.01-.02c-.1-.31-.24-.62-.42-.89l-.01-.01-.12-.18c-.15-.23-.28-.35-.29-.37l-.02-.01c-.23-.26-.49-.49-.78-.69 1.86-.88 3.15-2.77 3.15-4.97 0-3.03-2.47-5.5-5.5-5.5s-5.5 2.47-5.5 5.5c0 2.19 1.29 4.08 3.15 4.97-1.09.73-1.81 1.95-1.86 3.35v28.77c0 1.33 1.08 2.42 2.42 2.42.72 0 1.35-.32 1.79-.81.44.49 1.08.81 1.79.81 1.33 0 2.42-1.08 2.42-2.42v-19.4l1.76.01c1.35 0 2.44-1.1 2.44-2.44 0-1.35-1.09-2.44-2.44-2.44zm-3.01 24.26c0 .65-.53 1.17-1.17 1.17s-1.17-.53-1.17-1.17v-15.18h2.33l.01 15.18zm-3.59 0c0 .65-.53 1.17-1.17 1.17-.65 0-1.17-.53-1.17-1.17v-15.18h2.34v15.18zm.62-41.33c2.35 0 4.25 1.9 4.25 4.25s-1.9 4.25-4.25 4.25-4.25-1.9-4.25-4.25c.01-2.35 1.91-4.25 4.25-4.25zm4.79 19.5c0-.62.49-1.14 1.1-1.18l.08-.01c.65 0 1.19.53 1.19 1.19s-.53 1.19-1.19 1.19l-.11-.01c-.59-.05-1.07-.55-1.07-1.18zm-1.94-7.6l.02.06-2.54 8.72h-2.6199999999999997c-.25-.01-.45-.08-.57-.35-.06-.14-.09-.34-.09-.62v-.89c.4-.5 4.7-6.17 5.62-7.39l.11.23.01.05.06.19zm.12 5.17h-.28l.28-.97v.97zm-5.93-.29v-4.08c0-1.63 1.33-2.96 2.96-2.96.71 0 1.35.25 1.86.66l-4.82 6.38zm5.93 8.12h-5.92v-3.08l.25.06.15.03.25.02.03.01h5.2299999999999995l.01 2.96zm-1.34-4.21l.69-2.38h1.54c-.12.22-.22.46-.28.71-.03.15-.05.32-.05.48s.01.33.05.48c.05.25.15.49.28.71h-2.23z"/></svg>