<svg xmlns="http://www.w3.org/2000/svg" viewBox="0 0 71 142" enable-background="new 0 0 71 142"><path fill="#CDCCCC" stroke="#ccc" stroke-miterlimit="10" d="M38.24 81.36c-1.56 0-3.01-.45-4.24-1.22h-17.82v2.29h38.64v-2.29h-12.33c-1.24.76-2.69 1.22-4.25 1.22zm-4.91-20.76c-.5.95-1.5 1.58-2.6 1.58h-14.55v5.92h15.94c1.48-1.74 3.67-2.84 6.12-2.84s4.65 1.1 6.12 2.84h10.45v-7.49c.01 0-21.48 0-21.48-.01zm18.91 5.76c0 .35-.28.62-.62.62h-6.29c-.35 0-.62-.28-.62-.62v-3.72c0-.34.28-.62.62-.62h6.29c.35 0 .62.28.62.62v3.72z"/><path fill="#DA291C" d="M31.24 69.35h-15.07v9.54h16.27c-1.4-1.45-2.26-3.42-2.26-5.58.01-1.45.39-2.8 1.06-3.96zm14 0c.67 1.17 1.05 2.52 1.05 3.96 0 2.17-.87 4.13-2.26 5.58h10.78v-9.54h-9.57z"/><path fill="#666" d="M43.76 69.35c-.16-.22-.33-.43-.51-.62-.21-.22-.42-.43-.65-.62-1.18-.99-2.7-1.59-4.36-1.59-1.66 0-3.18.6-4.37 1.59-.23.19-.44.4-.65.62-.18.2-.35.4-.51.62-.81 1.12-1.28 2.49-1.28 3.96 0 2.31 1.16 4.35 2.92 5.58.35.24.72.45 1.1.62.85.38 1.78.6 2.78.6s1.92-.22 2.78-.6c.39-.17.76-.39 1.1-.62 1.76-1.23 2.92-3.27 2.92-5.58.01-1.48-.47-2.85-1.27-3.96zm-5.52 9.17c-2.88 0-5.22-2.34-5.22-5.22 0-1.58.72-3 1.83-3.96.28-.24.58-.45.9-.62.74-.4 1.58-.62 2.47-.62.9 0 1.74.22 2.47.62.33.18.62.38.9.62 1.12.96 1.83 2.38 1.83 3.96.03 2.88-2.31 5.22-5.18 5.22z"/><path fill="#fff" d="M45.94 63.27h5.04v2.47h-5.04v-2.47zm-24.99-3.69h5.78v1.3h-5.78v-1.3zm17.29 9.77c-2.19 0-3.97 1.78-3.97 3.96 0 2.19 1.78 3.97 3.97 3.97s3.96-1.78 3.96-3.97c.01-2.19-1.78-3.96-3.96-3.96z"/><path fill="#404040" d="M56.11 67.04l-.04.01v-7.07c0-.34-.28-.62-.62-.62h-22.53c-.27 0-.51.17-.59.42-.24.68-.88 1.15-1.6 1.15h-2.74v-1.98c0-.34-.28-.62-.62-.62h-7.03c-.34 0-.62.28-.62.62v1.98h-4.15c-.35 0-.62.28-.62.62v5.5l-.03-.01c-1.05 0-1.89.85-1.89 1.89s.85 1.89 1.89 1.89h.03v12.22c0 .35.28.62.62.62h39.89c.35 0 .62-.28.62-.62v-12.22l.04.01c1.04 0 1.89-.85 1.89-1.89-.01-1.04-.86-1.9-1.9-1.9zm0 2.54l-.04-.01v-1.26l.04-.01c.35 0 .64.29.64.64s-.29.64-.64.64zm-41.86-.64c0-.35.29-.64.64-.64l.03.01v1.27h-.03c-.35 0-.64-.29-.64-.64zm6.7-9.36h5.78v1.29h-5.78v-1.29zm-4.78 2.6h14.55c1.1 0 2.1-.61 2.6-1.57h21.49v7.49h-10.45c-1.48-1.74-3.67-2.84-6.12-2.84s-4.65 1.1-6.12 2.84h-15.95v-5.92zm0 17.96h17.83c1.24.77 2.69 1.22 4.24 1.22s3.01-.45 4.24-1.22h12.33v2.29h-38.64v-2.29zm24.84-.63c-.85.38-1.78.6-2.78.6s-1.92-.21-2.78-.6c-.39-.18-.76-.38-1.1-.62-1.76-1.23-2.92-3.27-2.92-5.58 0-1.48.48-2.85 1.28-3.96.16-.22.33-.42.51-.62.21-.22.42-.43.65-.62 1.18-.99 2.7-1.59 4.37-1.59 1.66 0 3.18.6 4.36 1.59.23.19.44.4.65.62.18.2.35.4.51.62.81 1.11 1.28 2.49 1.28 3.96 0 2.31-1.16 4.35-2.92 5.58-.35.24-.72.45-1.11.62zm-24.84-10.16h15.06c-.67 1.17-1.05 2.52-1.05 3.96 0 2.17.86 4.13 2.26 5.58h-16.27v-9.54zm38.64 9.54h-10.78c1.4-1.45 2.26-3.42 2.26-5.58 0-1.44-.38-2.79-1.05-3.96h9.57v9.54zm-9.49-11.9h6.29c.35 0 .62-.28.62-.62v-3.72c0-.34-.28-.62-.62-.62h-6.29c-.35 0-.62.28-.62.62v3.72c-.01.34.27.62.62.62zm.62-3.72h5.04v2.47h-5.04v-2.47zm-4.32 6.08c-.28-.24-.58-.45-.9-.62-.74-.4-1.58-.62-2.47-.62-.9 0-1.74.22-2.47.62-.33.18-.62.38-.9.62-1.12.96-1.83 2.38-1.83 3.96 0 2.88 2.34 5.22 5.22 5.22s5.21-2.34 5.21-5.22c-.03-1.59-.74-3.01-1.86-3.96zm-3.38 7.92c-2.19 0-3.97-1.78-3.97-3.97s1.78-3.96 3.97-3.96 3.96 1.78 3.96 3.96c0 2.19-1.78 3.97-3.96 3.97z"/></svg>