<svg xmlns="http://www.w3.org/2000/svg" viewBox="0 0 71 142" enable-background="new 0 0 71 142"><path fill="#B0DFDB" d="M24.26 66.33c0 .28.23.5.5.5h5.99v-4.36h-6.49v3.86zm7.64-3.84h6.5v4.36h-6.5v-4.36z"/><path fill="#DA291C" d="M46.52 74.77v-2.98c0-.32.26-.57.58-.57s.58.26.58.57v1.83l.31-.31c.2-.2.42-.38.63-.56v-.95c0-.32.26-.57.58-.57s.58.25.58.57v.21c.84-.44 1.76-.69 2.72-.76.06-.32.15-.62.3-.9v-1.39l-13.84-.96h-14.2c-.92 0-1.66-.74-1.66-1.65v-3.85h-1.22c-.99 0-1.78.8-1.78 1.78v1.99c0 .96-.78 1.74-1.74 1.74h-2.65c-.15 0-.28-.02-.41-.05.18 1.46.46 3.07.84 4.52 1.19-.8 2.64-1.26 4.2-1.21 3.94.14 6.81 3.16 6.83 7.19h10.88c2.95 0 5.98-1.19 7.9-3.11l.57-.58zm-3.05-.01c0 .32-.26.57-.58.57s-.58-.26-.58-.57v-2.97c0-.32.26-.58.58-.58s.58.26.58.58v2.97zm2.1 0c0 .32-.26.57-.58.57s-.58-.26-.58-.57v-2.97c0-.32.26-.58.58-.58s.58.26.58.58v2.97zm10.79-1.37l-.1-.06c-.19-.12-.38-.23-.58-.33-.19-.1-.38-.18-.58-.25-.46-.17-.94-.29-1.42-.34l-.17-.02-.44-.02h-.06l-.45.02h-.06c-.41.03-.81.11-1.2.22-.94.28-1.79.79-2.51 1.49l-1.48 1.48-.56.56c-.44.44-.94.85-1.48 1.21-.4.28-.83.54-1.28.77 1.87-.47 3.6-1.44 4.97-2.81l.51-.51c.69-.69 1.55-1.15 2.49-1.35l.04-.01.11-.02.3-.04.08-.01.33-.01.17-.01.35.02.2.02h.1l.17.03c.18.03.35.07.53.12l.11.03c.19.06.38.13.58.22l.17.08c.15.07.29.15.43.24l.04.03.06.04c.1.06.21.1.33.1l.19-.04.12-.06c.12-.1.19-.26.17-.42 0-.11-.03-.26-.18-.37zm-36.06-.98c-1.44-.04-2.76.42-3.82 1.22-.17.12-.32.26-.48.4-.15.15-.31.31-.44.47-.74.88-1.24 1.96-1.38 3.16.56-.18 1.04-.6 1.26-1.16l.03-.08.03-.08.18-.36.02-.04c.08-.15.16-.29.26-.42.12-.19.26-.36.41-.52.14-.15.28-.3.44-.43.63-.55 1.4-.94 2.24-1.11l.09-.01.35-.06.14-.01.42-.02h.12l.17.01.31.02.11.01c2.43.33 4.31 2.42 4.31 4.93v.12h.95c-.02-3.38-2.42-5.92-5.72-6.04z"/><path fill="#808080" d="M55.11 71.53v-1.75c-.49.14-.9.46-1.17.87-.12.19-.21.39-.27.61l.27.03c.4.04.79.13 1.17.24zm-.08 3.55l-.32-.18-.14-.07h-.01l-.15-.06-.28-.1-.1-.03-.4-.08-.13-.02c-.17-.02-.33-.03-.49-.03-.13 0-.26 0-.39.02l-.06.01-.31.05-.03.01c-1.74.37-3.03 1.91-3.03 3.75 0 2.12 1.72 3.83 3.83 3.83 2.12 0 3.83-1.72 3.83-3.83 0-1.39-.73-2.59-1.82-3.27zm-2.02 6.24c-1.65 0-2.99-1.34-2.99-2.99s1.34-2.99 2.99-2.99 2.99 1.34 2.99 2.99c.01 1.65-1.33 2.99-2.99 2.99zm-13.98-20.76c-.15 0-12.39-.66-14.55-.7-.61-.01-1.14-.02-1.64-.02-1.2 0-2.25.06-4.06.35-2.31.38-3.7 1.71-3.76 3.57l-.01.11.02.6.03.67.02.55.01.25.02.35.01.05c.04.29.28.51.58.51h2.65c.33 0 .59-.26.59-.59v-1.99c0-.67.23-1.29.61-1.78.17-.22.36-.41.58-.58.49-.36 1.08-.57 1.74-.57h17.09c.21 0 .38-.13.42-.31.03-.17-.03-.28-.08-.33-.05-.09-.16-.14-.27-.14zm-18.41 13.98l-.1-.01-.2-.01-.23-.01c-.17 0-.34.01-.51.04l-.15.02-.41.1-.18.06-.31.12-.22.11-.19.11c-.13.07-.25.16-.37.25l-.14.11-.21.19-.03.03-.12.13-.24.29-.01.01-.16.23-.1.16-.06.1-.15.32c-.18.44-.28.93-.28 1.45 0 2.12 1.72 3.84 3.84 3.84 1.76 0 3.24-1.2 3.69-2.81.05-.19.09-.38.11-.57l.02-.38v-.2c-.07-1.89-1.48-3.41-3.29-3.68zm2.34 4.61c-.35 1.26-1.51 2.18-2.88 2.18-1.65 0-2.99-1.34-2.99-2.99 0-.46.11-.9.3-1.29.08-.17.18-.34.3-.49.12-.16.25-.31.4-.44.53-.47 1.23-.77 2-.77 1.52 0 2.78 1.15 2.97 2.62l.02.36-.01.24c-.02.2-.06.39-.11.58z"/><path fill="#fff" d="M53.01 76.49c-1.01 0-1.84.82-1.84 1.84s.83 1.84 1.84 1.84 1.84-.82 1.84-1.84c.01-1.01-.82-1.84-1.84-1.84zm-31.25 1.1c-.29-.64-.93-1.1-1.68-1.1-.29 0-.57.08-.81.2-.2.1-.38.23-.53.39-.14.14-.25.31-.33.49-.11.24-.17.5-.17.76 0 1.01.83 1.84 1.84 1.84.84 0 1.55-.58 1.76-1.35.05-.15.08-.32.08-.49l-.01-.1c-.01-.22-.06-.44-.15-.64z"/><path fill="#404040" d="M56.88 75.19l.24-.17c.4-.34.6-.83.58-1.35-.03-.51-.28-.96-.69-1.24-.24-.16-.49-.31-.74-.44v-2.88c0-.32-.26-.58-.58-.58-.65 0-1.24.19-1.74.51v-.65c0-.3-.24-.56-.53-.58l-13.85-.95v-4.5c.49-.19.88-.61.98-1.14.09-.46-.03-.92-.33-1.28-.29-.35-.72-.56-1.15-.56-.51-.02-12.38-.66-14.56-.71-2.12-.04-3.26-.09-5.91.35-2.91.48-4.73 2.33-4.73 4.83l.03.94c.01.29.02.63.05 1.02l.02.49.03.25c.16 1.87.52 4.43 1.15 6.67-1.32 1.32-2.15 3.12-2.15 5.12 0 .32.26.58.57.58.56 0 1.07-.14 1.53-.39.1 2.66 2.29 4.8 4.97 4.8 2.31 0 4.26-1.58 4.82-3.72h16.56c2.37 0 4.7-.74 6.65-2.06-.04.26-.07.53-.07.8 0 2.75 2.24 4.99 4.99 4.99s4.98-2.25 4.98-5c0-1.19-.42-2.28-1.12-3.15zm-7.7 3.15c0-1.09.46-2.07 1.19-2.77l.28-.25.12-.09.33-.21.13-.07.4-.18.12-.04c.15-.05.3-.1.46-.13l.03-.01.31-.05.06-.01.39-.02c.17 0 .33.01.49.03l.13.02.4.08.1.03.28.1.15.06h.01l.14.07.32.18c1.09.67 1.82 1.88 1.82 3.25 0 2.12-1.72 3.84-3.83 3.84-2.11 0-3.83-1.72-3.83-3.83zm-22.01.12c-.02-4.03-2.88-7.06-6.83-7.19-1.56-.05-3.01.4-4.2 1.21-.38-1.46-.65-3.06-.84-4.52.14.03.27.05.41.05h2.65c.96 0 1.74-.78 1.74-1.74v-1.99c0-.99.8-1.78 1.78-1.78h1.22v3.85c0 .92.75 1.65 1.66 1.65h14.19l13.83.96v1.39c-.14.28-.24.59-.3.9-.96.07-1.88.33-2.72.76v-.21c0-.32-.26-.57-.58-.57s-.58.25-.58.57v.95c-.22.18-.43.36-.63.56l-.31.31v-1.83c0-.32-.26-.57-.58-.57s-.58.26-.58.57v2.98l-.58.57c-1.92 1.92-4.94 3.11-7.9 3.11l-10.85.01zm-7.09 3.71c-2.11 0-3.83-1.72-3.83-3.83 0-.51.1-1 .28-1.45l.15-.32.06-.1.1-.17.16-.22.01-.01.24-.29.12-.14.03-.02.21-.19.14-.1.37-.26.19-.11.22-.1.31-.12.18-.06.41-.1.15-.02c.17-.03.34-.04.51-.04l.23.01.2.01.1.01c1.82.26 3.23 1.79 3.29 3.66v.2l-.02.38c-.02.19-.06.38-.11.57-.45 1.62-1.94 2.81-3.7 2.81zm-4.07-8.13c.15-.14.31-.28.48-.4 1.05-.81 2.38-1.27 3.82-1.22 3.3.12 5.69 2.65 5.72 6.04h-.95v-.12c0-2.52-1.88-4.6-4.31-4.93l-.11-.01-.31-.02-.17-.01h-.12l-.42.02-.14.01c-.12.01-.24.03-.35.06l-.09.01c-.83.18-1.6.56-2.24 1.11-.16.13-.31.28-.44.43-.15.17-.28.34-.4.52l-.26.42-.02.04-.18.36-.03.08-.03.08c-.22.56-.69.98-1.26 1.16.14-1.2.64-2.28 1.38-3.16.12-.16.27-.32.43-.47zm6.83-14.21c.5 0 1.03.01 1.64.02 2.16.05 14.4.7 14.55.7.12 0 .22.05.3.14.04.05.11.17.08.33-.03.17-.21.31-.42.31h-17.09c-.65 0-1.25.22-1.74.58-.22.17-.42.35-.58.58-.38.5-.61 1.11-.61 1.79v1.99c0 .32-.26.59-.59.59h-2.65c-.3 0-.54-.22-.58-.51l-.01-.05-.02-.35-.01-.25-.02-.55-.03-.67-.02-.6.01-.11c.06-1.85 1.45-3.18 3.76-3.56 1.78-.32 2.83-.38 4.03-.38zm9.07 7.02v-4.36h6.5v4.36h-6.5zm-7.15 0c-.28 0-.5-.23-.5-.51v-3.85h6.5v4.36h-6zm30.35 2.93v1.75c-.38-.12-.77-.2-1.17-.25l-.27-.03c.06-.21.15-.42.27-.6.28-.41.68-.73 1.17-.87zm-9.83 7.59c.53-.37 1.03-.77 1.48-1.21l.56-.56 1.48-1.48c.71-.71 1.56-1.22 2.51-1.5.39-.11.79-.19 1.2-.22l.06-.01.45-.02h.06l.44.02.17.02c.49.05.97.16 1.42.34.19.07.38.16.58.25.19.1.39.21.58.33l.1.06c.15.11.19.26.19.35.01.16-.06.31-.17.41l-.12.06-.19.04c-.12 0-.23-.03-.33-.1l-.06-.04-.04-.02c-.14-.09-.28-.17-.43-.24l-.17-.08c-.19-.08-.38-.16-.58-.22l-.11-.03-.53-.12-.17-.02-.1-.01c-.18-.02-.36-.04-.54-.04l-.17.01-.33.01-.08.01-.3.04-.11.02-.04.01c-.21.04-.41.1-.61.17l-.24.1-.33.15-.28.15-.26.17-.28.19-.22.19-.26.22-.51.51c-1.37 1.38-3.1 2.35-4.97 2.81.42-.19.85-.44 1.25-.72zm7.73-2.03c-1.65 0-2.99 1.34-2.99 2.99s1.34 2.99 2.99 2.99 2.99-1.34 2.99-2.99c.01-1.65-1.33-2.99-2.99-2.99zm-1.84 2.99c0-1.01.83-1.84 1.84-1.84s1.84.83 1.84 1.84-.83 1.84-1.84 1.84-1.84-.82-1.84-1.84zm-6.18-7.11c-.32 0-.58.26-.58.57v2.98c0 .31.26.57.58.57s.58-.26.58-.57v-2.98c0-.32-.26-.57-.58-.57zm-2.09 0c-.32 0-.58.26-.58.57v2.98c0 .31.26.57.58.57s.58-.26.58-.57v-2.98c-.01-.32-.26-.57-.58-.57zm-22.82 4.13c-.76 0-1.47.29-2 .77-.15.13-.28.27-.4.43-.11.15-.22.32-.3.49-.19.39-.3.83-.3 1.29 0 1.65 1.34 2.99 2.99 2.99 1.37 0 2.52-.92 2.88-2.19.05-.18.08-.38.1-.57l.01-.24-.02-.37c-.17-1.46-1.43-2.6-2.96-2.6zm1.84 2.99c0 .17-.03.34-.08.49-.22.78-.92 1.35-1.76 1.35-1.01 0-1.84-.83-1.84-1.84 0-.27.07-.53.17-.76.08-.18.19-.34.33-.49.15-.16.33-.29.53-.39.25-.12.52-.19.81-.19.75 0 1.39.45 1.68 1.1.09.2.14.42.16.65v.08z"/></svg>