<?xml version="1.0" encoding="utf-8"?>
<!-- Generator: Adobe Illustrator 15.1.0, SVG Export Plug-In  -->
<!DOCTYPE svg PUBLIC "-//W3C//DTD SVG 1.1//EN" "http://www.w3.org/Graphics/SVG/1.1/DTD/svg11.dtd" [
	<!ENTITY ns_flows "http://ns.adobe.com/Flows/1.0/">
]>
<svg version="1.1"
	 xmlns="http://www.w3.org/2000/svg" xmlns:xlink="http://www.w3.org/1999/xlink" xmlns:a="http://ns.adobe.com/AdobeSVGViewerExtensions/3.0/"
	 x="0px" y="0px" width="130px" height="130px" viewBox="-15.932 0 130 130"
	 overflow="visible" enable-background="new -15.932 0 130 130" xml:space="preserve">
<defs>
</defs>
<path fill="#00354E" d="M67.132,46.406c5.283-4.891,8.611-11.866,8.611-19.631c0-1.677-0.175-3.315-0.472-4.909
	c5.063-1.004,8.884-5.467,8.884-10.828C84.157,4.943,79.214,0,73.116,0c-3.731,0-7.021,1.857-9.022,4.69
	C59.789,1.736,54.583,0,48.966,0c-5.484,0-10.58,1.656-14.824,4.484C32.131,1.767,28.913,0,25.273,0
	c-6.099,0-11.041,4.943-11.041,11.039c0,5.203,3.602,9.549,8.44,10.719c-0.307,1.627-0.485,3.302-0.485,5.017
	c0,7.757,3.321,14.723,8.589,19.615c-11.51-1.414-36.251,7.787-29.685,21.795c4.388,9.354,11.336,9.152,18.002,4.896
	c-0.144,1.197-0.238,2.412-0.238,3.654c0,6.002,1.758,11.582,4.756,16.303c-6.659,9.078-9.741,36.732,6.128,36.959
	c14.754,0.217,14.278-12.799,9.329-24.582c3.22,1.158,6.672,1.82,10.288,1.82c3.319,0,6.506-0.549,9.499-1.527
	c-4.834,11.701-5.182,24.502,9.451,24.289c15.585-0.225,12.889-26.879,6.484-36.438c3.196-4.828,5.068-10.605,5.068-16.824
	c0-1.08-0.059-2.146-0.166-3.191c6.438,3.803,13.041,3.654,17.268-5.359C103.548,54.116,78.582,44.9,67.132,46.406 M60.75,25.821
	c1.125,0,2.037,0.911,2.037,2.036c0,1.127-0.912,2.038-2.037,2.038c-1.127,0-2.039-0.911-2.039-2.038
	C58.71,26.731,59.623,25.821,60.75,25.821 M48.968,32.822c2.938,0,5.321-1.276,5.321,1.662c0,2.94-5.321,3.292-5.321,3.292
	s-5.325-0.351-5.325-3.292C43.644,31.546,46.026,32.822,48.968,32.822 M37.915,25.821c1.125,0,2.038,0.911,2.038,2.036
	c0,1.127-0.913,2.038-2.038,2.038s-2.038-0.911-2.038-2.038C35.877,26.731,36.79,25.821,37.915,25.821 M49.04,98.906
	c-8.661,0-15.686-9.205-15.686-20.561c0-11.353,7.025-20.555,15.686-20.555c8.659,0,15.682,9.202,15.682,20.555
	C64.72,89.701,57.699,98.906,49.04,98.906"/>
</svg>
