<!-- Created with Inkscape (http://www.inkscape.org/) -->
<svg id="svg2" xmlns:rdf="http://www.w3.org/1999/02/22-rdf-syntax-ns#" xmlns="http://www.w3.org/2000/svg" height="379.57" width="286.28" version="1.1" xmlns:cc="http://creativecommons.org/ns#" xmlns:dc="http://purl.org/dc/elements/1.1/">
 <metadata id="metadata7">
  <rdf:RDF>
   <cc:Work rdf:about="">
    <dc:format>image/svg+xml</dc:format>
    <dc:type rdf:resource="http://purl.org/dc/dcmitype/StillImage"/>
    <dc:title/>
   </cc:Work>
  </rdf:RDF>
 </metadata>
 <g id="layer1" transform="translate(-236.86167,-271.15077)">
  <path id="main" fill="#0086c0" d="m432.87,406.64c15.423-14.281,25.143-34.644,25.143-57.318,0-4.896-0.515-9.683-1.38-14.332,14.785-2.932,25.94-15.961,25.94-31.614,0-17.796-14.435-32.229-32.236-32.229-10.898,0-20.505,5.423-26.343,13.694-12.571-8.623-27.773-13.694-44.169-13.694-16.01,0-30.888,4.834-43.279,13.094-5.874-7.933-15.269-13.094-25.895-13.094-17.807,0-32.237,14.433-32.237,32.229,0,15.192,10.518,27.882,24.644,31.297-0.896,4.749-1.416,9.642-1.416,14.648,0,22.649,9.694,42.986,25.076,57.267-33.606-4.129-105.84,22.736-86.672,63.638,12.809,27.314,33.097,26.723,52.561,14.301-0.417,3.495-0.695,7.042-0.695,10.661,0,17.529,5.133,33.822,13.884,47.604-19.439,26.508-28.438,107.24,17.895,107.91,43.079,0.628,41.688-37.375,27.238-71.773,9.4,3.377,19.48,5.312,30.039,5.312,9.693,0,18.996-1.602,27.732-4.458-14.116,34.162-15.125,71.536,27.598,70.919,45.498-0.659,37.622-78.477,18.925-106.39,9.338-14.096,14.806-30.961,14.806-49.128,0-3.146-0.176-6.255-0.489-9.312,18.801,11.104,38.08,10.672,50.414-15.649,19.242-41.078-53.659-67.983-87.084-63.587m-18.642-60.105c3.284,0,5.946,2.661,5.946,5.946,0,3.29-2.662,5.951-5.946,5.951s-5.956-2.661-5.956-5.951c0-3.285,2.672-5.946,5.956-5.946m-34.398,20.442c8.576,0,15.536-3.722,15.536,4.854,0,8.584-15.536,9.611-15.536,9.611s-15.542-1.027-15.542-9.611c0-8.576,6.955-4.854,15.542-4.854m-32.268-20.442c3.285,0,5.951,2.661,5.951,5.946,0,3.29-2.667,5.951-5.951,5.951s-5.951-2.661-5.951-5.951c-0.001-3.285,2.666-5.946,5.951-5.946m32.479,213.39c-25.287,0-45.797-26.878-45.797-60.031,0-33.14,20.51-60.01,45.797-60.01,25.282,0,45.786,26.87,45.786,60.01,0,33.153-20.504,60.031-45.786,60.031"/>
 </g>
</svg>
